<ttFont>
    <TTGlyph name="A" xMin="-5" yMin="-6" xMax="681" yMax="658">
      <contour>
        <pt x="615" y="153" on="1"/>
        <pt x="624" y="119" on="0"/>
        <pt x="651" y="88" on="0"/>
        <pt x="674" y="86" on="1"/>
        <pt x="681" y="76" on="1"/>
        <pt x="673" y="-3" on="1"/>
        <pt x="648" y="-3" on="0"/>
        <pt x="623" y="-2" on="1"/>
        <pt x="602" y="-2" on="0"/>
        <pt x="552" y="-1" on="0"/>
        <pt x="532" y="-1" on="1"/>
        <pt x="496" y="-1" on="0"/>
        <pt x="428" y="-3" on="0"/>
        <pt x="401" y="-4" on="1"/>
        <pt x="369" y="-5" on="0"/>
        <pt x="341" y="-6" on="1"/>
        <pt x="333" y="3" on="1"/>
        <pt x="339" y="87" on="1"/>
        <pt x="362" y="90" on="0"/>
        <pt x="388" y="94" on="0"/>
        <pt x="400" y="100" on="0"/>
        <pt x="403" y="111" on="0"/>
        <pt x="403" y="121" on="1"/>
        <pt x="403" y="124" on="0"/>
        <pt x="402" y="133" on="0"/>
        <pt x="401" y="139" on="1"/>
        <pt x="395" y="178" on="1"/>
        <pt x="375" y="179" on="0"/>
        <pt x="332" y="180" on="0"/>
        <pt x="318" y="180" on="1"/>
        <pt x="301" y="180" on="0"/>
        <pt x="258" y="177" on="0"/>
        <pt x="238" y="175" on="1"/>
        <pt x="228" y="131" on="1"/>
        <pt x="225" y="114" on="0"/>
        <pt x="225" y="109" on="1"/>
        <pt x="225" y="96" on="0"/>
        <pt x="236" y="89" on="0"/>
        <pt x="256" y="89" on="1"/>
        <pt x="282" y="89" on="1"/>
        <pt x="290" y="79" on="1"/>
        <pt x="282" y="-4" on="1"/>
        <pt x="255" y="-4" on="0"/>
        <pt x="228" y="-3" on="1"/>
        <pt x="205" y="-2" on="0"/>
        <pt x="151" y="-1" on="0"/>
        <pt x="128" y="-1" on="1"/>
        <pt x="105" y="-1" on="0"/>
        <pt x="57" y="-2" on="0"/>
        <pt x="38" y="-2" on="1"/>
        <pt x="-5" y="-2" on="1"/>
        <pt x="2" y="85" on="1"/>
        <pt x="38" y="94" on="0"/>
        <pt x="53" y="140" on="1"/>
        <pt x="212" y="642" on="1"/>
        <pt x="475" y="658" on="1"/>
        <pt x="490" y="646" on="1"/>
        <pt x="517" y="537" on="0"/>
        <pt x="542" y="440" on="1"/>
        <pt x="552" y="399" on="0"/>
        <pt x="574" y="314" on="0"/>
        <pt x="593" y="237" on="0"/>
        <pt x="609" y="173" on="0"/>
      </contour>
      <contour>
        <pt x="270" y="301" on="1"/>
        <pt x="321" y="301" on="1"/>
        <pt x="332" y="301" on="0"/>
        <pt x="359" y="302" on="0"/>
        <pt x="373" y="303" on="1"/>
        <pt x="339" y="478" on="1"/>
        <pt x="317" y="478" on="1"/>
      </contour>
    </TTGlyph>
    <TTGlyph name="AE" xMin="2" yMin="-7" xMax="917" yMax="659">
      <contour>
        <pt x="339" y="87" on="1"/>
        <pt x="381" y="92" on="0"/>
        <pt x="407" y="108" on="0"/>
        <pt x="407" y="130" on="1"/>
        <pt x="407" y="138" on="0"/>
        <pt x="407" y="151" on="0"/>
        <pt x="406" y="162" on="1"/>
        <pt x="401" y="219" on="1"/>
        <pt x="326" y="206" on="1"/>
        <pt x="249" y="183" on="1"/>
        <pt x="233" y="130" on="1"/>
        <pt x="227" y="110" on="0"/>
        <pt x="227" y="104" on="1"/>
        <pt x="227" y="92" on="0"/>
        <pt x="247" y="89" on="0"/>
        <pt x="282" y="89" on="1"/>
        <pt x="289" y="79" on="1"/>
        <pt x="282" y="-4" on="1"/>
        <pt x="281" y="-4" on="0"/>
        <pt x="233" y="-3" on="0"/>
        <pt x="168" y="-2" on="0"/>
        <pt x="103" y="-1" on="0"/>
        <pt x="85" y="-1" on="1"/>
        <pt x="68" y="-1" on="0"/>
        <pt x="40" y="-2" on="0"/>
        <pt x="29" y="-2" on="1"/>
        <pt x="5" y="-2" on="1"/>
        <pt x="2" y="85" on="1"/>
        <pt x="38" y="94" on="0"/>
        <pt x="59" y="140" on="1"/>
        <pt x="225" y="531" on="1"/>
        <pt x="223" y="547" on="0"/>
        <pt x="211" y="559" on="0"/>
        <pt x="199" y="559" on="1"/>
        <pt x="194" y="559" on="0"/>
        <pt x="186" y="558" on="0"/>
        <pt x="182" y="558" on="1"/>
        <pt x="178" y="557" on="0"/>
        <pt x="173" y="557" on="1"/>
        <pt x="161" y="571" on="1"/>
        <pt x="170" y="650" on="1"/>
        <pt x="218" y="649" on="0"/>
        <pt x="273" y="648" on="1"/>
        <pt x="320" y="647" on="0"/>
        <pt x="438" y="647" on="0"/>
        <pt x="502" y="647" on="1"/>
        <pt x="557" y="647" on="0"/>
        <pt x="668" y="650" on="0"/>
        <pt x="763" y="653" on="0"/>
        <pt x="833" y="657" on="0"/>
        <pt x="847" y="659" on="1"/>
        <pt x="860" y="643" on="1"/>
        <pt x="854" y="612" on="0"/>
        <pt x="850" y="579" on="1"/>
        <pt x="846" y="550" on="0"/>
        <pt x="839" y="479" on="0"/>
        <pt x="837" y="444" on="1"/>
        <pt x="699" y="435" on="1"/>
        <pt x="699" y="442" on="0"/>
        <pt x="700" y="449" on="1"/>
        <pt x="700" y="455" on="0"/>
        <pt x="701" y="467" on="0"/>
        <pt x="701" y="472" on="1"/>
        <pt x="701" y="489" on="0"/>
        <pt x="693" y="510" on="0"/>
        <pt x="672" y="522" on="0"/>
        <pt x="633" y="527" on="0"/>
        <pt x="603" y="527" on="1"/>
        <pt x="583" y="527" on="0"/>
        <pt x="569" y="517" on="0"/>
        <pt x="569" y="503" on="1"/>
        <pt x="588" y="372" on="1"/>
        <pt x="661" y="385" on="1"/>
        <pt x="762" y="411" on="1"/>
        <pt x="779" y="394" on="1"/>
        <pt x="767" y="278" on="1"/>
        <pt x="671" y="266" on="1"/>
        <pt x="606" y="254" on="1"/>
        <pt x="617" y="181" on="1"/>
        <pt x="627" y="114" on="0"/>
        <pt x="672" y="114" on="1"/>
        <pt x="701" y="114" on="0"/>
        <pt x="738" y="122" on="0"/>
        <pt x="760" y="145" on="0"/>
        <pt x="772" y="187" on="0"/>
        <pt x="777" y="221" on="1"/>
        <pt x="905" y="230" on="1"/>
        <pt x="917" y="215" on="1"/>
        <pt x="912" y="186" on="0"/>
        <pt x="907" y="153" on="1"/>
        <pt x="902" y="124" on="0"/>
        <pt x="893" y="50" on="0"/>
        <pt x="889" y="9" on="1"/>
        <pt x="874" y="-7" on="1"/>
        <pt x="826" y="-6" on="0"/>
        <pt x="772" y="-4" on="1"/>
        <pt x="726" y="-2" on="0"/>
        <pt x="611" y="0" on="0"/>
        <pt x="553" y="0" on="1"/>
        <pt x="511" y="0" on="1"/>
        <pt x="479" y="-1" on="0"/>
        <pt x="418" y="-2" on="0"/>
        <pt x="394" y="-3" on="1"/>
        <pt x="366" y="-4" on="0"/>
        <pt x="340" y="-6" on="1"/>
        <pt x="333" y="3" on="1"/>
      </contour>
      <contour>
        <pt x="341" y="328" on="1"/>
        <pt x="391" y="337" on="1"/>
        <pt x="377" y="478" on="1"/>
        <pt x="355" y="478" on="1"/>
        <pt x="298" y="324" on="1"/>
      </contour>
    </TTGlyph>
    <TTGlyph name="AEacute" xMin="2" yMin="-7" xMax="917" yMax="935">
      <component glyphName="AE" x="0" y="0" flags="0x204"/>
      <component glyphName="acute" x="303" y="175" flags="0x4"/>
    </TTGlyph>
    <TTGlyph name="Aacute" xMin="-5" yMin="-6" xMax="681" yMax="875">
      <component glyphName="A" x="0" y="0" flags="0x204"/>
      <component glyphName="acute.cap" x="161" y="0" flags="0x4"/>
    </TTGlyph>
    <TTGlyph name="Abreve" xMin="-5" yMin="-6" xMax="681" yMax="880">
      <component glyphName="A" x="0" y="0" flags="0x204"/>
      <component glyphName="breve.cap" x="142" y="0" flags="0x4"/>
    </TTGlyph>
    <TTGlyph name="Acircumflex" xMin="-5" yMin="-6" xMax="681" yMax="910">
      <component glyphName="A" x="0" y="0" flags="0x204"/>
      <component glyphName="circumflex.cap" x="144" y="0" flags="0x4"/>
    </TTGlyph>
    <TTGlyph name="Adieresis" xMin="-5" yMin="-6" xMax="681" yMax="852">
      <component glyphName="A" x="0" y="0" flags="0x204"/>
      <component glyphName="dieresis.cap" x="143" y="0" flags="0x4"/>
    </TTGlyph>
    <TTGlyph name="Agrave" xMin="-5" yMin="-6" xMax="681" yMax="875">
      <component glyphName="A" x="0" y="0" flags="0x204"/>
      <component glyphName="grave.cap" x="160" y="0" flags="0x4"/>
    </TTGlyph>
    <TTGlyph name="Amacron" xMin="-5" yMin="-6" xMax="681" yMax="823">
      <component glyphName="A" x="0" y="0" flags="0x204"/>
      <component glyphName="macron.cap" x="142" y="0" flags="0x4"/>
    </TTGlyph>
    <TTGlyph name="Aogonek" xMin="-5" yMin="-242" xMax="681" yMax="658">
      <contour>
        <pt x="679" y="-171" on="1"/>
        <pt x="663" y="-187" on="0"/>
        <pt x="645" y="-200" on="1"/>
        <pt x="630" y="-212" on="0"/>
        <pt x="593" y="-235" on="0"/>
        <pt x="575" y="-242" on="1"/>
        <pt x="515" y="-242" on="0"/>
        <pt x="446" y="-195" on="0"/>
        <pt x="446" y="-153" on="1"/>
        <pt x="446" y="-137" on="0"/>
        <pt x="455" y="-106" on="0"/>
        <pt x="475" y="-70" on="0"/>
        <pt x="509" y="-27" on="0"/>
        <pt x="533" y="-1" on="1"/>
        <pt x="532" y="-1" on="1"/>
        <pt x="496" y="-1" on="0"/>
        <pt x="428" y="-3" on="0"/>
        <pt x="401" y="-4" on="1"/>
        <pt x="369" y="-5" on="0"/>
        <pt x="341" y="-6" on="1"/>
        <pt x="333" y="3" on="1"/>
        <pt x="339" y="87" on="1"/>
        <pt x="362" y="90" on="0"/>
        <pt x="388" y="94" on="0"/>
        <pt x="400" y="100" on="0"/>
        <pt x="403" y="111" on="0"/>
        <pt x="403" y="121" on="1"/>
        <pt x="403" y="124" on="0"/>
        <pt x="402" y="133" on="0"/>
        <pt x="401" y="139" on="1"/>
        <pt x="395" y="178" on="1"/>
        <pt x="375" y="179" on="0"/>
        <pt x="332" y="180" on="0"/>
        <pt x="318" y="180" on="1"/>
        <pt x="301" y="180" on="0"/>
        <pt x="258" y="177" on="0"/>
        <pt x="238" y="175" on="1"/>
        <pt x="228" y="131" on="1"/>
        <pt x="225" y="114" on="0"/>
        <pt x="225" y="109" on="1"/>
        <pt x="225" y="96" on="0"/>
        <pt x="236" y="89" on="0"/>
        <pt x="256" y="89" on="1"/>
        <pt x="282" y="89" on="1"/>
        <pt x="290" y="79" on="1"/>
        <pt x="282" y="-4" on="1"/>
        <pt x="255" y="-4" on="0"/>
        <pt x="228" y="-3" on="1"/>
        <pt x="205" y="-2" on="0"/>
        <pt x="151" y="-1" on="0"/>
        <pt x="128" y="-1" on="1"/>
        <pt x="105" y="-1" on="0"/>
        <pt x="57" y="-2" on="0"/>
        <pt x="38" y="-2" on="1"/>
        <pt x="-5" y="-2" on="1"/>
        <pt x="2" y="85" on="1"/>
        <pt x="38" y="94" on="0"/>
        <pt x="53" y="140" on="1"/>
        <pt x="212" y="642" on="1"/>
        <pt x="475" y="658" on="1"/>
        <pt x="490" y="646" on="1"/>
        <pt x="517" y="537" on="0"/>
        <pt x="542" y="440" on="1"/>
        <pt x="552" y="399" on="0"/>
        <pt x="574" y="314" on="0"/>
        <pt x="593" y="237" on="0"/>
        <pt x="609" y="173" on="0"/>
        <pt x="615" y="153" on="1"/>
        <pt x="624" y="119" on="0"/>
        <pt x="651" y="88" on="0"/>
        <pt x="674" y="86" on="1"/>
        <pt x="681" y="76" on="1"/>
        <pt x="673" y="-3" on="1"/>
        <pt x="665" y="-2" on="0"/>
        <pt x="654" y="-2" on="1"/>
        <pt x="645" y="-2" on="0"/>
        <pt x="621" y="-2" on="0"/>
        <pt x="608" y="-1" on="1"/>
        <pt x="590" y="-25" on="0"/>
        <pt x="566" y="-61" on="0"/>
        <pt x="553" y="-87" on="0"/>
        <pt x="547" y="-107" on="0"/>
        <pt x="547" y="-116" on="1"/>
        <pt x="547" y="-135" on="0"/>
        <pt x="569" y="-157" on="0"/>
        <pt x="588" y="-157" on="1"/>
        <pt x="599" y="-157" on="0"/>
        <pt x="622" y="-150" on="0"/>
        <pt x="632" y="-145" on="1"/>
        <pt x="643" y="-140" on="0"/>
        <pt x="654" y="-132" on="1"/>
      </contour>
      <contour>
        <pt x="270" y="301" on="1"/>
        <pt x="321" y="301" on="1"/>
        <pt x="332" y="301" on="0"/>
        <pt x="359" y="302" on="0"/>
        <pt x="373" y="303" on="1"/>
        <pt x="339" y="478" on="1"/>
        <pt x="317" y="478" on="1"/>
      </contour>
    </TTGlyph>
    <TTGlyph name="Aring" xMin="-5" yMin="-6" xMax="681" yMax="892">
      <component glyphName="A" x="0" y="0" flags="0x204"/>
      <component glyphName="ring.cap" x="143" y="0" flags="0x4"/>
    </TTGlyph>
    <TTGlyph name="Aringacute" xMin="-5" yMin="-6" xMax="681" yMax="1016">
      <contour>
        <pt x="615" y="153" on="1"/>
        <pt x="624" y="119" on="0"/>
        <pt x="651" y="88" on="0"/>
        <pt x="674" y="86" on="1"/>
        <pt x="681" y="76" on="1"/>
        <pt x="673" y="-3" on="1"/>
        <pt x="648" y="-3" on="0"/>
        <pt x="623" y="-2" on="1"/>
        <pt x="602" y="-2" on="0"/>
        <pt x="552" y="-1" on="0"/>
        <pt x="532" y="-1" on="1"/>
        <pt x="496" y="-1" on="0"/>
        <pt x="428" y="-3" on="0"/>
        <pt x="401" y="-4" on="1"/>
        <pt x="369" y="-5" on="0"/>
        <pt x="341" y="-6" on="1"/>
        <pt x="333" y="3" on="1"/>
        <pt x="339" y="87" on="1"/>
        <pt x="362" y="90" on="0"/>
        <pt x="388" y="94" on="0"/>
        <pt x="400" y="100" on="0"/>
        <pt x="403" y="111" on="0"/>
        <pt x="403" y="121" on="1"/>
        <pt x="403" y="124" on="0"/>
        <pt x="402" y="133" on="0"/>
        <pt x="401" y="139" on="1"/>
        <pt x="395" y="178" on="1"/>
        <pt x="375" y="179" on="0"/>
        <pt x="332" y="180" on="0"/>
        <pt x="318" y="180" on="1"/>
        <pt x="301" y="180" on="0"/>
        <pt x="258" y="177" on="0"/>
        <pt x="238" y="175" on="1"/>
        <pt x="228" y="131" on="1"/>
        <pt x="225" y="114" on="0"/>
        <pt x="225" y="109" on="1"/>
        <pt x="225" y="96" on="0"/>
        <pt x="236" y="89" on="0"/>
        <pt x="256" y="89" on="1"/>
        <pt x="282" y="89" on="1"/>
        <pt x="290" y="79" on="1"/>
        <pt x="282" y="-4" on="1"/>
        <pt x="255" y="-4" on="0"/>
        <pt x="228" y="-3" on="1"/>
        <pt x="205" y="-2" on="0"/>
        <pt x="151" y="-1" on="0"/>
        <pt x="128" y="-1" on="1"/>
        <pt x="105" y="-1" on="0"/>
        <pt x="57" y="-2" on="0"/>
        <pt x="38" y="-2" on="1"/>
        <pt x="-5" y="-2" on="1"/>
        <pt x="2" y="85" on="1"/>
        <pt x="38" y="94" on="0"/>
        <pt x="53" y="140" on="1"/>
        <pt x="212" y="642" on="1"/>
        <pt x="475" y="658" on="1"/>
        <pt x="490" y="646" on="1"/>
        <pt x="517" y="537" on="0"/>
        <pt x="542" y="440" on="1"/>
        <pt x="552" y="399" on="0"/>
        <pt x="574" y="314" on="0"/>
        <pt x="593" y="237" on="0"/>
        <pt x="609" y="173" on="0"/>
      </contour>
      <contour>
        <pt x="270" y="301" on="1"/>
        <pt x="321" y="301" on="1"/>
        <pt x="332" y="301" on="0"/>
        <pt x="359" y="302" on="0"/>
        <pt x="373" y="303" on="1"/>
        <pt x="339" y="478" on="1"/>
        <pt x="317" y="478" on="1"/>
      </contour>
      <contour>
        <pt x="344" y="741" on="1"/>
        <pt x="353" y="741" on="0"/>
        <pt x="375" y="752" on="0"/>
        <pt x="375" y="770" on="1"/>
        <pt x="375" y="802" on="0"/>
        <pt x="340" y="802" on="1"/>
        <pt x="324" y="802" on="0"/>
        <pt x="309" y="786" on="0"/>
        <pt x="309" y="773" on="1"/>
        <pt x="309" y="754" on="0"/>
        <pt x="333" y="741" on="0"/>
      </contour>
      <contour>
        <pt x="338" y="678" on="1"/>
        <pt x="293" y="678" on="0"/>
        <pt x="247" y="729" on="0"/>
        <pt x="247" y="770" on="1"/>
        <pt x="247" y="812" on="0"/>
        <pt x="300" y="867" on="0"/>
        <pt x="346" y="867" on="1"/>
        <pt x="395" y="867" on="0"/>
        <pt x="437" y="813" on="0"/>
        <pt x="437" y="779" on="1"/>
        <pt x="437" y="759" on="0"/>
        <pt x="424" y="723" on="0"/>
        <pt x="398" y="695" on="0"/>
        <pt x="362" y="678" on="0"/>
      </contour>
      <contour>
        <pt x="470" y="900" on="1"/>
        <pt x="435" y="894" on="0"/>
        <pt x="397" y="886" on="1"/>
        <pt x="365" y="879" on="0"/>
        <pt x="283" y="862" on="0"/>
        <pt x="241" y="851" on="1"/>
        <pt x="224" y="863" on="1"/>
        <pt x="205" y="926" on="1"/>
        <pt x="247" y="942" on="0"/>
        <pt x="327" y="974" on="0"/>
        <pt x="359" y="987" on="1"/>
        <pt x="396" y="1002" on="0"/>
        <pt x="429" y="1016" on="1"/>
        <pt x="444" y="1012" on="1"/>
        <pt x="476" y="915" on="1"/>
      </contour>
    </TTGlyph>
    <TTGlyph name="Atilde" xMin="-5" yMin="-6" xMax="681" yMax="888">
      <component glyphName="A" x="0" y="0" flags="0x204"/>
      <component glyphName="tilde.cap" x="142" y="0" flags="0x4"/>
    </TTGlyph>
    <TTGlyph name="B" xMin="13" yMin="-11" xMax="646" yMax="654">
      <contour>
        <pt x="194" y="0" on="1"/>
        <pt x="170" y="0" on="0"/>
        <pt x="107" y="-2" on="0"/>
        <pt x="79" y="-4" on="1"/>
        <pt x="46" y="-6" on="0"/>
        <pt x="13" y="-7" on="1"/>
        <pt x="22" y="83" on="1"/>
        <pt x="61" y="90" on="0"/>
        <pt x="89" y="120" on="0"/>
        <pt x="89" y="156" on="1"/>
        <pt x="90" y="513" on="1"/>
        <pt x="90" y="559" on="0"/>
        <pt x="63" y="559" on="1"/>
        <pt x="58" y="559" on="0"/>
        <pt x="46" y="558" on="0"/>
        <pt x="41" y="558" on="1"/>
        <pt x="35" y="557" on="0"/>
        <pt x="29" y="557" on="1"/>
        <pt x="17" y="569" on="1"/>
        <pt x="29" y="649" on="1"/>
        <pt x="68" y="648" on="0"/>
        <pt x="101" y="648" on="1"/>
        <pt x="130" y="647" on="0"/>
        <pt x="186" y="647" on="0"/>
        <pt x="198" y="647" on="1"/>
        <pt x="210" y="647" on="0"/>
        <pt x="273" y="648" on="0"/>
        <pt x="306" y="650" on="1"/>
        <pt x="345" y="652" on="0"/>
        <pt x="390" y="654" on="1"/>
        <pt x="502" y="654" on="0"/>
        <pt x="618" y="574" on="0"/>
        <pt x="618" y="496" on="1"/>
        <pt x="618" y="468" on="0"/>
        <pt x="602" y="423" on="0"/>
        <pt x="575" y="386" on="0"/>
        <pt x="540" y="356" on="0"/>
        <pt x="521" y="343" on="1"/>
        <pt x="543" y="335" on="0"/>
        <pt x="588" y="313" on="0"/>
        <pt x="624" y="279" on="0"/>
        <pt x="646" y="231" on="0"/>
        <pt x="646" y="198" on="1"/>
        <pt x="646" y="-11" on="0"/>
        <pt x="358" y="-11" on="1"/>
        <pt x="347" y="-10" on="0"/>
        <pt x="300" y="-6" on="0"/>
        <pt x="249" y="-2" on="0"/>
        <pt x="204" y="0" on="0"/>
      </contour>
      <contour>
        <pt x="288" y="260" on="1"/>
        <pt x="283" y="160" on="1"/>
        <pt x="283" y="136" on="0"/>
        <pt x="318" y="114" on="0"/>
        <pt x="356" y="114" on="1"/>
        <pt x="431" y="114" on="0"/>
        <pt x="431" y="187" on="1"/>
        <pt x="431" y="240" on="0"/>
        <pt x="367" y="260" on="1"/>
      </contour>
      <contour>
        <pt x="290" y="389" on="1"/>
        <pt x="306" y="386" on="0"/>
        <pt x="321" y="383" on="1"/>
        <pt x="334" y="381" on="0"/>
        <pt x="361" y="378" on="0"/>
        <pt x="370" y="378" on="1"/>
        <pt x="381" y="386" on="0"/>
        <pt x="391" y="398" on="1"/>
        <pt x="399" y="409" on="0"/>
        <pt x="412" y="439" on="0"/>
        <pt x="412" y="460" on="1"/>
        <pt x="412" y="528" on="0"/>
        <pt x="315" y="528" on="1"/>
        <pt x="298" y="528" on="0"/>
        <pt x="297" y="514" on="1"/>
        <pt x="295" y="497" on="0"/>
        <pt x="293" y="455" on="0"/>
        <pt x="292" y="435" on="1"/>
        <pt x="291" y="412" on="0"/>
      </contour>
    </TTGlyph>
    <TTGlyph name="C" xMin="15" yMin="-11" xMax="584" yMax="659">
      <contour>
        <pt x="310" y="-11" on="1"/>
        <pt x="240" y="-11" on="0"/>
        <pt x="131" y="33" on="0"/>
        <pt x="55" y="115" on="0"/>
        <pt x="15" y="235" on="0"/>
        <pt x="15" y="311" on="1"/>
        <pt x="15" y="480" on="0"/>
        <pt x="195" y="659" on="0"/>
        <pt x="366" y="659" on="1"/>
        <pt x="398" y="659" on="0"/>
        <pt x="471" y="651" on="0"/>
        <pt x="503" y="646" on="1"/>
        <pt x="540" y="640" on="0"/>
        <pt x="576" y="633" on="1"/>
        <pt x="584" y="613" on="1"/>
        <pt x="578" y="585" on="0"/>
        <pt x="573" y="552" on="1"/>
        <pt x="568" y="523" on="0"/>
        <pt x="558" y="445" on="0"/>
        <pt x="556" y="399" on="1"/>
        <pt x="402" y="390" on="1"/>
        <pt x="402" y="398" on="0"/>
        <pt x="403" y="407" on="1"/>
        <pt x="403" y="415" on="0"/>
        <pt x="404" y="435" on="0"/>
        <pt x="404" y="447" on="1"/>
        <pt x="404" y="488" on="0"/>
        <pt x="373" y="521" on="0"/>
        <pt x="335" y="521" on="1"/>
        <pt x="309" y="521" on="0"/>
        <pt x="273" y="504" on="0"/>
        <pt x="252" y="463" on="0"/>
        <pt x="243" y="396" on="0"/>
        <pt x="243" y="347" on="1"/>
        <pt x="243" y="235" on="0"/>
        <pt x="289" y="130" on="0"/>
        <pt x="340" y="130" on="1"/>
        <pt x="378" y="130" on="0"/>
        <pt x="414" y="182" on="0"/>
        <pt x="419" y="246" on="1"/>
        <pt x="572" y="256" on="1"/>
        <pt x="569" y="221" on="0"/>
        <pt x="566" y="185" on="1"/>
        <pt x="564" y="154" on="0"/>
        <pt x="560" y="79" on="0"/>
        <pt x="560" y="43" on="1"/>
        <pt x="547" y="27" on="1"/>
        <pt x="515" y="16" on="0"/>
        <pt x="477" y="8" on="1"/>
        <pt x="445" y="0" on="0"/>
        <pt x="358" y="-11" on="0"/>
      </contour>
    </TTGlyph>
    <TTGlyph name="Cacute" xMin="15" yMin="-11" xMax="584" yMax="875">
      <component glyphName="C" x="0" y="0" flags="0x204"/>
      <component glyphName="acute.cap" x="155" y="0" flags="0x4"/>
    </TTGlyph>
    <TTGlyph name="Ccaron" xMin="15" yMin="-11" xMax="584" yMax="895">
      <component glyphName="C" x="0" y="0" flags="0x204"/>
      <component glyphName="caron.cap" x="136" y="0" flags="0x4"/>
    </TTGlyph>
    <TTGlyph name="Ccedilla" xMin="15" yMin="-242" xMax="584" yMax="659">
      <contour>
        <pt x="280" y="-10" on="1"/>
        <pt x="153" y="-1" on="0"/>
        <pt x="15" y="166" on="0"/>
        <pt x="15" y="311" on="1"/>
        <pt x="15" y="480" on="0"/>
        <pt x="195" y="659" on="0"/>
        <pt x="366" y="659" on="1"/>
        <pt x="398" y="659" on="0"/>
        <pt x="471" y="651" on="0"/>
        <pt x="503" y="646" on="1"/>
        <pt x="540" y="640" on="0"/>
        <pt x="576" y="633" on="1"/>
        <pt x="584" y="613" on="1"/>
        <pt x="578" y="585" on="0"/>
        <pt x="573" y="552" on="1"/>
        <pt x="568" y="523" on="0"/>
        <pt x="558" y="445" on="0"/>
        <pt x="556" y="399" on="1"/>
        <pt x="402" y="390" on="1"/>
        <pt x="402" y="398" on="0"/>
        <pt x="403" y="407" on="1"/>
        <pt x="403" y="415" on="0"/>
        <pt x="404" y="435" on="0"/>
        <pt x="404" y="447" on="1"/>
        <pt x="404" y="488" on="0"/>
        <pt x="373" y="521" on="0"/>
        <pt x="335" y="521" on="1"/>
        <pt x="309" y="521" on="0"/>
        <pt x="273" y="504" on="0"/>
        <pt x="252" y="463" on="0"/>
        <pt x="243" y="396" on="0"/>
        <pt x="243" y="347" on="1"/>
        <pt x="243" y="235" on="0"/>
        <pt x="289" y="130" on="0"/>
        <pt x="340" y="130" on="1"/>
        <pt x="378" y="130" on="0"/>
        <pt x="414" y="182" on="0"/>
        <pt x="419" y="246" on="1"/>
        <pt x="572" y="256" on="1"/>
        <pt x="569" y="221" on="0"/>
        <pt x="566" y="185" on="1"/>
        <pt x="564" y="154" on="0"/>
        <pt x="560" y="79" on="0"/>
        <pt x="560" y="43" on="1"/>
        <pt x="547" y="27" on="1"/>
        <pt x="520" y="18" on="0"/>
        <pt x="487" y="10" on="1"/>
        <pt x="459" y="3" on="0"/>
        <pt x="385" y="-8" on="0"/>
        <pt x="343" y="-10" on="1"/>
        <pt x="337" y="-38" on="1"/>
        <pt x="353" y="-46" on="0"/>
        <pt x="390" y="-68" on="0"/>
        <pt x="423" y="-95" on="0"/>
        <pt x="445" y="-126" on="0"/>
        <pt x="445" y="-143" on="1"/>
        <pt x="445" y="-164" on="0"/>
        <pt x="422" y="-200" on="0"/>
        <pt x="382" y="-227" on="0"/>
        <pt x="328" y="-242" on="0"/>
        <pt x="297" y="-242" on="1"/>
        <pt x="282" y="-242" on="0"/>
        <pt x="251" y="-235" on="0"/>
        <pt x="226" y="-222" on="0"/>
        <pt x="209" y="-202" on="0"/>
        <pt x="209" y="-190" on="1"/>
        <pt x="209" y="-184" on="0"/>
        <pt x="219" y="-166" on="0"/>
        <pt x="233" y="-147" on="0"/>
        <pt x="250" y="-128" on="0"/>
        <pt x="258" y="-120" on="1"/>
        <pt x="267" y="-120" on="1"/>
        <pt x="268" y="-148" on="0"/>
        <pt x="295" y="-176" on="0"/>
        <pt x="316" y="-176" on="1"/>
        <pt x="348" y="-176" on="0"/>
        <pt x="348" y="-153" on="1"/>
        <pt x="348" y="-145" on="0"/>
        <pt x="332" y="-127" on="0"/>
        <pt x="306" y="-110" on="0"/>
        <pt x="276" y="-94" on="0"/>
        <pt x="261" y="-87" on="1"/>
      </contour>
    </TTGlyph>
    <TTGlyph name="Ccircumflex" xMin="15" yMin="-11" xMax="584" yMax="934">
      <component glyphName="C" x="0" y="0" flags="0x204"/>
      <component glyphName="circumflex" x="142" y="174" flags="0x4"/>
    </TTGlyph>
    <TTGlyph name="Cdotaccent" xMin="15" yMin="-11" xMax="584" yMax="882">
      <component glyphName="C" x="0" y="0" flags="0x204"/>
      <component glyphName="dotaccent.cap" x="139" y="0" flags="0x4"/>
    </TTGlyph>
    <TTGlyph name="D" xMin="17" yMin="-12" xMax="667" yMax="653">
      <contour>
        <pt x="319" y="-12" on="1"/>
        <pt x="291" y="-9" on="0"/>
        <pt x="263" y="-6" on="1"/>
        <pt x="239" y="-4" on="0"/>
        <pt x="183" y="0" on="0"/>
        <pt x="160" y="0" on="1"/>
        <pt x="139" y="0" on="0"/>
        <pt x="89" y="-2" on="0"/>
        <pt x="67" y="-4" on="1"/>
        <pt x="41" y="-6" on="0"/>
        <pt x="17" y="-8" on="1"/>
        <pt x="25" y="85" on="1"/>
        <pt x="63" y="91" on="0"/>
        <pt x="90" y="126" on="0"/>
        <pt x="90" y="168" on="1"/>
        <pt x="90" y="503" on="1"/>
        <pt x="90" y="535" on="0"/>
        <pt x="79" y="557" on="0"/>
        <pt x="65" y="557" on="1"/>
        <pt x="59" y="557" on="0"/>
        <pt x="48" y="556" on="0"/>
        <pt x="43" y="556" on="1"/>
        <pt x="38" y="555" on="0"/>
        <pt x="33" y="555" on="1"/>
        <pt x="23" y="569" on="1"/>
        <pt x="32" y="650" on="1"/>
        <pt x="64" y="649" on="0"/>
        <pt x="93" y="648" on="1"/>
        <pt x="118" y="647" on="0"/>
        <pt x="168" y="647" on="0"/>
        <pt x="184" y="647" on="1"/>
        <pt x="201" y="647" on="0"/>
        <pt x="257" y="648" on="0"/>
        <pt x="284" y="650" on="1"/>
        <pt x="316" y="651" on="0"/>
        <pt x="350" y="653" on="1"/>
        <pt x="667" y="653" on="0"/>
        <pt x="667" y="352" on="1"/>
        <pt x="667" y="268" on="0"/>
        <pt x="618" y="133" on="0"/>
        <pt x="528" y="39" on="0"/>
        <pt x="399" y="-12" on="0"/>
      </contour>
      <contour>
        <pt x="314" y="526" on="1"/>
        <pt x="303" y="526" on="0"/>
        <pt x="294" y="514" on="0"/>
        <pt x="293" y="499" on="1"/>
        <pt x="288" y="424" on="0"/>
        <pt x="283" y="264" on="0"/>
        <pt x="283" y="162" on="1"/>
        <pt x="283" y="133" on="0"/>
        <pt x="298" y="113" on="0"/>
        <pt x="319" y="113" on="1"/>
        <pt x="351" y="113" on="0"/>
        <pt x="396" y="135" on="0"/>
        <pt x="425" y="183" on="0"/>
        <pt x="438" y="259" on="0"/>
        <pt x="438" y="314" on="1"/>
        <pt x="438" y="375" on="0"/>
        <pt x="426" y="457" on="0"/>
        <pt x="397" y="506" on="0"/>
        <pt x="350" y="526" on="0"/>
      </contour>
    </TTGlyph>
    <TTGlyph name="Dcaron" xMin="17" yMin="-12" xMax="667" yMax="895">
      <component glyphName="D" x="0" y="0" flags="0x204"/>
      <component glyphName="caron.cap" x="148" y="0" flags="0x4"/>
    </TTGlyph>
    <TTGlyph name="Dcroat" xMin="7" yMin="-12" xMax="690" yMax="653">
      <contour>
        <pt x="342" y="-12" on="1"/>
        <pt x="314" y="-9" on="0"/>
        <pt x="286" y="-6" on="1"/>
        <pt x="262" y="-4" on="0"/>
        <pt x="206" y="0" on="0"/>
        <pt x="183" y="0" on="1"/>
        <pt x="162" y="0" on="0"/>
        <pt x="112" y="-2" on="0"/>
        <pt x="90" y="-4" on="1"/>
        <pt x="64" y="-6" on="0"/>
        <pt x="40" y="-8" on="1"/>
        <pt x="48" y="85" on="1"/>
        <pt x="86" y="91" on="0"/>
        <pt x="113" y="126" on="0"/>
        <pt x="113" y="168" on="1"/>
        <pt x="113" y="266" on="1"/>
        <pt x="17" y="266" on="1"/>
        <pt x="7" y="274" on="1"/>
        <pt x="20" y="363" on="1"/>
        <pt x="113" y="363" on="1"/>
        <pt x="113" y="503" on="1"/>
        <pt x="113" y="535" on="0"/>
        <pt x="102" y="557" on="0"/>
        <pt x="88" y="557" on="1"/>
        <pt x="82" y="557" on="0"/>
        <pt x="71" y="556" on="0"/>
        <pt x="66" y="556" on="1"/>
        <pt x="61" y="555" on="0"/>
        <pt x="56" y="555" on="1"/>
        <pt x="46" y="569" on="1"/>
        <pt x="55" y="650" on="1"/>
        <pt x="87" y="649" on="0"/>
        <pt x="116" y="648" on="1"/>
        <pt x="141" y="647" on="0"/>
        <pt x="191" y="647" on="0"/>
        <pt x="207" y="647" on="1"/>
        <pt x="220" y="647" on="0"/>
        <pt x="275" y="648" on="0"/>
        <pt x="303" y="650" on="1"/>
        <pt x="336" y="651" on="0"/>
        <pt x="373" y="653" on="1"/>
        <pt x="690" y="653" on="0"/>
        <pt x="690" y="352" on="1"/>
        <pt x="690" y="268" on="0"/>
        <pt x="641" y="133" on="0"/>
        <pt x="551" y="39" on="0"/>
        <pt x="422" y="-12" on="0"/>
      </contour>
      <contour>
        <pt x="309" y="364" on="1"/>
        <pt x="384" y="367" on="1"/>
        <pt x="392" y="357" on="1"/>
        <pt x="385" y="267" on="1"/>
        <pt x="306" y="267" on="1"/>
        <pt x="306" y="162" on="1"/>
        <pt x="306" y="133" on="0"/>
        <pt x="321" y="113" on="0"/>
        <pt x="342" y="113" on="1"/>
        <pt x="374" y="113" on="0"/>
        <pt x="419" y="135" on="0"/>
        <pt x="448" y="183" on="0"/>
        <pt x="461" y="259" on="0"/>
        <pt x="461" y="314" on="1"/>
        <pt x="461" y="375" on="0"/>
        <pt x="449" y="457" on="0"/>
        <pt x="420" y="506" on="0"/>
        <pt x="373" y="526" on="0"/>
        <pt x="337" y="526" on="1"/>
        <pt x="326" y="526" on="0"/>
        <pt x="317" y="514" on="0"/>
        <pt x="316" y="499" on="1"/>
      </contour>
    </TTGlyph>
    <TTGlyph name="Delta" xMin="12" yMin="0" xMax="663" yMax="659">
      <contour>
        <pt x="12" y="13" on="1"/>
        <pt x="212" y="642" on="1"/>
        <pt x="477" y="659" on="1"/>
        <pt x="487" y="659" on="1"/>
        <pt x="511" y="554" on="0"/>
        <pt x="539" y="443" on="1"/>
        <pt x="551" y="396" on="0"/>
        <pt x="579" y="289" on="0"/>
        <pt x="611" y="176" on="0"/>
        <pt x="645" y="62" on="0"/>
        <pt x="663" y="7" on="1"/>
        <pt x="654" y="0" on="1"/>
        <pt x="24" y="0" on="1"/>
      </contour>
      <contour>
        <pt x="316" y="497" on="1"/>
        <pt x="227" y="136" on="1"/>
        <pt x="406" y="136" on="1"/>
        <pt x="339" y="497" on="1"/>
      </contour>
    </TTGlyph>
    <TTGlyph name="E" xMin="13" yMin="-10" xMax="588" yMax="659">
      <contour>
        <pt x="284" y="175" on="1"/>
        <pt x="284" y="155" on="0"/>
        <pt x="287" y="132" on="0"/>
        <pt x="297" y="119" on="0"/>
        <pt x="316" y="115" on="0"/>
        <pt x="332" y="115" on="1"/>
        <pt x="364" y="115" on="0"/>
        <pt x="405" y="123" on="0"/>
        <pt x="430" y="146" on="0"/>
        <pt x="443" y="187" on="0"/>
        <pt x="448" y="221" on="1"/>
        <pt x="576" y="230" on="1"/>
        <pt x="588" y="215" on="1"/>
        <pt x="583" y="186" on="0"/>
        <pt x="578" y="153" on="1"/>
        <pt x="573" y="124" on="0"/>
        <pt x="564" y="50" on="0"/>
        <pt x="560" y="9" on="1"/>
        <pt x="545" y="-7" on="1"/>
        <pt x="497" y="-6" on="0"/>
        <pt x="443" y="-4" on="1"/>
        <pt x="397" y="-2" on="0"/>
        <pt x="282" y="0" on="0"/>
        <pt x="224" y="0" on="1"/>
        <pt x="185" y="0" on="0"/>
        <pt x="110" y="-3" on="0"/>
        <pt x="80" y="-5" on="1"/>
        <pt x="45" y="-8" on="0"/>
        <pt x="13" y="-10" on="1"/>
        <pt x="22" y="82" on="1"/>
        <pt x="60" y="88" on="0"/>
        <pt x="87" y="125" on="0"/>
        <pt x="87" y="170" on="1"/>
        <pt x="88" y="505" on="1"/>
        <pt x="88" y="537" on="0"/>
        <pt x="78" y="559" on="0"/>
        <pt x="61" y="559" on="1"/>
        <pt x="56" y="559" on="0"/>
        <pt x="48" y="558" on="0"/>
        <pt x="44" y="558" on="1"/>
        <pt x="40" y="557" on="0"/>
        <pt x="35" y="557" on="1"/>
        <pt x="23" y="571" on="1"/>
        <pt x="32" y="650" on="1"/>
        <pt x="73" y="649" on="0"/>
        <pt x="114" y="648" on="1"/>
        <pt x="149" y="647" on="0"/>
        <pt x="230" y="647" on="0"/>
        <pt x="265" y="647" on="1"/>
        <pt x="312" y="647" on="0"/>
        <pt x="404" y="649" on="0"/>
        <pt x="486" y="652" on="0"/>
        <pt x="553" y="656" on="0"/>
        <pt x="574" y="659" on="1"/>
        <pt x="587" y="643" on="1"/>
        <pt x="581" y="612" on="0"/>
        <pt x="577" y="579" on="1"/>
        <pt x="573" y="550" on="0"/>
        <pt x="566" y="479" on="0"/>
        <pt x="564" y="444" on="1"/>
        <pt x="426" y="435" on="1"/>
        <pt x="426" y="442" on="0"/>
        <pt x="427" y="449" on="1"/>
        <pt x="427" y="455" on="0"/>
        <pt x="428" y="467" on="0"/>
        <pt x="428" y="472" on="1"/>
        <pt x="428" y="489" on="0"/>
        <pt x="420" y="510" on="0"/>
        <pt x="399" y="522" on="0"/>
        <pt x="360" y="527" on="0"/>
        <pt x="330" y="527" on="1"/>
        <pt x="309" y="527" on="0"/>
        <pt x="296" y="517" on="0"/>
        <pt x="296" y="500" on="1"/>
        <pt x="290" y="387" on="1"/>
        <pt x="304" y="387" on="0"/>
        <pt x="351" y="386" on="0"/>
        <pt x="372" y="386" on="1"/>
        <pt x="383" y="386" on="0"/>
        <pt x="420" y="387" on="0"/>
        <pt x="438" y="389" on="1"/>
        <pt x="459" y="390" on="0"/>
        <pt x="482" y="392" on="1"/>
        <pt x="494" y="378" on="1"/>
        <pt x="480" y="263" on="1"/>
        <pt x="458" y="263" on="0"/>
        <pt x="437" y="264" on="1"/>
        <pt x="419" y="265" on="0"/>
        <pt x="377" y="266" on="0"/>
        <pt x="360" y="266" on="1"/>
        <pt x="338" y="266" on="0"/>
        <pt x="299" y="262" on="0"/>
        <pt x="285" y="260" on="1"/>
        <pt x="284" y="234" on="0"/>
        <pt x="284" y="192" on="0"/>
      </contour>
    </TTGlyph>
    <TTGlyph name="Eacute" xMin="13" yMin="-10" xMax="588" yMax="875">
      <component glyphName="E" x="0" y="0" flags="0x204"/>
      <component glyphName="acute.cap" x="146" y="0" flags="0x4"/>
    </TTGlyph>
    <TTGlyph name="Ebreve" xMin="13" yMin="-10" xMax="588" yMax="905">
      <component glyphName="E" x="0" y="0" flags="0x204"/>
      <component glyphName="breve.cap" x="128" y="25" flags="0x4"/>
    </TTGlyph>
    <TTGlyph name="Ecaron" xMin="13" yMin="-10" xMax="588" yMax="895">
      <component glyphName="E" x="0" y="0" flags="0x204"/>
      <component glyphName="caron.cap" x="127" y="0" flags="0x4"/>
    </TTGlyph>
    <TTGlyph name="Ecircumflex" xMin="13" yMin="-10" xMax="588" yMax="910">
      <component glyphName="E" x="0" y="0" flags="0x204"/>
      <component glyphName="circumflex.cap" x="129" y="0" flags="0x4"/>
    </TTGlyph>
    <TTGlyph name="Edieresis" xMin="13" yMin="-10" xMax="588" yMax="852">
      <component glyphName="E" x="0" y="0" flags="0x204"/>
      <component glyphName="dieresis.cap" x="128" y="0" flags="0x4"/>
    </TTGlyph>
    <TTGlyph name="Edotaccent" xMin="13" yMin="-10" xMax="588" yMax="882">
      <component glyphName="E" x="0" y="0" flags="0x204"/>
      <component glyphName="dotaccent.cap" x="130" y="0" flags="0x4"/>
    </TTGlyph>
    <TTGlyph name="Egrave" xMin="13" yMin="-10" xMax="588" yMax="875">
      <component glyphName="E" x="0" y="0" flags="0x204"/>
      <component glyphName="grave.cap" x="115" y="0" flags="0x4"/>
    </TTGlyph>
    <TTGlyph name="Emacron" xMin="13" yMin="-10" xMax="588" yMax="823">
      <component glyphName="E" x="0" y="0" flags="0x204"/>
      <component glyphName="macron.cap" x="127" y="0" flags="0x4"/>
    </TTGlyph>
    <TTGlyph name="Eng" xMin="17" yMin="-172" xMax="736" yMax="652">
      <contour>
        <pt x="168" y="647" on="1"/>
        <pt x="187" y="647" on="0"/>
        <pt x="230" y="648" on="0"/>
        <pt x="248" y="649" on="1"/>
        <pt x="269" y="650" on="0"/>
        <pt x="289" y="651" on="1"/>
        <pt x="324" y="588" on="0"/>
        <pt x="397" y="469" on="0"/>
        <pt x="426" y="422" on="1"/>
        <pt x="460" y="367" on="0"/>
        <pt x="493" y="318" on="1"/>
        <pt x="507" y="318" on="1"/>
        <pt x="503" y="520" on="1"/>
        <pt x="503" y="545" on="0"/>
        <pt x="488" y="563" on="0"/>
        <pt x="470" y="563" on="1"/>
        <pt x="467" y="563" on="0"/>
        <pt x="457" y="562" on="0"/>
        <pt x="452" y="562" on="1"/>
        <pt x="439" y="562" on="1"/>
        <pt x="434" y="572" on="1"/>
        <pt x="439" y="651" on="1"/>
        <pt x="477" y="650" on="0"/>
        <pt x="510" y="649" on="1"/>
        <pt x="538" y="648" on="0"/>
        <pt x="592" y="647" on="0"/>
        <pt x="603" y="647" on="1"/>
        <pt x="620" y="647" on="0"/>
        <pt x="666" y="648" on="0"/>
        <pt x="687" y="649" on="1"/>
        <pt x="711" y="650" on="0"/>
        <pt x="736" y="651" on="1"/>
        <pt x="731" y="564" on="1"/>
        <pt x="698" y="559" on="0"/>
        <pt x="673" y="532" on="0"/>
        <pt x="672" y="501" on="1"/>
        <pt x="661" y="85" on="1"/>
        <pt x="659" y="35" on="0"/>
        <pt x="632" y="-45" on="0"/>
        <pt x="575" y="-108" on="0"/>
        <pt x="488" y="-155" on="0"/>
        <pt x="427" y="-172" on="1"/>
        <pt x="389" y="-126" on="1"/>
        <pt x="391" y="-111" on="1"/>
        <pt x="428" y="-82" on="0"/>
        <pt x="465" y="-32" on="0"/>
        <pt x="474" y="0" on="1"/>
        <pt x="431" y="71" on="0"/>
        <pt x="356" y="191" on="0"/>
        <pt x="327" y="236" on="1"/>
        <pt x="294" y="288" on="0"/>
        <pt x="265" y="331" on="1"/>
        <pt x="251" y="331" on="1"/>
        <pt x="253" y="133" on="1"/>
        <pt x="254" y="104" on="0"/>
        <pt x="270" y="83" on="0"/>
        <pt x="292" y="83" on="1"/>
        <pt x="296" y="83" on="0"/>
        <pt x="309" y="83" on="0"/>
        <pt x="314" y="84" on="1"/>
        <pt x="320" y="85" on="0"/>
        <pt x="327" y="86" on="1"/>
        <pt x="335" y="78" on="1"/>
        <pt x="325" y="-4" on="1"/>
        <pt x="296" y="-3" on="0"/>
        <pt x="265" y="-2" on="1"/>
        <pt x="239" y="-1" on="0"/>
        <pt x="174" y="0" on="0"/>
        <pt x="145" y="0" on="1"/>
        <pt x="130" y="0" on="0"/>
        <pt x="89" y="-2" on="0"/>
        <pt x="70" y="-4" on="1"/>
        <pt x="48" y="-6" on="0"/>
        <pt x="25" y="-8" on="1"/>
        <pt x="35" y="78" on="1"/>
        <pt x="64" y="82" on="0"/>
        <pt x="91" y="111" on="0"/>
        <pt x="92" y="143" on="1"/>
        <pt x="104" y="499" on="1"/>
        <pt x="104" y="515" on="0"/>
        <pt x="99" y="536" on="0"/>
        <pt x="82" y="550" on="0"/>
        <pt x="52" y="558" on="0"/>
        <pt x="28" y="561" on="1"/>
        <pt x="17" y="575" on="1"/>
        <pt x="23" y="652" on="1"/>
        <pt x="49" y="650" on="0"/>
        <pt x="75" y="649" on="1"/>
        <pt x="97" y="648" on="0"/>
        <pt x="148" y="647" on="0"/>
      </contour>
    </TTGlyph>
    <TTGlyph name="Eogonek" xMin="13" yMin="-242" xMax="588" yMax="659">
      <contour>
        <pt x="588" y="-171" on="1"/>
        <pt x="572" y="-187" on="0"/>
        <pt x="554" y="-200" on="1"/>
        <pt x="539" y="-212" on="0"/>
        <pt x="502" y="-235" on="0"/>
        <pt x="484" y="-242" on="1"/>
        <pt x="424" y="-242" on="0"/>
        <pt x="355" y="-195" on="0"/>
        <pt x="355" y="-153" on="1"/>
        <pt x="355" y="-122" on="0"/>
        <pt x="392" y="-54" on="0"/>
        <pt x="440" y="-3" on="1"/>
        <pt x="394" y="-1" on="0"/>
        <pt x="281" y="0" on="0"/>
        <pt x="224" y="0" on="1"/>
        <pt x="185" y="0" on="0"/>
        <pt x="110" y="-3" on="0"/>
        <pt x="80" y="-5" on="1"/>
        <pt x="45" y="-8" on="0"/>
        <pt x="13" y="-10" on="1"/>
        <pt x="22" y="82" on="1"/>
        <pt x="60" y="88" on="0"/>
        <pt x="87" y="125" on="0"/>
        <pt x="87" y="170" on="1"/>
        <pt x="88" y="505" on="1"/>
        <pt x="88" y="537" on="0"/>
        <pt x="78" y="559" on="0"/>
        <pt x="61" y="559" on="1"/>
        <pt x="56" y="559" on="0"/>
        <pt x="48" y="558" on="0"/>
        <pt x="44" y="558" on="1"/>
        <pt x="40" y="557" on="0"/>
        <pt x="35" y="557" on="1"/>
        <pt x="23" y="571" on="1"/>
        <pt x="32" y="650" on="1"/>
        <pt x="73" y="649" on="0"/>
        <pt x="114" y="648" on="1"/>
        <pt x="149" y="647" on="0"/>
        <pt x="230" y="647" on="0"/>
        <pt x="265" y="647" on="1"/>
        <pt x="312" y="647" on="0"/>
        <pt x="404" y="649" on="0"/>
        <pt x="486" y="652" on="0"/>
        <pt x="553" y="656" on="0"/>
        <pt x="574" y="659" on="1"/>
        <pt x="587" y="643" on="1"/>
        <pt x="581" y="612" on="0"/>
        <pt x="577" y="579" on="1"/>
        <pt x="573" y="550" on="0"/>
        <pt x="566" y="479" on="0"/>
        <pt x="564" y="444" on="1"/>
        <pt x="426" y="435" on="1"/>
        <pt x="426" y="442" on="0"/>
        <pt x="427" y="449" on="1"/>
        <pt x="427" y="455" on="0"/>
        <pt x="428" y="467" on="0"/>
        <pt x="428" y="472" on="1"/>
        <pt x="428" y="489" on="0"/>
        <pt x="420" y="510" on="0"/>
        <pt x="399" y="522" on="0"/>
        <pt x="360" y="527" on="0"/>
        <pt x="330" y="527" on="1"/>
        <pt x="309" y="527" on="0"/>
        <pt x="296" y="517" on="0"/>
        <pt x="296" y="500" on="1"/>
        <pt x="290" y="387" on="1"/>
        <pt x="304" y="387" on="0"/>
        <pt x="351" y="386" on="0"/>
        <pt x="372" y="386" on="1"/>
        <pt x="383" y="386" on="0"/>
        <pt x="420" y="387" on="0"/>
        <pt x="438" y="389" on="1"/>
        <pt x="459" y="390" on="0"/>
        <pt x="482" y="392" on="1"/>
        <pt x="494" y="378" on="1"/>
        <pt x="480" y="263" on="1"/>
        <pt x="458" y="263" on="0"/>
        <pt x="437" y="264" on="1"/>
        <pt x="419" y="265" on="0"/>
        <pt x="377" y="266" on="0"/>
        <pt x="360" y="266" on="1"/>
        <pt x="338" y="266" on="0"/>
        <pt x="299" y="262" on="0"/>
        <pt x="285" y="260" on="1"/>
        <pt x="284" y="234" on="0"/>
        <pt x="284" y="192" on="0"/>
        <pt x="284" y="175" on="1"/>
        <pt x="284" y="155" on="0"/>
        <pt x="287" y="132" on="0"/>
        <pt x="297" y="119" on="0"/>
        <pt x="316" y="115" on="0"/>
        <pt x="332" y="115" on="1"/>
        <pt x="364" y="115" on="0"/>
        <pt x="405" y="123" on="0"/>
        <pt x="430" y="146" on="0"/>
        <pt x="443" y="187" on="0"/>
        <pt x="448" y="221" on="1"/>
        <pt x="576" y="230" on="1"/>
        <pt x="588" y="215" on="1"/>
        <pt x="583" y="186" on="0"/>
        <pt x="578" y="153" on="1"/>
        <pt x="573" y="124" on="0"/>
        <pt x="564" y="50" on="0"/>
        <pt x="560" y="9" on="1"/>
        <pt x="545" y="-7" on="1"/>
        <pt x="541" y="-6" on="0"/>
        <pt x="537" y="-6" on="1"/>
        <pt x="533" y="-6" on="0"/>
        <pt x="521" y="-6" on="0"/>
        <pt x="514" y="-5" on="1"/>
        <pt x="497" y="-28" on="0"/>
        <pt x="474" y="-62" on="0"/>
        <pt x="461" y="-88" on="0"/>
        <pt x="456" y="-107" on="0"/>
        <pt x="456" y="-116" on="1"/>
        <pt x="456" y="-135" on="0"/>
        <pt x="478" y="-157" on="0"/>
        <pt x="497" y="-157" on="1"/>
        <pt x="508" y="-157" on="0"/>
        <pt x="531" y="-150" on="0"/>
        <pt x="541" y="-145" on="1"/>
        <pt x="552" y="-140" on="0"/>
        <pt x="563" y="-132" on="1"/>
      </contour>
    </TTGlyph>
    <TTGlyph name="Eth" xMin="7" yMin="-12" xMax="690" yMax="653">
      <contour>
        <pt x="342" y="-12" on="1"/>
        <pt x="314" y="-9" on="0"/>
        <pt x="286" y="-6" on="1"/>
        <pt x="262" y="-4" on="0"/>
        <pt x="206" y="0" on="0"/>
        <pt x="183" y="0" on="1"/>
        <pt x="162" y="0" on="0"/>
        <pt x="112" y="-2" on="0"/>
        <pt x="90" y="-4" on="1"/>
        <pt x="64" y="-6" on="0"/>
        <pt x="40" y="-8" on="1"/>
        <pt x="48" y="85" on="1"/>
        <pt x="86" y="91" on="0"/>
        <pt x="113" y="126" on="0"/>
        <pt x="113" y="168" on="1"/>
        <pt x="113" y="266" on="1"/>
        <pt x="17" y="266" on="1"/>
        <pt x="7" y="274" on="1"/>
        <pt x="20" y="363" on="1"/>
        <pt x="113" y="363" on="1"/>
        <pt x="113" y="503" on="1"/>
        <pt x="113" y="535" on="0"/>
        <pt x="102" y="557" on="0"/>
        <pt x="88" y="557" on="1"/>
        <pt x="82" y="557" on="0"/>
        <pt x="71" y="556" on="0"/>
        <pt x="66" y="556" on="1"/>
        <pt x="61" y="555" on="0"/>
        <pt x="56" y="555" on="1"/>
        <pt x="46" y="569" on="1"/>
        <pt x="55" y="650" on="1"/>
        <pt x="87" y="649" on="0"/>
        <pt x="116" y="648" on="1"/>
        <pt x="141" y="647" on="0"/>
        <pt x="191" y="647" on="0"/>
        <pt x="207" y="647" on="1"/>
        <pt x="220" y="647" on="0"/>
        <pt x="275" y="648" on="0"/>
        <pt x="303" y="650" on="1"/>
        <pt x="336" y="651" on="0"/>
        <pt x="373" y="653" on="1"/>
        <pt x="690" y="653" on="0"/>
        <pt x="690" y="352" on="1"/>
        <pt x="690" y="268" on="0"/>
        <pt x="641" y="133" on="0"/>
        <pt x="551" y="39" on="0"/>
        <pt x="422" y="-12" on="0"/>
      </contour>
      <contour>
        <pt x="309" y="364" on="1"/>
        <pt x="384" y="367" on="1"/>
        <pt x="392" y="357" on="1"/>
        <pt x="385" y="267" on="1"/>
        <pt x="306" y="267" on="1"/>
        <pt x="306" y="162" on="1"/>
        <pt x="306" y="133" on="0"/>
        <pt x="321" y="113" on="0"/>
        <pt x="342" y="113" on="1"/>
        <pt x="374" y="113" on="0"/>
        <pt x="419" y="135" on="0"/>
        <pt x="448" y="183" on="0"/>
        <pt x="461" y="259" on="0"/>
        <pt x="461" y="314" on="1"/>
        <pt x="461" y="375" on="0"/>
        <pt x="449" y="457" on="0"/>
        <pt x="420" y="506" on="0"/>
        <pt x="373" y="526" on="0"/>
        <pt x="337" y="526" on="1"/>
        <pt x="326" y="526" on="0"/>
        <pt x="317" y="514" on="0"/>
        <pt x="316" y="499" on="1"/>
      </contour>
    </TTGlyph>
    <TTGlyph name="Euro" xMin="-2" yMin="-8" xMax="538" yMax="512">
      <contour>
        <pt x="379" y="229" on="1"/>
        <pt x="373" y="161" on="1"/>
        <pt x="261" y="160" on="1"/>
        <pt x="282" y="98" on="0"/>
        <pt x="338" y="98" on="1"/>
        <pt x="371" y="98" on="0"/>
        <pt x="404" y="139" on="0"/>
        <pt x="409" y="190" on="1"/>
        <pt x="529" y="198" on="1"/>
        <pt x="527" y="171" on="0"/>
        <pt x="524" y="143" on="1"/>
        <pt x="522" y="119" on="0"/>
        <pt x="518" y="61" on="0"/>
        <pt x="518" y="33" on="1"/>
        <pt x="508" y="21" on="1"/>
        <pt x="482" y="12" on="0"/>
        <pt x="451" y="6" on="1"/>
        <pt x="425" y="1" on="0"/>
        <pt x="353" y="-8" on="0"/>
        <pt x="313" y="-8" on="1"/>
        <pt x="219" y="-8" on="0"/>
        <pt x="98" y="79" on="0"/>
        <pt x="78" y="160" on="1"/>
        <pt x="6" y="160" on="1"/>
        <pt x="-2" y="166" on="1"/>
        <pt x="7" y="233" on="1"/>
        <pt x="69" y="233" on="1"/>
        <pt x="69" y="241" on="1"/>
        <pt x="69" y="249" on="0"/>
        <pt x="69" y="265" on="0"/>
        <pt x="70" y="273" on="1"/>
        <pt x="6" y="273" on="1"/>
        <pt x="-2" y="279" on="1"/>
        <pt x="7" y="346" on="1"/>
        <pt x="84" y="346" on="1"/>
        <pt x="110" y="427" on="0"/>
        <pt x="250" y="512" on="0"/>
        <pt x="359" y="512" on="1"/>
        <pt x="386" y="512" on="0"/>
        <pt x="446" y="506" on="0"/>
        <pt x="472" y="502" on="1"/>
        <pt x="502" y="498" on="0"/>
        <pt x="531" y="492" on="1"/>
        <pt x="538" y="476" on="1"/>
        <pt x="532" y="455" on="0"/>
        <pt x="528" y="429" on="1"/>
        <pt x="524" y="407" on="0"/>
        <pt x="516" y="347" on="0"/>
        <pt x="514" y="312" on="1"/>
        <pt x="394" y="305" on="1"/>
        <pt x="394" y="318" on="1"/>
        <pt x="394" y="324" on="0"/>
        <pt x="395" y="340" on="0"/>
        <pt x="395" y="349" on="1"/>
        <pt x="395" y="381" on="0"/>
        <pt x="366" y="407" on="0"/>
        <pt x="333" y="407" on="1"/>
        <pt x="301" y="407" on="0"/>
        <pt x="263" y="379" on="0"/>
        <pt x="255" y="346" on="1"/>
        <pt x="371" y="350" on="1"/>
        <pt x="379" y="342" on="1"/>
        <pt x="373" y="274" on="1"/>
        <pt x="248" y="273" on="1"/>
        <pt x="248" y="269" on="1"/>
        <pt x="248" y="259" on="0"/>
        <pt x="248" y="241" on="0"/>
        <pt x="249" y="233" on="1"/>
        <pt x="252" y="233" on="1"/>
        <pt x="371" y="237" on="1"/>
      </contour>
    </TTGlyph>
    <TTGlyph name="F" xMin="13" yMin="-10" xMax="559" yMax="659">
      <contour>
        <pt x="284" y="175" on="1"/>
        <pt x="284" y="139" on="0"/>
        <pt x="300" y="115" on="0"/>
        <pt x="326" y="115" on="1"/>
        <pt x="337" y="115" on="0"/>
        <pt x="358" y="117" on="0"/>
        <pt x="366" y="119" on="1"/>
        <pt x="376" y="121" on="0"/>
        <pt x="384" y="123" on="1"/>
        <pt x="400" y="105" on="1"/>
        <pt x="387" y="-3" on="1"/>
        <pt x="354" y="-3" on="0"/>
        <pt x="323" y="-2" on="1"/>
        <pt x="297" y="-1" on="0"/>
        <pt x="241" y="0" on="0"/>
        <pt x="224" y="0" on="1"/>
        <pt x="185" y="0" on="0"/>
        <pt x="110" y="-3" on="0"/>
        <pt x="80" y="-5" on="1"/>
        <pt x="45" y="-8" on="0"/>
        <pt x="13" y="-10" on="1"/>
        <pt x="22" y="82" on="1"/>
        <pt x="60" y="88" on="0"/>
        <pt x="87" y="125" on="0"/>
        <pt x="87" y="170" on="1"/>
        <pt x="88" y="505" on="1"/>
        <pt x="88" y="537" on="0"/>
        <pt x="78" y="559" on="0"/>
        <pt x="61" y="559" on="1"/>
        <pt x="56" y="559" on="0"/>
        <pt x="48" y="558" on="0"/>
        <pt x="44" y="558" on="1"/>
        <pt x="40" y="557" on="0"/>
        <pt x="35" y="557" on="1"/>
        <pt x="23" y="571" on="1"/>
        <pt x="32" y="650" on="1"/>
        <pt x="73" y="649" on="0"/>
        <pt x="114" y="648" on="1"/>
        <pt x="149" y="647" on="0"/>
        <pt x="230" y="647" on="0"/>
        <pt x="265" y="647" on="1"/>
        <pt x="308" y="647" on="0"/>
        <pt x="392" y="649" on="0"/>
        <pt x="466" y="652" on="0"/>
        <pt x="527" y="656" on="0"/>
        <pt x="546" y="659" on="1"/>
        <pt x="559" y="643" on="1"/>
        <pt x="555" y="611" on="0"/>
        <pt x="551" y="578" on="1"/>
        <pt x="548" y="549" on="0"/>
        <pt x="543" y="479" on="0"/>
        <pt x="541" y="444" on="1"/>
        <pt x="403" y="436" on="1"/>
        <pt x="403" y="442" on="0"/>
        <pt x="404" y="449" on="1"/>
        <pt x="404" y="454" on="0"/>
        <pt x="405" y="467" on="0"/>
        <pt x="405" y="472" on="1"/>
        <pt x="405" y="504" on="0"/>
        <pt x="374" y="527" on="0"/>
        <pt x="330" y="527" on="1"/>
        <pt x="309" y="527" on="0"/>
        <pt x="296" y="517" on="0"/>
        <pt x="296" y="500" on="1"/>
        <pt x="289" y="370" on="1"/>
        <pt x="372" y="369" on="1"/>
        <pt x="383" y="369" on="0"/>
        <pt x="418" y="370" on="0"/>
        <pt x="435" y="372" on="1"/>
        <pt x="455" y="373" on="0"/>
        <pt x="477" y="375" on="1"/>
        <pt x="489" y="361" on="1"/>
        <pt x="475" y="246" on="1"/>
        <pt x="454" y="246" on="0"/>
        <pt x="434" y="247" on="1"/>
        <pt x="417" y="248" on="0"/>
        <pt x="377" y="249" on="0"/>
        <pt x="360" y="249" on="1"/>
        <pt x="338" y="249" on="0"/>
        <pt x="298" y="245" on="0"/>
        <pt x="285" y="243" on="1"/>
      </contour>
    </TTGlyph>
    <TTGlyph name="G" xMin="15" yMin="-11" xMax="619" yMax="659">
      <contour>
        <pt x="619" y="301" on="1"/>
        <pt x="602" y="291" on="0"/>
        <pt x="581" y="270" on="0"/>
        <pt x="570" y="233" on="0"/>
        <pt x="567" y="173" on="0"/>
        <pt x="567" y="124" on="1"/>
        <pt x="567" y="93" on="0"/>
        <pt x="570" y="54" on="0"/>
        <pt x="574" y="38" on="1"/>
        <pt x="562" y="22" on="1"/>
        <pt x="537" y="12" on="0"/>
        <pt x="502" y="5" on="1"/>
        <pt x="472" y="-1" on="0"/>
        <pt x="381" y="-11" on="0"/>
        <pt x="320" y="-11" on="1"/>
        <pt x="248" y="-11" on="0"/>
        <pt x="135" y="33" on="0"/>
        <pt x="56" y="115" on="0"/>
        <pt x="15" y="235" on="0"/>
        <pt x="15" y="311" on="1"/>
        <pt x="15" y="482" on="0"/>
        <pt x="199" y="659" on="0"/>
        <pt x="376" y="659" on="1"/>
        <pt x="411" y="659" on="0"/>
        <pt x="484" y="651" on="0"/>
        <pt x="513" y="646" on="1"/>
        <pt x="547" y="640" on="0"/>
        <pt x="579" y="633" on="1"/>
        <pt x="590" y="613" on="1"/>
        <pt x="583" y="588" on="0"/>
        <pt x="578" y="556" on="1"/>
        <pt x="573" y="529" on="0"/>
        <pt x="564" y="455" on="0"/>
        <pt x="562" y="411" on="1"/>
        <pt x="408" y="402" on="1"/>
        <pt x="408" y="408" on="0"/>
        <pt x="409" y="417" on="1"/>
        <pt x="409" y="425" on="0"/>
        <pt x="410" y="445" on="0"/>
        <pt x="410" y="457" on="1"/>
        <pt x="410" y="494" on="0"/>
        <pt x="386" y="521" on="0"/>
        <pt x="351" y="521" on="1"/>
        <pt x="320" y="521" on="0"/>
        <pt x="279" y="504" on="0"/>
        <pt x="254" y="463" on="0"/>
        <pt x="243" y="396" on="0"/>
        <pt x="243" y="347" on="1"/>
        <pt x="243" y="233" on="0"/>
        <pt x="292" y="130" on="0"/>
        <pt x="347" y="130" on="1"/>
        <pt x="361" y="130" on="0"/>
        <pt x="379" y="134" on="0"/>
        <pt x="386" y="136" on="1"/>
        <pt x="393" y="139" on="0"/>
        <pt x="399" y="142" on="1"/>
        <pt x="399" y="205" on="1"/>
        <pt x="399" y="229" on="0"/>
        <pt x="386" y="246" on="0"/>
        <pt x="367" y="246" on="1"/>
        <pt x="361" y="246" on="0"/>
        <pt x="349" y="245" on="0"/>
        <pt x="344" y="245" on="1"/>
        <pt x="334" y="245" on="1"/>
        <pt x="325" y="259" on="1"/>
        <pt x="337" y="354" on="1"/>
        <pt x="490" y="354" on="1"/>
        <pt x="511" y="354" on="0"/>
        <pt x="554" y="355" on="0"/>
        <pt x="588" y="357" on="0"/>
        <pt x="609" y="359" on="0"/>
        <pt x="609" y="359" on="1"/>
      </contour>
    </TTGlyph>
    <TTGlyph name="Gbreve" xMin="15" yMin="-11" xMax="619" yMax="910">
      <component glyphName="G" x="0" y="0" flags="0x204"/>
      <component glyphName="breve" x="143" y="170" flags="0x4"/>
    </TTGlyph>
    <TTGlyph name="Gcircumflex" xMin="15" yMin="-11" xMax="619" yMax="934">
      <component glyphName="G" x="0" y="0" flags="0x204"/>
      <component glyphName="circumflex" x="149" y="174" flags="0x4"/>
    </TTGlyph>
    <TTGlyph name="Gcommaaccent" xMin="15" yMin="-345" xMax="619" yMax="659">
      <component glyphName="G" x="0" y="0" flags="0x204"/>
      <component glyphName="commaaccent" x="137" y="0" flags="0x4"/>
    </TTGlyph>
    <TTGlyph name="Gdotaccent" xMin="15" yMin="-11" xMax="619" yMax="882">
      <component glyphName="G" x="0" y="0" flags="0x204"/>
      <component glyphName="dotaccent.cap" x="146" y="0" flags="0x4"/>
    </TTGlyph>
    <TTGlyph name="H" xMin="15" yMin="-5" xMax="731" yMax="652">
      <contour>
        <pt x="664" y="510" on="1"/>
        <pt x="662" y="480" on="0"/>
        <pt x="658" y="397" on="0"/>
        <pt x="655" y="304" on="0"/>
        <pt x="654" y="204" on="0"/>
        <pt x="654" y="156" on="1"/>
        <pt x="654" y="118" on="0"/>
        <pt x="671" y="89" on="0"/>
        <pt x="693" y="89" on="1"/>
        <pt x="698" y="89" on="0"/>
        <pt x="709" y="89" on="0"/>
        <pt x="713" y="90" on="1"/>
        <pt x="717" y="91" on="0"/>
        <pt x="721" y="92" on="1"/>
        <pt x="729" y="81" on="1"/>
        <pt x="720" y="-2" on="1"/>
        <pt x="694" y="-2" on="0"/>
        <pt x="666" y="-1" on="1"/>
        <pt x="642" y="-1" on="0"/>
        <pt x="580" y="0" on="0"/>
        <pt x="549" y="0" on="1"/>
        <pt x="532" y="0" on="0"/>
        <pt x="476" y="-1" on="0"/>
        <pt x="449" y="-1" on="1"/>
        <pt x="383" y="-1" on="1"/>
        <pt x="391" y="86" on="1"/>
        <pt x="427" y="87" on="0"/>
        <pt x="457" y="121" on="0"/>
        <pt x="457" y="162" on="1"/>
        <pt x="457" y="264" on="1"/>
        <pt x="437" y="264" on="1"/>
        <pt x="428" y="264" on="0"/>
        <pt x="407" y="265" on="0"/>
        <pt x="398" y="265" on="1"/>
        <pt x="390" y="265" on="0"/>
        <pt x="352" y="262" on="0"/>
        <pt x="333" y="260" on="1"/>
        <pt x="310" y="258" on="0"/>
        <pt x="285" y="256" on="1"/>
        <pt x="285" y="156" on="1"/>
        <pt x="285" y="114" on="0"/>
        <pt x="297" y="87" on="0"/>
        <pt x="317" y="87" on="1"/>
        <pt x="332" y="87" on="0"/>
        <pt x="337" y="88" on="1"/>
        <pt x="341" y="89" on="0"/>
        <pt x="344" y="90" on="1"/>
        <pt x="352" y="80" on="1"/>
        <pt x="343" y="-4" on="1"/>
        <pt x="308" y="-3" on="0"/>
        <pt x="277" y="-2" on="1"/>
        <pt x="251" y="-1" on="0"/>
        <pt x="196" y="0" on="0"/>
        <pt x="181" y="0" on="1"/>
        <pt x="158" y="0" on="0"/>
        <pt x="101" y="-2" on="0"/>
        <pt x="75" y="-3" on="1"/>
        <pt x="45" y="-4" on="0"/>
        <pt x="15" y="-5" on="1"/>
        <pt x="23" y="80" on="1"/>
        <pt x="43" y="84" on="0"/>
        <pt x="68" y="95" on="0"/>
        <pt x="83" y="113" on="0"/>
        <pt x="88" y="141" on="0"/>
        <pt x="88" y="162" on="1"/>
        <pt x="88" y="508" on="1"/>
        <pt x="88" y="539" on="0"/>
        <pt x="74" y="559" on="0"/>
        <pt x="53" y="559" on="1"/>
        <pt x="48" y="559" on="0"/>
        <pt x="40" y="558" on="0"/>
        <pt x="36" y="558" on="1"/>
        <pt x="27" y="558" on="1"/>
        <pt x="18" y="572" on="1"/>
        <pt x="26" y="647" on="1"/>
        <pt x="155" y="647" on="1"/>
        <pt x="177" y="647" on="0"/>
        <pt x="245" y="648" on="0"/>
        <pt x="277" y="649" on="1"/>
        <pt x="314" y="650" on="0"/>
        <pt x="354" y="652" on="1"/>
        <pt x="347" y="562" on="1"/>
        <pt x="315" y="556" on="0"/>
        <pt x="295" y="537" on="0"/>
        <pt x="294" y="510" on="1"/>
        <pt x="288" y="389" on="1"/>
        <pt x="373" y="386" on="1"/>
        <pt x="407" y="386" on="0"/>
        <pt x="443" y="387" on="0"/>
        <pt x="457" y="389" on="1"/>
        <pt x="457" y="508" on="1"/>
        <pt x="457" y="538" on="0"/>
        <pt x="443" y="559" on="0"/>
        <pt x="422" y="559" on="1"/>
        <pt x="417" y="559" on="0"/>
        <pt x="408" y="558" on="0"/>
        <pt x="404" y="558" on="1"/>
        <pt x="395" y="558" on="1"/>
        <pt x="386" y="572" on="1"/>
        <pt x="394" y="647" on="1"/>
        <pt x="555" y="647" on="1"/>
        <pt x="571" y="647" on="0"/>
        <pt x="630" y="648" on="0"/>
        <pt x="659" y="649" on="1"/>
        <pt x="693" y="650" on="0"/>
        <pt x="731" y="652" on="1"/>
        <pt x="724" y="564" on="1"/>
        <pt x="706" y="561" on="0"/>
        <pt x="683" y="554" on="0"/>
        <pt x="670" y="542" on="0"/>
        <pt x="665" y="524" on="0"/>
      </contour>
    </TTGlyph>
    <TTGlyph name="Hbar" xMin="-5" yMin="-5" xMax="748" yMax="652">
      <contour>
        <pt x="664" y="510" on="1"/>
        <pt x="664" y="508" on="0"/>
        <pt x="663" y="507" on="0"/>
        <pt x="663" y="506" on="1"/>
        <pt x="679" y="506" on="0"/>
        <pt x="705" y="507" on="0"/>
        <pt x="714" y="507" on="1"/>
        <pt x="725" y="507" on="0"/>
        <pt x="733" y="508" on="1"/>
        <pt x="748" y="493" on="1"/>
        <pt x="743" y="438" on="1"/>
        <pt x="660" y="437" on="1"/>
        <pt x="657" y="376" on="0"/>
        <pt x="654" y="228" on="0"/>
        <pt x="654" y="156" on="1"/>
        <pt x="654" y="118" on="0"/>
        <pt x="671" y="89" on="0"/>
        <pt x="693" y="89" on="1"/>
        <pt x="698" y="89" on="0"/>
        <pt x="709" y="89" on="0"/>
        <pt x="713" y="90" on="1"/>
        <pt x="717" y="91" on="0"/>
        <pt x="721" y="92" on="1"/>
        <pt x="729" y="81" on="1"/>
        <pt x="720" y="-2" on="1"/>
        <pt x="694" y="-2" on="0"/>
        <pt x="666" y="-1" on="1"/>
        <pt x="642" y="-1" on="0"/>
        <pt x="580" y="0" on="0"/>
        <pt x="549" y="0" on="1"/>
        <pt x="532" y="0" on="0"/>
        <pt x="476" y="-1" on="0"/>
        <pt x="449" y="-1" on="1"/>
        <pt x="383" y="-1" on="1"/>
        <pt x="391" y="86" on="1"/>
        <pt x="427" y="87" on="0"/>
        <pt x="457" y="121" on="0"/>
        <pt x="457" y="162" on="1"/>
        <pt x="457" y="264" on="1"/>
        <pt x="437" y="264" on="1"/>
        <pt x="428" y="264" on="0"/>
        <pt x="407" y="265" on="0"/>
        <pt x="398" y="265" on="1"/>
        <pt x="390" y="265" on="0"/>
        <pt x="352" y="262" on="0"/>
        <pt x="333" y="260" on="1"/>
        <pt x="310" y="258" on="0"/>
        <pt x="285" y="256" on="1"/>
        <pt x="285" y="156" on="1"/>
        <pt x="285" y="114" on="0"/>
        <pt x="297" y="87" on="0"/>
        <pt x="317" y="87" on="1"/>
        <pt x="332" y="87" on="0"/>
        <pt x="337" y="88" on="1"/>
        <pt x="341" y="89" on="0"/>
        <pt x="344" y="90" on="1"/>
        <pt x="352" y="80" on="1"/>
        <pt x="343" y="-4" on="1"/>
        <pt x="308" y="-3" on="0"/>
        <pt x="277" y="-2" on="1"/>
        <pt x="251" y="-1" on="0"/>
        <pt x="196" y="0" on="0"/>
        <pt x="181" y="0" on="1"/>
        <pt x="158" y="0" on="0"/>
        <pt x="101" y="-2" on="0"/>
        <pt x="75" y="-3" on="1"/>
        <pt x="45" y="-4" on="0"/>
        <pt x="15" y="-5" on="1"/>
        <pt x="23" y="80" on="1"/>
        <pt x="43" y="84" on="0"/>
        <pt x="68" y="95" on="0"/>
        <pt x="83" y="113" on="0"/>
        <pt x="88" y="141" on="0"/>
        <pt x="88" y="162" on="1"/>
        <pt x="88" y="436" on="1"/>
        <pt x="6" y="436" on="1"/>
        <pt x="-5" y="446" on="1"/>
        <pt x="3" y="504" on="1"/>
        <pt x="14" y="503" on="0"/>
        <pt x="27" y="503" on="1"/>
        <pt x="88" y="503" on="1"/>
        <pt x="88" y="508" on="1"/>
        <pt x="88" y="539" on="0"/>
        <pt x="74" y="559" on="0"/>
        <pt x="53" y="559" on="1"/>
        <pt x="48" y="559" on="0"/>
        <pt x="40" y="558" on="0"/>
        <pt x="36" y="558" on="1"/>
        <pt x="27" y="558" on="1"/>
        <pt x="18" y="572" on="1"/>
        <pt x="26" y="647" on="1"/>
        <pt x="155" y="647" on="1"/>
        <pt x="177" y="647" on="0"/>
        <pt x="245" y="648" on="0"/>
        <pt x="277" y="649" on="1"/>
        <pt x="314" y="650" on="0"/>
        <pt x="354" y="652" on="1"/>
        <pt x="347" y="562" on="1"/>
        <pt x="315" y="556" on="0"/>
        <pt x="295" y="537" on="0"/>
        <pt x="294" y="510" on="1"/>
        <pt x="293" y="503" on="1"/>
        <pt x="402" y="503" on="1"/>
        <pt x="457" y="503" on="1"/>
        <pt x="457" y="508" on="1"/>
        <pt x="457" y="538" on="0"/>
        <pt x="443" y="559" on="0"/>
        <pt x="422" y="559" on="1"/>
        <pt x="417" y="559" on="0"/>
        <pt x="408" y="558" on="0"/>
        <pt x="404" y="558" on="1"/>
        <pt x="395" y="558" on="1"/>
        <pt x="386" y="572" on="1"/>
        <pt x="394" y="647" on="1"/>
        <pt x="555" y="647" on="1"/>
        <pt x="571" y="647" on="0"/>
        <pt x="630" y="648" on="0"/>
        <pt x="659" y="649" on="1"/>
        <pt x="693" y="650" on="0"/>
        <pt x="731" y="652" on="1"/>
        <pt x="724" y="564" on="1"/>
        <pt x="706" y="561" on="0"/>
        <pt x="683" y="554" on="0"/>
        <pt x="670" y="542" on="0"/>
        <pt x="665" y="524" on="0"/>
      </contour>
      <contour>
        <pt x="290" y="437" on="1"/>
        <pt x="288" y="389" on="1"/>
        <pt x="373" y="386" on="1"/>
        <pt x="407" y="386" on="0"/>
        <pt x="443" y="387" on="0"/>
        <pt x="457" y="389" on="1"/>
        <pt x="457" y="437" on="1"/>
        <pt x="376" y="437" on="1"/>
      </contour>
    </TTGlyph>
    <TTGlyph name="Hcircumflex" xMin="15" yMin="-5" xMax="731" yMax="960">
      <component glyphName="H" x="0" y="0" flags="0x204"/>
      <component glyphName="circumflex" x="171" y="200" flags="0x4"/>
    </TTGlyph>
    <TTGlyph name="I" xMin="15" yMin="-5" xMax="359" yMax="652">
      <contour>
        <pt x="295" y="510" on="1"/>
        <pt x="290" y="439" on="0"/>
        <pt x="285" y="254" on="0"/>
        <pt x="285" y="156" on="1"/>
        <pt x="285" y="114" on="0"/>
        <pt x="297" y="87" on="0"/>
        <pt x="317" y="87" on="1"/>
        <pt x="325" y="87" on="0"/>
        <pt x="337" y="87" on="0"/>
        <pt x="341" y="88" on="1"/>
        <pt x="345" y="89" on="0"/>
        <pt x="349" y="90" on="1"/>
        <pt x="357" y="80" on="1"/>
        <pt x="348" y="-4" on="1"/>
        <pt x="312" y="-3" on="0"/>
        <pt x="280" y="-2" on="1"/>
        <pt x="252" y="-1" on="0"/>
        <pt x="197" y="0" on="0"/>
        <pt x="181" y="0" on="1"/>
        <pt x="157" y="0" on="0"/>
        <pt x="100" y="-2" on="0"/>
        <pt x="74" y="-3" on="1"/>
        <pt x="44" y="-4" on="0"/>
        <pt x="15" y="-5" on="1"/>
        <pt x="23" y="80" on="1"/>
        <pt x="43" y="84" on="0"/>
        <pt x="69" y="96" on="0"/>
        <pt x="83" y="114" on="0"/>
        <pt x="88" y="141" on="0"/>
        <pt x="88" y="162" on="1"/>
        <pt x="88" y="508" on="1"/>
        <pt x="88" y="539" on="0"/>
        <pt x="74" y="559" on="0"/>
        <pt x="53" y="559" on="1"/>
        <pt x="48" y="559" on="0"/>
        <pt x="40" y="558" on="0"/>
        <pt x="36" y="558" on="1"/>
        <pt x="27" y="558" on="1"/>
        <pt x="18" y="572" on="1"/>
        <pt x="26" y="647" on="1"/>
        <pt x="187" y="647" on="1"/>
        <pt x="203" y="647" on="0"/>
        <pt x="260" y="648" on="0"/>
        <pt x="289" y="649" on="1"/>
        <pt x="322" y="650" on="0"/>
        <pt x="359" y="652" on="1"/>
        <pt x="352" y="562" on="1"/>
        <pt x="335" y="559" on="0"/>
        <pt x="313" y="553" on="0"/>
        <pt x="301" y="542" on="0"/>
        <pt x="296" y="524" on="0"/>
      </contour>
    </TTGlyph>
    <TTGlyph name="IJ" xMin="15" yMin="-164" xMax="712" yMax="655">
      <component glyphName="I" x="0" y="0" flags="0x4"/>
      <component glyphName="J" x="370" y="0" flags="0x4"/>
    </TTGlyph>
    <TTGlyph name="Iacute" xMin="15" yMin="-5" xMax="376" yMax="875">
      <component glyphName="I" x="0" y="0" flags="0x204"/>
      <component glyphName="acute.cap" x="7" y="0" flags="0x4"/>
    </TTGlyph>
    <TTGlyph name="Ibreve" xMin="11" yMin="-5" xMax="367" yMax="905">
      <component glyphName="I" x="0" y="0" flags="0x204"/>
      <component glyphName="breve" x="-10" y="165" flags="0x4"/>
    </TTGlyph>
    <TTGlyph name="Icircumflex" xMin="0" yMin="-5" xMax="380" yMax="910">
      <component glyphName="I" x="0" y="0" flags="0x204"/>
      <component glyphName="circumflex.cap" x="-9" y="0" flags="0x4"/>
    </TTGlyph>
    <TTGlyph name="Idieresis" xMin="10" yMin="-5" xMax="367" yMax="852">
      <component glyphName="I" x="0" y="0" flags="0x204"/>
      <component glyphName="dieresis.cap" x="-10" y="0" flags="0x4"/>
    </TTGlyph>
    <TTGlyph name="Idotaccent" xMin="15" yMin="-5" xMax="359" yMax="882">
      <component glyphName="I" x="0" y="0" flags="0x204"/>
      <component glyphName="dotaccent.cap" x="-8" y="0" flags="0x4"/>
    </TTGlyph>
    <TTGlyph name="Igrave" xMin="5" yMin="-5" xMax="359" yMax="875">
      <component glyphName="I" x="0" y="0" flags="0x204"/>
      <component glyphName="grave.cap" x="-23" y="0" flags="0x4"/>
    </TTGlyph>
    <TTGlyph name="Imacron" xMin="15" yMin="-5" xMax="359" yMax="823">
      <component glyphName="I" x="0" y="0" flags="0x204"/>
      <component glyphName="macron.cap" x="-11" y="0" flags="0x4"/>
    </TTGlyph>
    <TTGlyph name="Iogonek" xMin="15" yMin="-242" xMax="363" yMax="652">
      <contour>
        <pt x="363" y="-171" on="1"/>
        <pt x="347" y="-187" on="0"/>
        <pt x="329" y="-200" on="1"/>
        <pt x="314" y="-212" on="0"/>
        <pt x="277" y="-235" on="0"/>
        <pt x="259" y="-242" on="1"/>
        <pt x="199" y="-242" on="0"/>
        <pt x="130" y="-195" on="0"/>
        <pt x="130" y="-153" on="1"/>
        <pt x="130" y="-137" on="0"/>
        <pt x="139" y="-105" on="0"/>
        <pt x="160" y="-69" on="0"/>
        <pt x="193" y="-27" on="0"/>
        <pt x="218" y="0" on="1"/>
        <pt x="181" y="0" on="1"/>
        <pt x="157" y="0" on="0"/>
        <pt x="100" y="-2" on="0"/>
        <pt x="74" y="-3" on="1"/>
        <pt x="44" y="-4" on="0"/>
        <pt x="15" y="-5" on="1"/>
        <pt x="23" y="80" on="1"/>
        <pt x="43" y="84" on="0"/>
        <pt x="69" y="96" on="0"/>
        <pt x="83" y="114" on="0"/>
        <pt x="88" y="141" on="0"/>
        <pt x="88" y="162" on="1"/>
        <pt x="88" y="508" on="1"/>
        <pt x="88" y="539" on="0"/>
        <pt x="74" y="559" on="0"/>
        <pt x="53" y="559" on="1"/>
        <pt x="48" y="559" on="0"/>
        <pt x="40" y="558" on="0"/>
        <pt x="36" y="558" on="1"/>
        <pt x="27" y="558" on="1"/>
        <pt x="18" y="572" on="1"/>
        <pt x="26" y="647" on="1"/>
        <pt x="187" y="647" on="1"/>
        <pt x="203" y="647" on="0"/>
        <pt x="260" y="648" on="0"/>
        <pt x="289" y="649" on="1"/>
        <pt x="322" y="650" on="0"/>
        <pt x="359" y="652" on="1"/>
        <pt x="352" y="562" on="1"/>
        <pt x="335" y="559" on="0"/>
        <pt x="313" y="553" on="0"/>
        <pt x="301" y="542" on="0"/>
        <pt x="296" y="524" on="0"/>
        <pt x="295" y="510" on="1"/>
        <pt x="290" y="439" on="0"/>
        <pt x="285" y="254" on="0"/>
        <pt x="285" y="156" on="1"/>
        <pt x="285" y="114" on="0"/>
        <pt x="297" y="87" on="0"/>
        <pt x="317" y="87" on="1"/>
        <pt x="325" y="87" on="0"/>
        <pt x="337" y="87" on="0"/>
        <pt x="341" y="88" on="1"/>
        <pt x="345" y="89" on="0"/>
        <pt x="349" y="90" on="1"/>
        <pt x="357" y="80" on="1"/>
        <pt x="348" y="-4" on="1"/>
        <pt x="340" y="-3" on="0"/>
        <pt x="331" y="-3" on="1"/>
        <pt x="323" y="-3" on="0"/>
        <pt x="303" y="-3" on="0"/>
        <pt x="292" y="-2" on="1"/>
        <pt x="256" y="-50" on="0"/>
        <pt x="231" y="-98" on="0"/>
        <pt x="231" y="-116" on="1"/>
        <pt x="231" y="-135" on="0"/>
        <pt x="253" y="-157" on="0"/>
        <pt x="272" y="-157" on="1"/>
        <pt x="283" y="-157" on="0"/>
        <pt x="306" y="-150" on="0"/>
        <pt x="316" y="-145" on="1"/>
        <pt x="327" y="-140" on="0"/>
        <pt x="338" y="-132" on="1"/>
      </contour>
    </TTGlyph>
    <TTGlyph name="Itilde" xMin="-10" yMin="-5" xMax="384" yMax="913">
      <component glyphName="I" x="0" y="0" flags="0x204"/>
      <component glyphName="tilde.cap" x="-13" y="25" flags="0x4"/>
    </TTGlyph>
    <TTGlyph name="J" xMin="-5" yMin="-164" xMax="342" yMax="655">
      <contour>
        <pt x="80" y="508" on="1"/>
        <pt x="80" y="539" on="0"/>
        <pt x="68" y="559" on="0"/>
        <pt x="48" y="559" on="1"/>
        <pt x="42" y="559" on="0"/>
        <pt x="29" y="558" on="0"/>
        <pt x="24" y="558" on="1"/>
        <pt x="18" y="557" on="0"/>
        <pt x="12" y="557" on="1"/>
        <pt x="3" y="571" on="1"/>
        <pt x="11" y="647" on="1"/>
        <pt x="152" y="648" on="1"/>
        <pt x="188" y="648" on="0"/>
        <pt x="257" y="650" on="0"/>
        <pt x="283" y="652" on="1"/>
        <pt x="314" y="654" on="0"/>
        <pt x="342" y="655" on="1"/>
        <pt x="334" y="562" on="1"/>
        <pt x="319" y="559" on="0"/>
        <pt x="302" y="552" on="0"/>
        <pt x="292" y="541" on="0"/>
        <pt x="288" y="524" on="0"/>
        <pt x="287" y="510" on="1"/>
        <pt x="285" y="475" on="0"/>
        <pt x="280" y="373" on="0"/>
        <pt x="277" y="256" on="0"/>
        <pt x="275" y="136" on="0"/>
        <pt x="275" y="85" on="1"/>
        <pt x="275" y="-12" on="0"/>
        <pt x="161" y="-131" on="0"/>
        <pt x="35" y="-164" on="1"/>
        <pt x="-5" y="-116" on="1"/>
        <pt x="-3" y="-101" on="1"/>
        <pt x="22" y="-78" on="0"/>
        <pt x="55" y="-36" on="0"/>
        <pt x="73" y="16" on="0"/>
        <pt x="80" y="83" on="0"/>
        <pt x="80" y="132" on="1"/>
      </contour>
    </TTGlyph>
    <TTGlyph name="Jcircumflex" xMin="-6" yMin="-164" xMax="354" yMax="934">
      <component glyphName="J" x="0" y="0" flags="0x204"/>
      <component glyphName="circumflex" x="-24" y="174" flags="0x4"/>
    </TTGlyph>
    <TTGlyph name="K" xMin="15" yMin="-16" xMax="694" yMax="652">
      <contour>
        <pt x="88" y="508" on="1"/>
        <pt x="88" y="539" on="0"/>
        <pt x="74" y="559" on="0"/>
        <pt x="53" y="559" on="1"/>
        <pt x="48" y="559" on="0"/>
        <pt x="40" y="558" on="0"/>
        <pt x="36" y="558" on="1"/>
        <pt x="27" y="558" on="1"/>
        <pt x="18" y="572" on="1"/>
        <pt x="27" y="648" on="1"/>
        <pt x="67" y="647" on="0"/>
        <pt x="100" y="647" on="1"/>
        <pt x="187" y="647" on="1"/>
        <pt x="203" y="647" on="0"/>
        <pt x="260" y="648" on="0"/>
        <pt x="289" y="649" on="1"/>
        <pt x="322" y="650" on="0"/>
        <pt x="359" y="652" on="1"/>
        <pt x="352" y="562" on="1"/>
        <pt x="334" y="557" on="0"/>
        <pt x="311" y="549" on="0"/>
        <pt x="297" y="537" on="0"/>
        <pt x="292" y="519" on="0"/>
        <pt x="292" y="506" on="1"/>
        <pt x="285" y="156" on="1"/>
        <pt x="284" y="114" on="0"/>
        <pt x="297" y="87" on="0"/>
        <pt x="317" y="87" on="1"/>
        <pt x="325" y="87" on="0"/>
        <pt x="337" y="87" on="0"/>
        <pt x="341" y="88" on="1"/>
        <pt x="345" y="89" on="0"/>
        <pt x="349" y="90" on="1"/>
        <pt x="357" y="80" on="1"/>
        <pt x="348" y="-4" on="1"/>
        <pt x="312" y="-3" on="0"/>
        <pt x="280" y="-2" on="1"/>
        <pt x="252" y="-1" on="0"/>
        <pt x="197" y="0" on="0"/>
        <pt x="181" y="0" on="1"/>
        <pt x="157" y="0" on="0"/>
        <pt x="100" y="-2" on="0"/>
        <pt x="74" y="-3" on="1"/>
        <pt x="44" y="-4" on="0"/>
        <pt x="15" y="-5" on="1"/>
        <pt x="23" y="80" on="1"/>
        <pt x="43" y="84" on="0"/>
        <pt x="68" y="95" on="0"/>
        <pt x="83" y="113" on="0"/>
        <pt x="88" y="141" on="0"/>
        <pt x="88" y="162" on="1"/>
      </contour>
      <contour>
        <pt x="299" y="347" on="1"/>
        <pt x="411" y="480" on="1"/>
        <pt x="432" y="501" on="0"/>
        <pt x="432" y="526" on="1"/>
        <pt x="432" y="543" on="0"/>
        <pt x="414" y="556" on="0"/>
        <pt x="391" y="558" on="1"/>
        <pt x="385" y="568" on="1"/>
        <pt x="394" y="650" on="1"/>
        <pt x="422" y="649" on="0"/>
        <pt x="448" y="648" on="1"/>
        <pt x="471" y="647" on="0"/>
        <pt x="520" y="647" on="0"/>
        <pt x="537" y="647" on="1"/>
        <pt x="551" y="647" on="0"/>
        <pt x="598" y="648" on="0"/>
        <pt x="622" y="649" on="1"/>
        <pt x="649" y="650" on="0"/>
        <pt x="681" y="652" on="1"/>
        <pt x="690" y="637" on="1"/>
        <pt x="681" y="562" on="1"/>
        <pt x="644" y="541" on="0"/>
        <pt x="574" y="471" on="0"/>
        <pt x="534" y="415" on="1"/>
        <pt x="492" y="356" on="1"/>
        <pt x="586" y="174" on="1"/>
        <pt x="609" y="130" on="0"/>
        <pt x="652" y="89" on="0"/>
        <pt x="684" y="84" on="1"/>
        <pt x="694" y="69" on="1"/>
        <pt x="683" y="-5" on="1"/>
        <pt x="647" y="-8" on="0"/>
        <pt x="616" y="-11" on="1"/>
        <pt x="590" y="-13" on="0"/>
        <pt x="539" y="-16" on="0"/>
        <pt x="530" y="-16" on="1"/>
        <pt x="491" y="-16" on="0"/>
        <pt x="443" y="19" on="0"/>
        <pt x="420" y="65" on="1"/>
        <pt x="294" y="317" on="1"/>
      </contour>
    </TTGlyph>
    <TTGlyph name="Kcommaaccent" xMin="15" yMin="-345" xMax="694" yMax="652">
      <component glyphName="K" x="0" y="0" flags="0x204"/>
      <component glyphName="commaaccent" x="175" y="0" flags="0x4"/>
    </TTGlyph>
    <TTGlyph name="L" xMin="13" yMin="-10" xMax="557" yMax="652">
      <contour>
        <pt x="224" y="0" on="1"/>
        <pt x="185" y="0" on="0"/>
        <pt x="110" y="-3" on="0"/>
        <pt x="80" y="-5" on="1"/>
        <pt x="45" y="-8" on="0"/>
        <pt x="13" y="-10" on="1"/>
        <pt x="22" y="82" on="1"/>
        <pt x="60" y="88" on="0"/>
        <pt x="87" y="125" on="0"/>
        <pt x="87" y="170" on="1"/>
        <pt x="87" y="508" on="1"/>
        <pt x="87" y="539" on="0"/>
        <pt x="73" y="559" on="0"/>
        <pt x="52" y="559" on="1"/>
        <pt x="47" y="559" on="0"/>
        <pt x="39" y="558" on="0"/>
        <pt x="35" y="558" on="1"/>
        <pt x="26" y="558" on="1"/>
        <pt x="17" y="572" on="1"/>
        <pt x="25" y="647" on="1"/>
        <pt x="186" y="647" on="1"/>
        <pt x="204" y="647" on="0"/>
        <pt x="272" y="648" on="0"/>
        <pt x="307" y="649" on="1"/>
        <pt x="347" y="650" on="0"/>
        <pt x="393" y="652" on="1"/>
        <pt x="382" y="554" on="1"/>
        <pt x="356" y="551" on="0"/>
        <pt x="323" y="544" on="0"/>
        <pt x="303" y="533" on="0"/>
        <pt x="295" y="515" on="0"/>
        <pt x="294" y="502" on="1"/>
        <pt x="292" y="468" on="0"/>
        <pt x="288" y="395" on="0"/>
        <pt x="285" y="311" on="0"/>
        <pt x="284" y="215" on="0"/>
        <pt x="284" y="158" on="1"/>
        <pt x="284" y="135" on="0"/>
        <pt x="301" y="115" on="0"/>
        <pt x="321" y="115" on="1"/>
        <pt x="348" y="115" on="0"/>
        <pt x="382" y="128" on="0"/>
        <pt x="404" y="164" on="0"/>
        <pt x="414" y="228" on="0"/>
        <pt x="417" y="278" on="1"/>
        <pt x="545" y="291" on="1"/>
        <pt x="557" y="276" on="1"/>
        <pt x="552" y="238" on="0"/>
        <pt x="548" y="195" on="1"/>
        <pt x="544" y="158" on="0"/>
        <pt x="536" y="61" on="0"/>
        <pt x="533" y="9" on="1"/>
        <pt x="518" y="-7" on="1"/>
        <pt x="474" y="-6" on="0"/>
        <pt x="425" y="-4" on="1"/>
        <pt x="383" y="-2" on="0"/>
        <pt x="278" y="0" on="0"/>
      </contour>
    </TTGlyph>
    <TTGlyph name="Lacute" xMin="13" yMin="-10" xMax="557" yMax="875">
      <component glyphName="L" x="0" y="0" flags="0x204"/>
      <component glyphName="acute.cap" x="10" y="0" flags="0x4"/>
    </TTGlyph>
    <TTGlyph name="Lcaron" xMin="13" yMin="-10" xMax="574" yMax="652">
      <contour>
        <pt x="224" y="0" on="1"/>
        <pt x="185" y="0" on="0"/>
        <pt x="110" y="-3" on="0"/>
        <pt x="80" y="-5" on="1"/>
        <pt x="45" y="-8" on="0"/>
        <pt x="13" y="-10" on="1"/>
        <pt x="22" y="82" on="1"/>
        <pt x="60" y="88" on="0"/>
        <pt x="87" y="125" on="0"/>
        <pt x="87" y="170" on="1"/>
        <pt x="87" y="508" on="1"/>
        <pt x="87" y="539" on="0"/>
        <pt x="73" y="559" on="0"/>
        <pt x="52" y="559" on="1"/>
        <pt x="47" y="559" on="0"/>
        <pt x="39" y="558" on="0"/>
        <pt x="35" y="558" on="1"/>
        <pt x="26" y="558" on="1"/>
        <pt x="17" y="572" on="1"/>
        <pt x="25" y="647" on="1"/>
        <pt x="186" y="647" on="1"/>
        <pt x="204" y="647" on="0"/>
        <pt x="272" y="648" on="0"/>
        <pt x="307" y="649" on="1"/>
        <pt x="347" y="650" on="0"/>
        <pt x="393" y="652" on="1"/>
        <pt x="382" y="554" on="1"/>
        <pt x="356" y="551" on="0"/>
        <pt x="323" y="544" on="0"/>
        <pt x="303" y="533" on="0"/>
        <pt x="295" y="515" on="0"/>
        <pt x="294" y="502" on="1"/>
        <pt x="292" y="468" on="0"/>
        <pt x="288" y="395" on="0"/>
        <pt x="285" y="311" on="0"/>
        <pt x="284" y="215" on="0"/>
        <pt x="284" y="158" on="1"/>
        <pt x="284" y="135" on="0"/>
        <pt x="301" y="115" on="0"/>
        <pt x="321" y="115" on="1"/>
        <pt x="348" y="115" on="0"/>
        <pt x="382" y="128" on="0"/>
        <pt x="404" y="164" on="0"/>
        <pt x="414" y="228" on="0"/>
        <pt x="417" y="278" on="1"/>
        <pt x="545" y="291" on="1"/>
        <pt x="557" y="276" on="1"/>
        <pt x="552" y="238" on="0"/>
        <pt x="548" y="195" on="1"/>
        <pt x="544" y="158" on="0"/>
        <pt x="536" y="61" on="0"/>
        <pt x="533" y="9" on="1"/>
        <pt x="518" y="-7" on="1"/>
        <pt x="474" y="-6" on="0"/>
        <pt x="425" y="-4" on="1"/>
        <pt x="383" y="-2" on="0"/>
        <pt x="278" y="0" on="0"/>
      </contour>
      <contour>
        <pt x="574" y="635" on="1"/>
        <pt x="569" y="602" on="0"/>
        <pt x="563" y="566" on="1"/>
        <pt x="558" y="535" on="0"/>
        <pt x="542" y="456" on="0"/>
        <pt x="532" y="414" on="1"/>
        <pt x="459" y="389" on="1"/>
        <pt x="440" y="395" on="1"/>
        <pt x="441" y="440" on="0"/>
        <pt x="438" y="525" on="0"/>
        <pt x="436" y="559" on="1"/>
        <pt x="433" y="598" on="0"/>
        <pt x="431" y="633" on="1"/>
        <pt x="565" y="647" on="1"/>
      </contour>
    </TTGlyph>
    <TTGlyph name="Lcommaaccent" xMin="13" yMin="-345" xMax="557" yMax="652">
      <component glyphName="L" x="0" y="0" flags="0x204"/>
      <component glyphName="commaaccent" x="90" y="0" flags="0x4"/>
    </TTGlyph>
    <TTGlyph name="Ldot" xMin="13" yMin="-10" xMax="572" yMax="652">
      <component glyphName="L" x="0" y="0" flags="0x4"/>
      <component glyphName="periodcentered" x="356" y="224" flags="0x4"/>
    </TTGlyph>
    <TTGlyph name="Lslash" xMin="15" yMin="-10" xMax="582" yMax="652">
      <contour>
        <pt x="249" y="0" on="1"/>
        <pt x="210" y="0" on="0"/>
        <pt x="135" y="-3" on="0"/>
        <pt x="105" y="-5" on="1"/>
        <pt x="70" y="-8" on="0"/>
        <pt x="38" y="-10" on="1"/>
        <pt x="47" y="82" on="1"/>
        <pt x="85" y="88" on="0"/>
        <pt x="112" y="125" on="0"/>
        <pt x="112" y="170" on="1"/>
        <pt x="112" y="238" on="1"/>
        <pt x="56" y="210" on="1"/>
        <pt x="46" y="212" on="1"/>
        <pt x="15" y="306" on="1"/>
        <pt x="112" y="354" on="1"/>
        <pt x="112" y="508" on="1"/>
        <pt x="112" y="539" on="0"/>
        <pt x="98" y="559" on="0"/>
        <pt x="77" y="559" on="1"/>
        <pt x="72" y="559" on="0"/>
        <pt x="64" y="558" on="0"/>
        <pt x="60" y="558" on="1"/>
        <pt x="51" y="558" on="1"/>
        <pt x="42" y="572" on="1"/>
        <pt x="50" y="647" on="1"/>
        <pt x="211" y="647" on="1"/>
        <pt x="229" y="647" on="0"/>
        <pt x="297" y="648" on="0"/>
        <pt x="332" y="649" on="1"/>
        <pt x="372" y="650" on="0"/>
        <pt x="418" y="652" on="1"/>
        <pt x="407" y="554" on="1"/>
        <pt x="381" y="551" on="0"/>
        <pt x="348" y="544" on="0"/>
        <pt x="328" y="533" on="0"/>
        <pt x="320" y="515" on="0"/>
        <pt x="319" y="502" on="1"/>
        <pt x="317" y="485" on="0"/>
        <pt x="316" y="451" on="0"/>
        <pt x="315" y="434" on="1"/>
        <pt x="397" y="475" on="1"/>
        <pt x="406" y="471" on="1"/>
        <pt x="437" y="378" on="1"/>
        <pt x="310" y="315" on="1"/>
        <pt x="309" y="280" on="0"/>
        <pt x="309" y="203" on="0"/>
        <pt x="309" y="158" on="1"/>
        <pt x="309" y="135" on="0"/>
        <pt x="326" y="115" on="0"/>
        <pt x="346" y="115" on="1"/>
        <pt x="373" y="115" on="0"/>
        <pt x="407" y="128" on="0"/>
        <pt x="429" y="164" on="0"/>
        <pt x="439" y="228" on="0"/>
        <pt x="442" y="278" on="1"/>
        <pt x="570" y="291" on="1"/>
        <pt x="582" y="276" on="1"/>
        <pt x="577" y="238" on="0"/>
        <pt x="573" y="195" on="1"/>
        <pt x="569" y="158" on="0"/>
        <pt x="561" y="61" on="0"/>
        <pt x="558" y="9" on="1"/>
        <pt x="543" y="-7" on="1"/>
        <pt x="499" y="-6" on="0"/>
        <pt x="450" y="-4" on="1"/>
        <pt x="408" y="-2" on="0"/>
        <pt x="303" y="0" on="0"/>
      </contour>
    </TTGlyph>
    <TTGlyph name="M" xMin="7" yMin="-12" xMax="836" yMax="653">
      <contour>
        <pt x="337" y="-12" on="1"/>
        <pt x="315" y="68" on="0"/>
        <pt x="277" y="204" on="0"/>
        <pt x="262" y="255" on="1"/>
        <pt x="244" y="314" on="0"/>
        <pt x="229" y="363" on="1"/>
        <pt x="216" y="363" on="1"/>
        <pt x="214" y="301" on="0"/>
        <pt x="213" y="251" on="1"/>
        <pt x="213" y="229" on="0"/>
        <pt x="212" y="187" on="0"/>
        <pt x="211" y="151" on="0"/>
        <pt x="211" y="126" on="0"/>
        <pt x="211" y="122" on="1"/>
        <pt x="211" y="88" on="0"/>
        <pt x="244" y="88" on="1"/>
        <pt x="246" y="88" on="0"/>
        <pt x="255" y="88" on="0"/>
        <pt x="260" y="89" on="1"/>
        <pt x="265" y="89" on="0"/>
        <pt x="270" y="90" on="1"/>
        <pt x="279" y="82" on="1"/>
        <pt x="267" y="-4" on="1"/>
        <pt x="236" y="-3" on="0"/>
        <pt x="208" y="-2" on="1"/>
        <pt x="184" y="-1" on="0"/>
        <pt x="136" y="0" on="0"/>
        <pt x="124" y="0" on="1"/>
        <pt x="109" y="0" on="0"/>
        <pt x="69" y="-2" on="0"/>
        <pt x="32" y="-5" on="0"/>
        <pt x="7" y="-8" on="0"/>
        <pt x="7" y="-8" on="1"/>
        <pt x="15" y="82" on="1"/>
        <pt x="43" y="85" on="0"/>
        <pt x="70" y="114" on="0"/>
        <pt x="72" y="148" on="1"/>
        <pt x="81" y="244" on="0"/>
        <pt x="89" y="321" on="1"/>
        <pt x="92" y="354" on="0"/>
        <pt x="99" y="419" on="0"/>
        <pt x="104" y="472" on="0"/>
        <pt x="107" y="508" on="0"/>
        <pt x="107" y="513" on="1"/>
        <pt x="107" y="527" on="0"/>
        <pt x="104" y="542" on="0"/>
        <pt x="92" y="551" on="0"/>
        <pt x="67" y="555" on="0"/>
        <pt x="45" y="558" on="1"/>
        <pt x="37" y="566" on="1"/>
        <pt x="47" y="652" on="1"/>
        <pt x="77" y="650" on="0"/>
        <pt x="105" y="649" on="1"/>
        <pt x="128" y="648" on="0"/>
        <pt x="178" y="647" on="0"/>
        <pt x="194" y="647" on="1"/>
        <pt x="214" y="647" on="0"/>
        <pt x="268" y="648" on="0"/>
        <pt x="292" y="649" on="1"/>
        <pt x="320" y="650" on="0"/>
        <pt x="348" y="651" on="1"/>
        <pt x="359" y="594" on="0"/>
        <pt x="385" y="482" on="0"/>
        <pt x="396" y="436" on="1"/>
        <pt x="409" y="382" on="0"/>
        <pt x="422" y="333" on="1"/>
        <pt x="435" y="333" on="1"/>
        <pt x="449" y="383" on="0"/>
        <pt x="464" y="436" on="1"/>
        <pt x="477" y="481" on="0"/>
        <pt x="505" y="592" on="0"/>
        <pt x="519" y="647" on="1"/>
        <pt x="566" y="647" on="0"/>
        <pt x="657" y="645" on="0"/>
        <pt x="704" y="648" on="1"/>
        <pt x="722" y="649" on="0"/>
        <pt x="755" y="650" on="0"/>
        <pt x="769" y="651" on="1"/>
        <pt x="784" y="652" on="0"/>
        <pt x="798" y="653" on="1"/>
        <pt x="805" y="649" on="1"/>
        <pt x="797" y="561" on="1"/>
        <pt x="756" y="559" on="0"/>
        <pt x="731" y="540" on="0"/>
        <pt x="731" y="510" on="1"/>
        <pt x="731" y="487" on="0"/>
        <pt x="735" y="403" on="0"/>
        <pt x="741" y="307" on="0"/>
        <pt x="749" y="211" on="0"/>
        <pt x="753" y="176" on="1"/>
        <pt x="757" y="127" on="0"/>
        <pt x="776" y="89" on="0"/>
        <pt x="799" y="89" on="1"/>
        <pt x="805" y="89" on="0"/>
        <pt x="815" y="89" on="0"/>
        <pt x="820" y="90" on="1"/>
        <pt x="824" y="90" on="0"/>
        <pt x="829" y="91" on="1"/>
        <pt x="836" y="83" on="1"/>
        <pt x="827" y="-3" on="1"/>
        <pt x="809" y="-3" on="0"/>
        <pt x="790" y="-2" on="1"/>
        <pt x="773" y="-1" on="0"/>
        <pt x="734" y="-1" on="0"/>
        <pt x="717" y="0" on="1"/>
        <pt x="710" y="0" on="0"/>
        <pt x="652" y="-1" on="0"/>
        <pt x="586" y="-4" on="0"/>
        <pt x="530" y="-7" on="0"/>
        <pt x="525" y="-8" on="1"/>
        <pt x="537" y="83" on="1"/>
        <pt x="565" y="86" on="0"/>
        <pt x="588" y="108" on="0"/>
        <pt x="588" y="132" on="1"/>
        <pt x="588" y="140" on="0"/>
        <pt x="588" y="169" on="0"/>
        <pt x="587" y="205" on="0"/>
        <pt x="586" y="244" on="0"/>
        <pt x="586" y="264" on="1"/>
        <pt x="585" y="310" on="0"/>
        <pt x="584" y="363" on="1"/>
        <pt x="571" y="363" on="1"/>
        <pt x="554" y="313" on="0"/>
        <pt x="536" y="254" on="1"/>
        <pt x="520" y="203" on="0"/>
        <pt x="482" y="72" on="0"/>
        <pt x="462" y="-2" on="1"/>
      </contour>
    </TTGlyph>
    <TTGlyph name="N" xMin="13" yMin="-12" xMax="739" yMax="652">
      <contour>
        <pt x="502" y="333" on="1"/>
        <pt x="498" y="516" on="1"/>
        <pt x="496" y="542" on="0"/>
        <pt x="483" y="559" on="0"/>
        <pt x="465" y="559" on="1"/>
        <pt x="434" y="559" on="1"/>
        <pt x="429" y="570" on="1"/>
        <pt x="434" y="651" on="1"/>
        <pt x="465" y="650" on="0"/>
        <pt x="496" y="649" on="1"/>
        <pt x="522" y="648" on="0"/>
        <pt x="579" y="647" on="0"/>
        <pt x="600" y="647" on="1"/>
        <pt x="621" y="647" on="0"/>
        <pt x="670" y="648" on="0"/>
        <pt x="711" y="649" on="0"/>
        <pt x="739" y="650" on="0"/>
        <pt x="739" y="650" on="1"/>
        <pt x="734" y="560" on="1"/>
        <pt x="702" y="555" on="0"/>
        <pt x="677" y="528" on="0"/>
        <pt x="676" y="497" on="1"/>
        <pt x="663" y="0" on="1"/>
        <pt x="475" y="-12" on="1"/>
        <pt x="433" y="58" on="0"/>
        <pt x="358" y="176" on="0"/>
        <pt x="330" y="221" on="1"/>
        <pt x="297" y="272" on="0"/>
        <pt x="270" y="315" on="1"/>
        <pt x="255" y="315" on="1"/>
        <pt x="258" y="137" on="1"/>
        <pt x="259" y="108" on="0"/>
        <pt x="275" y="86" on="0"/>
        <pt x="297" y="86" on="1"/>
        <pt x="302" y="86" on="0"/>
        <pt x="313" y="87" on="0"/>
        <pt x="318" y="88" on="1"/>
        <pt x="324" y="89" on="0"/>
        <pt x="331" y="90" on="1"/>
        <pt x="340" y="81" on="1"/>
        <pt x="329" y="-4" on="1"/>
        <pt x="297" y="-3" on="0"/>
        <pt x="268" y="-2" on="1"/>
        <pt x="243" y="-1" on="0"/>
        <pt x="191" y="0" on="0"/>
        <pt x="175" y="0" on="1"/>
        <pt x="149" y="0" on="0"/>
        <pt x="95" y="-2" on="0"/>
        <pt x="72" y="-4" on="1"/>
        <pt x="46" y="-6" on="0"/>
        <pt x="21" y="-8" on="1"/>
        <pt x="31" y="82" on="1"/>
        <pt x="60" y="86" on="0"/>
        <pt x="87" y="115" on="0"/>
        <pt x="88" y="145" on="1"/>
        <pt x="100" y="494" on="1"/>
        <pt x="100" y="511" on="0"/>
        <pt x="94" y="533" on="0"/>
        <pt x="78" y="547" on="0"/>
        <pt x="49" y="554" on="0"/>
        <pt x="25" y="557" on="1"/>
        <pt x="13" y="571" on="1"/>
        <pt x="19" y="652" on="1"/>
        <pt x="41" y="650" on="0"/>
        <pt x="66" y="649" on="1"/>
        <pt x="87" y="648" on="0"/>
        <pt x="139" y="647" on="0"/>
        <pt x="167" y="647" on="1"/>
        <pt x="187" y="647" on="0"/>
        <pt x="232" y="648" on="0"/>
        <pt x="251" y="649" on="1"/>
        <pt x="273" y="650" on="0"/>
        <pt x="295" y="651" on="1"/>
        <pt x="329" y="590" on="0"/>
        <pt x="397" y="476" on="0"/>
        <pt x="425" y="431" on="1"/>
        <pt x="458" y="379" on="0"/>
        <pt x="487" y="333" on="1"/>
      </contour>
    </TTGlyph>
    <TTGlyph name="Nacute" xMin="13" yMin="-12" xMax="739" yMax="875">
      <component glyphName="N" x="0" y="0" flags="0x204"/>
      <component glyphName="acute.cap" x="204" y="0" flags="0x4"/>
    </TTGlyph>
    <TTGlyph name="Ncaron" xMin="13" yMin="-12" xMax="739" yMax="895">
      <component glyphName="N" x="0" y="0" flags="0x204"/>
      <component glyphName="caron.cap" x="185" y="0" flags="0x4"/>
    </TTGlyph>
    <TTGlyph name="Ncommaaccent" xMin="13" yMin="-345" xMax="739" yMax="652">
      <component glyphName="N" x="0" y="0" flags="0x204"/>
      <component glyphName="commaaccent" x="186" y="0" flags="0x4"/>
    </TTGlyph>
    <TTGlyph name="Ntilde" xMin="13" yMin="-12" xMax="739" yMax="888">
      <component glyphName="N" x="0" y="0" flags="0x204"/>
      <component glyphName="tilde.cap" x="185" y="0" flags="0x4"/>
    </TTGlyph>
    <TTGlyph name="O" xMin="15" yMin="-12" xMax="640" yMax="659">
      <contour>
        <pt x="332" y="114" on="1"/>
        <pt x="375" y="114" on="0"/>
        <pt x="411" y="188" on="0"/>
        <pt x="411" y="277" on="1"/>
        <pt x="411" y="345" on="0"/>
        <pt x="402" y="439" on="0"/>
        <pt x="381" y="497" on="0"/>
        <pt x="346" y="522" on="0"/>
        <pt x="321" y="522" on="1"/>
        <pt x="279" y="522" on="0"/>
        <pt x="244" y="449" on="0"/>
        <pt x="244" y="361" on="1"/>
        <pt x="244" y="293" on="0"/>
        <pt x="253" y="198" on="0"/>
        <pt x="274" y="140" on="0"/>
        <pt x="308" y="114" on="0"/>
      </contour>
      <contour>
        <pt x="313" y="-12" on="1"/>
        <pt x="167" y="-12" on="0"/>
        <pt x="15" y="154" on="0"/>
        <pt x="15" y="312" on="1"/>
        <pt x="15" y="481" on="0"/>
        <pt x="182" y="659" on="0"/>
        <pt x="342" y="659" on="1"/>
        <pt x="640" y="659" on="0"/>
        <pt x="640" y="340" on="1"/>
        <pt x="640" y="170" on="0"/>
        <pt x="471" y="-12" on="0"/>
      </contour>
    </TTGlyph>
    <TTGlyph name="OE" xMin="15" yMin="-10" xMax="900" yMax="659">
      <contour>
        <pt x="596" y="175" on="1"/>
        <pt x="596" y="155" on="0"/>
        <pt x="599" y="132" on="0"/>
        <pt x="609" y="119" on="0"/>
        <pt x="628" y="115" on="0"/>
        <pt x="644" y="115" on="1"/>
        <pt x="677" y="115" on="0"/>
        <pt x="718" y="123" on="0"/>
        <pt x="743" y="146" on="0"/>
        <pt x="756" y="188" on="0"/>
        <pt x="760" y="221" on="1"/>
        <pt x="888" y="230" on="1"/>
        <pt x="900" y="215" on="1"/>
        <pt x="895" y="186" on="0"/>
        <pt x="890" y="153" on="1"/>
        <pt x="885" y="124" on="0"/>
        <pt x="876" y="50" on="0"/>
        <pt x="872" y="9" on="1"/>
        <pt x="857" y="-7" on="1"/>
        <pt x="808" y="-5" on="0"/>
        <pt x="753" y="-2" on="1"/>
        <pt x="706" y="0" on="0"/>
        <pt x="591" y="3" on="0"/>
        <pt x="533" y="3" on="1"/>
        <pt x="476" y="3" on="0"/>
        <pt x="360" y="-10" on="0"/>
        <pt x="318" y="-10" on="1"/>
        <pt x="172" y="-10" on="0"/>
        <pt x="15" y="154" on="0"/>
        <pt x="15" y="312" on="1"/>
        <pt x="15" y="481" on="0"/>
        <pt x="177" y="650" on="0"/>
        <pt x="337" y="650" on="1"/>
        <pt x="386" y="650" on="0"/>
        <pt x="497" y="638" on="0"/>
        <pt x="566" y="638" on="1"/>
        <pt x="613" y="638" on="0"/>
        <pt x="709" y="643" on="0"/>
        <pt x="795" y="649" on="0"/>
        <pt x="865" y="656" on="0"/>
        <pt x="886" y="659" on="1"/>
        <pt x="899" y="643" on="1"/>
        <pt x="893" y="612" on="0"/>
        <pt x="889" y="579" on="1"/>
        <pt x="885" y="550" on="0"/>
        <pt x="878" y="479" on="0"/>
        <pt x="876" y="444" on="1"/>
        <pt x="738" y="435" on="1"/>
        <pt x="738" y="442" on="0"/>
        <pt x="739" y="449" on="1"/>
        <pt x="739" y="455" on="0"/>
        <pt x="740" y="467" on="0"/>
        <pt x="740" y="472" on="1"/>
        <pt x="740" y="489" on="0"/>
        <pt x="732" y="510" on="0"/>
        <pt x="711" y="522" on="0"/>
        <pt x="672" y="527" on="0"/>
        <pt x="642" y="527" on="1"/>
        <pt x="621" y="527" on="0"/>
        <pt x="608" y="517" on="0"/>
        <pt x="608" y="500" on="1"/>
        <pt x="602" y="387" on="1"/>
        <pt x="684" y="386" on="1"/>
        <pt x="695" y="386" on="0"/>
        <pt x="732" y="387" on="0"/>
        <pt x="750" y="389" on="1"/>
        <pt x="771" y="390" on="0"/>
        <pt x="794" y="392" on="1"/>
        <pt x="806" y="378" on="1"/>
        <pt x="792" y="263" on="1"/>
        <pt x="770" y="263" on="0"/>
        <pt x="749" y="264" on="1"/>
        <pt x="731" y="265" on="0"/>
        <pt x="689" y="266" on="0"/>
        <pt x="672" y="266" on="1"/>
        <pt x="597" y="260" on="1"/>
      </contour>
      <contour>
        <pt x="332" y="108" on="1"/>
        <pt x="367" y="108" on="0"/>
        <pt x="404" y="150" on="0"/>
        <pt x="404" y="196" on="1"/>
        <pt x="405" y="439" on="1"/>
        <pt x="405" y="489" on="0"/>
        <pt x="359" y="528" on="0"/>
        <pt x="322" y="528" on="1"/>
        <pt x="278" y="528" on="0"/>
        <pt x="242" y="453" on="0"/>
        <pt x="242" y="362" on="1"/>
        <pt x="242" y="292" on="0"/>
        <pt x="251" y="195" on="0"/>
        <pt x="272" y="135" on="0"/>
        <pt x="307" y="108" on="0"/>
      </contour>
    </TTGlyph>
    <TTGlyph name="Oacute" xMin="15" yMin="-12" xMax="640" yMax="875">
      <component glyphName="O" x="0" y="0" flags="0x204"/>
      <component glyphName="acute.cap" x="144" y="0" flags="0x4"/>
    </TTGlyph>
    <TTGlyph name="Obreve" xMin="15" yMin="-12" xMax="640" yMax="905">
      <component glyphName="O" x="0" y="0" flags="0x204"/>
      <component glyphName="breve" x="126" y="165" flags="0x4"/>
    </TTGlyph>
    <TTGlyph name="Ocircumflex" xMin="15" yMin="-12" xMax="640" yMax="910">
      <component glyphName="O" x="0" y="0" flags="0x204"/>
      <component glyphName="circumflex.cap" x="127" y="0" flags="0x4"/>
    </TTGlyph>
    <TTGlyph name="Odieresis" xMin="15" yMin="-12" xMax="640" yMax="852">
      <component glyphName="O" x="0" y="0" flags="0x204"/>
      <component glyphName="dieresis.cap" x="126" y="0" flags="0x4"/>
    </TTGlyph>
    <TTGlyph name="Ograve" xMin="15" yMin="-12" xMax="640" yMax="875">
      <component glyphName="O" x="0" y="0" flags="0x204"/>
      <component glyphName="grave.cap" x="113" y="0" flags="0x4"/>
    </TTGlyph>
    <TTGlyph name="Ohungarumlaut" xMin="15" yMin="-12" xMax="640" yMax="880">
      <component glyphName="O" x="0" y="0" flags="0x204"/>
      <component glyphName="hungarumlaut.cap" x="124" y="0" flags="0x4"/>
    </TTGlyph>
    <TTGlyph name="Omacron" xMin="15" yMin="-12" xMax="640" yMax="823">
      <component glyphName="O" x="0" y="0" flags="0x204"/>
      <component glyphName="macron.cap" x="125" y="0" flags="0x4"/>
    </TTGlyph>
    <TTGlyph name="Omega" xMin="5" yMin="-7" xMax="860" yMax="659">
      <contour>
        <pt x="836" y="-3" on="1"/>
        <pt x="546" y="3" on="1"/>
        <pt x="474" y="-7" on="1"/>
        <pt x="447" y="74" on="1"/>
        <pt x="469" y="94" on="0"/>
        <pt x="498" y="134" on="0"/>
        <pt x="513" y="189" on="0"/>
        <pt x="519" y="267" on="0"/>
        <pt x="519" y="325" on="1"/>
        <pt x="519" y="431" on="0"/>
        <pt x="486" y="522" on="0"/>
        <pt x="440" y="522" on="1"/>
        <pt x="395" y="522" on="0"/>
        <pt x="352" y="454" on="0"/>
        <pt x="352" y="371" on="1"/>
        <pt x="352" y="306" on="0"/>
        <pt x="359" y="211" on="0"/>
        <pt x="375" y="142" on="0"/>
        <pt x="402" y="93" on="0"/>
        <pt x="422" y="74" on="1"/>
        <pt x="396" y="-7" on="1"/>
        <pt x="324" y="3" on="1"/>
        <pt x="29" y="-3" on="1"/>
        <pt x="8" y="19" on="1"/>
        <pt x="8" y="54" on="0"/>
        <pt x="7" y="133" on="0"/>
        <pt x="6" y="167" on="1"/>
        <pt x="5" y="207" on="0"/>
        <pt x="5" y="246" on="1"/>
        <pt x="110" y="255" on="1"/>
        <pt x="115" y="183" on="0"/>
        <pt x="150" y="117" on="0"/>
        <pt x="188" y="112" on="1"/>
        <pt x="241" y="103" on="1"/>
        <pt x="181" y="160" on="0"/>
        <pt x="123" y="290" on="0"/>
        <pt x="123" y="367" on="1"/>
        <pt x="123" y="431" on="0"/>
        <pt x="170" y="539" on="0"/>
        <pt x="254" y="616" on="0"/>
        <pt x="370" y="659" on="0"/>
        <pt x="440" y="659" on="1"/>
        <pt x="509" y="659" on="0"/>
        <pt x="623" y="621" on="0"/>
        <pt x="704" y="552" on="0"/>
        <pt x="748" y="455" on="0"/>
        <pt x="748" y="396" on="1"/>
        <pt x="748" y="306" on="0"/>
        <pt x="686" y="165" on="0"/>
        <pt x="619" y="102" on="1"/>
        <pt x="677" y="112" on="1"/>
        <pt x="711" y="117" on="0"/>
        <pt x="746" y="178" on="0"/>
        <pt x="754" y="246" on="1"/>
        <pt x="860" y="255" on="1"/>
        <pt x="859" y="212" on="0"/>
        <pt x="858" y="171" on="1"/>
        <pt x="857" y="135" on="0"/>
        <pt x="857" y="54" on="0"/>
        <pt x="857" y="19" on="1"/>
      </contour>
    </TTGlyph>
    <TTGlyph name="Oslash" xMin="15" yMin="-117" xMax="649" yMax="752">
      <contour>
        <pt x="95" y="67" on="1"/>
        <pt x="15" y="150" on="0"/>
        <pt x="15" y="312" on="1"/>
        <pt x="15" y="481" on="0"/>
        <pt x="182" y="659" on="0"/>
        <pt x="342" y="659" on="1"/>
        <pt x="417" y="659" on="0"/>
        <pt x="474" y="638" on="1"/>
        <pt x="550" y="752" on="1"/>
        <pt x="647" y="698" on="1"/>
        <pt x="649" y="685" on="1"/>
        <pt x="572" y="571" on="1"/>
        <pt x="640" y="491" on="0"/>
        <pt x="640" y="340" on="1"/>
        <pt x="640" y="170" on="0"/>
        <pt x="471" y="-12" on="0"/>
        <pt x="313" y="-12" on="1"/>
        <pt x="248" y="-12" on="0"/>
        <pt x="195" y="5" on="1"/>
        <pt x="115" y="-117" on="1"/>
        <pt x="20" y="-62" on="1"/>
        <pt x="16" y="-52" on="1"/>
      </contour>
      <contour>
        <pt x="332" y="114" on="1"/>
        <pt x="375" y="114" on="0"/>
        <pt x="411" y="188" on="0"/>
        <pt x="411" y="277" on="1"/>
        <pt x="411" y="345" on="0"/>
        <pt x="402" y="439" on="0"/>
        <pt x="381" y="497" on="0"/>
        <pt x="346" y="522" on="0"/>
        <pt x="321" y="522" on="1"/>
        <pt x="279" y="522" on="0"/>
        <pt x="244" y="449" on="0"/>
        <pt x="244" y="361" on="1"/>
        <pt x="244" y="293" on="0"/>
        <pt x="253" y="198" on="0"/>
        <pt x="274" y="140" on="0"/>
        <pt x="308" y="114" on="0"/>
      </contour>
    </TTGlyph>
    <TTGlyph name="Oslashacute" xMin="15" yMin="-117" xMax="649" yMax="888">
      <component glyphName="Oslash" x="0" y="0" flags="0x204"/>
      <component glyphName="acute.cap" x="127" y="13" flags="0x4"/>
    </TTGlyph>
    <TTGlyph name="Otilde" xMin="15" yMin="-12" xMax="640" yMax="888">
      <component glyphName="O" x="0" y="0" flags="0x204"/>
      <component glyphName="tilde.cap" x="125" y="0" flags="0x4"/>
    </TTGlyph>
    <TTGlyph name="P" xMin="14" yMin="-9" xMax="621" yMax="653">
      <contour>
        <pt x="27" y="647" on="1"/>
        <pt x="170" y="647" on="1"/>
        <pt x="187" y="647" on="0"/>
        <pt x="248" y="648" on="0"/>
        <pt x="277" y="650" on="1"/>
        <pt x="311" y="651" on="0"/>
        <pt x="350" y="653" on="1"/>
        <pt x="410" y="653" on="0"/>
        <pt x="496" y="633" on="0"/>
        <pt x="557" y="600" on="0"/>
        <pt x="594" y="557" on="0"/>
        <pt x="614" y="510" on="0"/>
        <pt x="621" y="464" on="0"/>
        <pt x="621" y="445" on="1"/>
        <pt x="621" y="397" on="0"/>
        <pt x="581" y="311" on="0"/>
        <pt x="512" y="246" on="0"/>
        <pt x="421" y="208" on="0"/>
        <pt x="371" y="208" on="1"/>
        <pt x="285" y="208" on="1"/>
        <pt x="285" y="160" on="1"/>
        <pt x="285" y="119" on="0"/>
        <pt x="304" y="88" on="0"/>
        <pt x="335" y="88" on="1"/>
        <pt x="340" y="88" on="0"/>
        <pt x="352" y="88" on="0"/>
        <pt x="357" y="89" on="1"/>
        <pt x="362" y="89" on="0"/>
        <pt x="368" y="90" on="1"/>
        <pt x="373" y="82" on="1"/>
        <pt x="363" y="-4" on="1"/>
        <pt x="328" y="-3" on="0"/>
        <pt x="297" y="-2" on="1"/>
        <pt x="270" y="-1" on="0"/>
        <pt x="216" y="0" on="0"/>
        <pt x="200" y="0" on="1"/>
        <pt x="183" y="0" on="0"/>
        <pt x="121" y="-3" on="0"/>
        <pt x="90" y="-5" on="1"/>
        <pt x="54" y="-7" on="0"/>
        <pt x="14" y="-9" on="1"/>
        <pt x="23" y="83" on="1"/>
        <pt x="60" y="89" on="0"/>
        <pt x="88" y="126" on="0"/>
        <pt x="88" y="168" on="1"/>
        <pt x="88" y="505" on="1"/>
        <pt x="88" y="536" on="0"/>
        <pt x="77" y="559" on="0"/>
        <pt x="62" y="559" on="1"/>
        <pt x="56" y="559" on="0"/>
        <pt x="44" y="558" on="0"/>
        <pt x="39" y="558" on="1"/>
        <pt x="33" y="557" on="0"/>
        <pt x="27" y="557" on="1"/>
        <pt x="17" y="569" on="1"/>
      </contour>
      <contour>
        <pt x="356" y="321" on="1"/>
        <pt x="386" y="332" on="0"/>
        <pt x="415" y="387" on="0"/>
        <pt x="415" y="435" on="1"/>
        <pt x="415" y="484" on="0"/>
        <pt x="366" y="528" on="0"/>
        <pt x="312" y="528" on="1"/>
        <pt x="301" y="528" on="0"/>
        <pt x="296" y="520" on="0"/>
        <pt x="295" y="506" on="1"/>
        <pt x="293" y="468" on="0"/>
        <pt x="289" y="379" on="0"/>
        <pt x="287" y="331" on="1"/>
      </contour>
    </TTGlyph>
    <TTGlyph name="Q" xMin="15" yMin="-242" xMax="829" yMax="659">
      <contour>
        <pt x="313" y="-12" on="1"/>
        <pt x="167" y="-12" on="0"/>
        <pt x="15" y="154" on="0"/>
        <pt x="15" y="312" on="1"/>
        <pt x="15" y="481" on="0"/>
        <pt x="182" y="659" on="0"/>
        <pt x="342" y="659" on="1"/>
        <pt x="640" y="659" on="0"/>
        <pt x="640" y="340" on="1"/>
        <pt x="640" y="234" on="0"/>
        <pt x="557" y="76" on="0"/>
        <pt x="485" y="32" on="1"/>
        <pt x="485" y="18" on="1"/>
        <pt x="539" y="-24" on="0"/>
        <pt x="660" y="-72" on="0"/>
        <pt x="709" y="-72" on="1"/>
        <pt x="743" y="-72" on="0"/>
        <pt x="771" y="-67" on="1"/>
        <pt x="786" y="-65" on="0"/>
        <pt x="800" y="-62" on="1"/>
        <pt x="812" y="-73" on="1"/>
        <pt x="829" y="-141" on="1"/>
        <pt x="789" y="-170" on="0"/>
        <pt x="755" y="-192" on="1"/>
        <pt x="740" y="-201" on="0"/>
        <pt x="710" y="-219" on="0"/>
        <pt x="682" y="-233" on="0"/>
        <pt x="660" y="-242" on="0"/>
        <pt x="653" y="-242" on="1"/>
        <pt x="622" y="-242" on="0"/>
        <pt x="566" y="-225" on="0"/>
        <pt x="493" y="-175" on="0"/>
        <pt x="390" y="-85" on="0"/>
      </contour>
      <contour>
        <pt x="332" y="114" on="1"/>
        <pt x="375" y="114" on="0"/>
        <pt x="411" y="188" on="0"/>
        <pt x="411" y="277" on="1"/>
        <pt x="411" y="345" on="0"/>
        <pt x="402" y="439" on="0"/>
        <pt x="381" y="497" on="0"/>
        <pt x="346" y="522" on="0"/>
        <pt x="321" y="522" on="1"/>
        <pt x="279" y="522" on="0"/>
        <pt x="244" y="449" on="0"/>
        <pt x="244" y="361" on="1"/>
        <pt x="244" y="293" on="0"/>
        <pt x="253" y="198" on="0"/>
        <pt x="274" y="140" on="0"/>
        <pt x="308" y="114" on="0"/>
      </contour>
    </TTGlyph>
    <TTGlyph name="R" xMin="14" yMin="-16" xMax="681" yMax="653">
      <contour>
        <pt x="285" y="228" on="1"/>
        <pt x="285" y="160" on="1"/>
        <pt x="285" y="137" on="0"/>
        <pt x="289" y="109" on="0"/>
        <pt x="304" y="94" on="0"/>
        <pt x="332" y="89" on="0"/>
        <pt x="356" y="88" on="1"/>
        <pt x="361" y="80" on="1"/>
        <pt x="351" y="-4" on="1"/>
        <pt x="317" y="-3" on="0"/>
        <pt x="285" y="-2" on="1"/>
        <pt x="258" y="-1" on="0"/>
        <pt x="203" y="0" on="0"/>
        <pt x="187" y="0" on="1"/>
        <pt x="159" y="0" on="0"/>
        <pt x="99" y="-3" on="0"/>
        <pt x="73" y="-5" on="1"/>
        <pt x="43" y="-7" on="0"/>
        <pt x="14" y="-9" on="1"/>
        <pt x="23" y="83" on="1"/>
        <pt x="60" y="89" on="0"/>
        <pt x="88" y="126" on="0"/>
        <pt x="88" y="168" on="1"/>
        <pt x="88" y="515" on="1"/>
        <pt x="88" y="540" on="0"/>
        <pt x="77" y="559" on="0"/>
        <pt x="62" y="559" on="1"/>
        <pt x="56" y="559" on="0"/>
        <pt x="44" y="558" on="0"/>
        <pt x="39" y="558" on="1"/>
        <pt x="33" y="557" on="0"/>
        <pt x="27" y="557" on="1"/>
        <pt x="17" y="569" on="1"/>
        <pt x="28" y="648" on="1"/>
        <pt x="58" y="647" on="0"/>
        <pt x="84" y="647" on="1"/>
        <pt x="170" y="647" on="1"/>
        <pt x="188" y="647" on="0"/>
        <pt x="250" y="648" on="0"/>
        <pt x="280" y="650" on="1"/>
        <pt x="315" y="651" on="0"/>
        <pt x="355" y="653" on="1"/>
        <pt x="631" y="653" on="0"/>
        <pt x="631" y="465" on="1"/>
        <pt x="631" y="347" on="0"/>
        <pt x="511" y="276" on="1"/>
        <pt x="573" y="172" on="1"/>
        <pt x="625" y="84" on="0"/>
        <pt x="670" y="84" on="1"/>
        <pt x="681" y="68" on="1"/>
        <pt x="672" y="-5" on="1"/>
        <pt x="517" y="-16" on="1"/>
        <pt x="475" y="-16" on="0"/>
        <pt x="423" y="25" on="0"/>
        <pt x="403" y="75" on="1"/>
        <pt x="341" y="228" on="1"/>
      </contour>
      <contour>
        <pt x="364" y="344" on="1"/>
        <pt x="398" y="358" on="0"/>
        <pt x="425" y="402" on="0"/>
        <pt x="425" y="445" on="1"/>
        <pt x="425" y="488" on="0"/>
        <pt x="371" y="528" on="0"/>
        <pt x="312" y="528" on="1"/>
        <pt x="301" y="528" on="0"/>
        <pt x="296" y="520" on="0"/>
        <pt x="295" y="506" on="1"/>
        <pt x="292" y="468" on="0"/>
        <pt x="289" y="392" on="0"/>
        <pt x="288" y="354" on="1"/>
      </contour>
    </TTGlyph>
    <TTGlyph name="Racute" xMin="14" yMin="-16" xMax="681" yMax="875">
      <component glyphName="R" x="0" y="0" flags="0x204"/>
      <component glyphName="acute.cap" x="162" y="0" flags="0x4"/>
    </TTGlyph>
    <TTGlyph name="Rcaron" xMin="14" yMin="-16" xMax="681" yMax="895">
      <component glyphName="R" x="0" y="0" flags="0x204"/>
      <component glyphName="caron.cap" x="143" y="0" flags="0x4"/>
    </TTGlyph>
    <TTGlyph name="Rcommaaccent" xMin="14" yMin="-345" xMax="681" yMax="653">
      <component glyphName="R" x="0" y="0" flags="0x204"/>
      <component glyphName="commaaccent" x="151" y="0" flags="0x4"/>
    </TTGlyph>
    <TTGlyph name="S" xMin="13" yMin="-12" xMax="535" yMax="659">
      <contour>
        <pt x="222" y="-12" on="1"/>
        <pt x="177" y="-12" on="0"/>
        <pt x="106" y="1" on="0"/>
        <pt x="80" y="9" on="1"/>
        <pt x="49" y="19" on="0"/>
        <pt x="25" y="31" on="1"/>
        <pt x="13" y="49" on="1"/>
        <pt x="18" y="78" on="0"/>
        <pt x="22" y="107" on="1"/>
        <pt x="26" y="132" on="0"/>
        <pt x="32" y="189" on="0"/>
        <pt x="34" y="214" on="1"/>
        <pt x="160" y="223" on="1"/>
        <pt x="160" y="169" on="0"/>
        <pt x="205" y="121" on="0"/>
        <pt x="248" y="121" on="1"/>
        <pt x="279" y="121" on="0"/>
        <pt x="314" y="143" on="0"/>
        <pt x="314" y="162" on="1"/>
        <pt x="314" y="178" on="0"/>
        <pt x="290" y="204" on="0"/>
        <pt x="249" y="226" on="0"/>
        <pt x="198" y="247" on="0"/>
        <pt x="171" y="259" on="1"/>
        <pt x="142" y="272" on="0"/>
        <pt x="88" y="304" on="0"/>
        <pt x="44" y="348" on="0"/>
        <pt x="18" y="406" on="0"/>
        <pt x="18" y="445" on="1"/>
        <pt x="18" y="493" on="0"/>
        <pt x="62" y="572" on="0"/>
        <pt x="143" y="628" on="0"/>
        <pt x="257" y="659" on="0"/>
        <pt x="326" y="659" on="1"/>
        <pt x="368" y="659" on="0"/>
        <pt x="437" y="650" on="0"/>
        <pt x="463" y="645" on="1"/>
        <pt x="493" y="639" on="0"/>
        <pt x="517" y="631" on="1"/>
        <pt x="529" y="609" on="1"/>
        <pt x="523" y="584" on="0"/>
        <pt x="518" y="556" on="1"/>
        <pt x="513" y="532" on="0"/>
        <pt x="505" y="469" on="0"/>
        <pt x="502" y="435" on="1"/>
        <pt x="386" y="427" on="1"/>
        <pt x="374" y="435" on="1"/>
        <pt x="374" y="451" on="1"/>
        <pt x="374" y="521" on="0"/>
        <pt x="301" y="521" on="1"/>
        <pt x="273" y="521" on="0"/>
        <pt x="238" y="496" on="0"/>
        <pt x="238" y="476" on="1"/>
        <pt x="238" y="461" on="0"/>
        <pt x="259" y="437" on="0"/>
        <pt x="294" y="416" on="0"/>
        <pt x="339" y="397" on="0"/>
        <pt x="364" y="387" on="1"/>
        <pt x="394" y="374" on="0"/>
        <pt x="455" y="343" on="0"/>
        <pt x="504" y="299" on="0"/>
        <pt x="535" y="239" on="0"/>
        <pt x="535" y="197" on="1"/>
        <pt x="535" y="148" on="0"/>
        <pt x="492" y="71" on="0"/>
        <pt x="411" y="17" on="0"/>
        <pt x="295" y="-12" on="0"/>
      </contour>
    </TTGlyph>
    <TTGlyph name="Sacute" xMin="79" yMin="-12" xMax="601" yMax="875">
      <component glyphName="S" x="66" y="0" flags="0x204"/>
      <component glyphName="acute.cap" x="107" y="0" flags="0x4"/>
    </TTGlyph>
    <TTGlyph name="Scaron" xMin="79" yMin="-12" xMax="601" yMax="895">
      <component glyphName="S" x="66" y="0" flags="0x204"/>
      <component glyphName="caron.cap" x="88" y="0" flags="0x4"/>
    </TTGlyph>
    <TTGlyph name="Scedilla" xMin="79" yMin="-242" xMax="601" yMax="659">
      <contour>
        <pt x="220" y="-7" on="1"/>
        <pt x="190" y="-3" on="0"/>
        <pt x="143" y="10" on="0"/>
        <pt x="126" y="16" on="1"/>
        <pt x="107" y="23" on="0"/>
        <pt x="91" y="31" on="1"/>
        <pt x="79" y="49" on="1"/>
        <pt x="84" y="78" on="0"/>
        <pt x="88" y="107" on="1"/>
        <pt x="92" y="132" on="0"/>
        <pt x="98" y="189" on="0"/>
        <pt x="100" y="214" on="1"/>
        <pt x="226" y="223" on="1"/>
        <pt x="226" y="169" on="0"/>
        <pt x="271" y="121" on="0"/>
        <pt x="314" y="121" on="1"/>
        <pt x="345" y="121" on="0"/>
        <pt x="380" y="143" on="0"/>
        <pt x="380" y="162" on="1"/>
        <pt x="380" y="178" on="0"/>
        <pt x="356" y="204" on="0"/>
        <pt x="315" y="226" on="0"/>
        <pt x="264" y="247" on="0"/>
        <pt x="237" y="259" on="1"/>
        <pt x="208" y="272" on="0"/>
        <pt x="154" y="304" on="0"/>
        <pt x="110" y="348" on="0"/>
        <pt x="84" y="406" on="0"/>
        <pt x="84" y="445" on="1"/>
        <pt x="84" y="493" on="0"/>
        <pt x="128" y="572" on="0"/>
        <pt x="209" y="628" on="0"/>
        <pt x="323" y="659" on="0"/>
        <pt x="392" y="659" on="1"/>
        <pt x="434" y="659" on="0"/>
        <pt x="503" y="650" on="0"/>
        <pt x="529" y="645" on="1"/>
        <pt x="559" y="639" on="0"/>
        <pt x="583" y="631" on="1"/>
        <pt x="595" y="609" on="1"/>
        <pt x="589" y="584" on="0"/>
        <pt x="584" y="556" on="1"/>
        <pt x="579" y="532" on="0"/>
        <pt x="571" y="469" on="0"/>
        <pt x="568" y="435" on="1"/>
        <pt x="452" y="427" on="1"/>
        <pt x="440" y="435" on="1"/>
        <pt x="440" y="451" on="1"/>
        <pt x="440" y="521" on="0"/>
        <pt x="367" y="521" on="1"/>
        <pt x="339" y="521" on="0"/>
        <pt x="304" y="496" on="0"/>
        <pt x="304" y="476" on="1"/>
        <pt x="304" y="461" on="0"/>
        <pt x="325" y="437" on="0"/>
        <pt x="360" y="416" on="0"/>
        <pt x="405" y="397" on="0"/>
        <pt x="430" y="387" on="1"/>
        <pt x="460" y="374" on="0"/>
        <pt x="521" y="343" on="0"/>
        <pt x="570" y="299" on="0"/>
        <pt x="601" y="239" on="0"/>
        <pt x="601" y="197" on="1"/>
        <pt x="601" y="148" on="0"/>
        <pt x="558" y="71" on="0"/>
        <pt x="477" y="17" on="0"/>
        <pt x="361" y="-12" on="0"/>
        <pt x="288" y="-12" on="1"/>
        <pt x="281" y="-12" on="1"/>
        <pt x="276" y="-38" on="1"/>
        <pt x="292" y="-46" on="0"/>
        <pt x="329" y="-68" on="0"/>
        <pt x="362" y="-95" on="0"/>
        <pt x="384" y="-126" on="0"/>
        <pt x="384" y="-143" on="1"/>
        <pt x="384" y="-164" on="0"/>
        <pt x="361" y="-200" on="0"/>
        <pt x="321" y="-227" on="0"/>
        <pt x="267" y="-242" on="0"/>
        <pt x="236" y="-242" on="1"/>
        <pt x="221" y="-242" on="0"/>
        <pt x="190" y="-235" on="0"/>
        <pt x="165" y="-222" on="0"/>
        <pt x="148" y="-202" on="0"/>
        <pt x="148" y="-190" on="1"/>
        <pt x="148" y="-184" on="0"/>
        <pt x="158" y="-166" on="0"/>
        <pt x="172" y="-147" on="0"/>
        <pt x="189" y="-128" on="0"/>
        <pt x="197" y="-120" on="1"/>
        <pt x="206" y="-120" on="1"/>
        <pt x="207" y="-148" on="0"/>
        <pt x="234" y="-176" on="0"/>
        <pt x="255" y="-176" on="1"/>
        <pt x="287" y="-176" on="0"/>
        <pt x="287" y="-153" on="1"/>
        <pt x="287" y="-145" on="0"/>
        <pt x="271" y="-127" on="0"/>
        <pt x="245" y="-110" on="0"/>
        <pt x="215" y="-94" on="0"/>
        <pt x="200" y="-87" on="1"/>
      </contour>
    </TTGlyph>
    <TTGlyph name="Scircumflex" xMin="13" yMin="-12" xMax="535" yMax="934">
      <component glyphName="S" x="0" y="0" flags="0x204"/>
      <component glyphName="circumflex" x="94" y="174" flags="0x4"/>
    </TTGlyph>
    <TTGlyph name="Scommaaccent" xMin="79" yMin="-345" xMax="601" yMax="659">
      <component glyphName="S" x="66" y="0" flags="0x204"/>
      <component glyphName="commaaccent" x="56" y="0" flags="0x4"/>
    </TTGlyph>
    <TTGlyph name="T" xMin="0" yMin="-9" xMax="593" yMax="658">
      <contour>
        <pt x="197" y="526" on="1"/>
        <pt x="176" y="526" on="0"/>
        <pt x="151" y="515" on="0"/>
        <pt x="136" y="485" on="0"/>
        <pt x="127" y="432" on="0"/>
        <pt x="124" y="390" on="1"/>
        <pt x="0" y="382" on="1"/>
        <pt x="2" y="425" on="0"/>
        <pt x="4" y="470" on="1"/>
        <pt x="6" y="508" on="0"/>
        <pt x="7" y="601" on="0"/>
        <pt x="8" y="644" on="1"/>
        <pt x="21" y="658" on="1"/>
        <pt x="140" y="647" on="1"/>
        <pt x="454" y="647" on="1"/>
        <pt x="575" y="658" on="1"/>
        <pt x="588" y="644" on="1"/>
        <pt x="588" y="599" on="0"/>
        <pt x="590" y="510" on="0"/>
        <pt x="591" y="473" on="1"/>
        <pt x="592" y="430" on="0"/>
        <pt x="593" y="390" on="1"/>
        <pt x="469" y="382" on="1"/>
        <pt x="465" y="428" on="0"/>
        <pt x="458" y="485" on="0"/>
        <pt x="444" y="516" on="0"/>
        <pt x="420" y="526" on="0"/>
        <pt x="400" y="526" on="1"/>
        <pt x="398" y="451" on="0"/>
        <pt x="395" y="260" on="0"/>
        <pt x="395" y="160" on="1"/>
        <pt x="395" y="122" on="0"/>
        <pt x="418" y="91" on="0"/>
        <pt x="447" y="91" on="1"/>
        <pt x="456" y="91" on="0"/>
        <pt x="474" y="91" on="0"/>
        <pt x="482" y="92" on="1"/>
        <pt x="491" y="93" on="0"/>
        <pt x="498" y="94" on="1"/>
        <pt x="503" y="88" on="1"/>
        <pt x="494" y="-6" on="1"/>
        <pt x="453" y="-5" on="0"/>
        <pt x="414" y="-3" on="1"/>
        <pt x="381" y="-2" on="0"/>
        <pt x="312" y="0" on="0"/>
        <pt x="291" y="0" on="1"/>
        <pt x="267" y="0" on="0"/>
        <pt x="198" y="-3" on="0"/>
        <pt x="166" y="-5" on="1"/>
        <pt x="129" y="-7" on="0"/>
        <pt x="90" y="-9" on="1"/>
        <pt x="98" y="83" on="1"/>
        <pt x="129" y="86" on="0"/>
        <pt x="167" y="95" on="0"/>
        <pt x="189" y="114" on="0"/>
        <pt x="197" y="145" on="0"/>
        <pt x="197" y="168" on="1"/>
      </contour>
    </TTGlyph>
    <TTGlyph name="Tbar" xMin="0" yMin="-9" xMax="593" yMax="658">
      <contour>
        <pt x="197" y="252" on="1"/>
        <pt x="181" y="251" on="0"/>
        <pt x="154" y="251" on="0"/>
        <pt x="143" y="251" on="1"/>
        <pt x="120" y="251" on="1"/>
        <pt x="109" y="261" on="1"/>
        <pt x="117" y="319" on="1"/>
        <pt x="128" y="318" on="0"/>
        <pt x="141" y="318" on="1"/>
        <pt x="197" y="318" on="1"/>
        <pt x="197" y="526" on="1"/>
        <pt x="176" y="526" on="0"/>
        <pt x="151" y="515" on="0"/>
        <pt x="136" y="485" on="0"/>
        <pt x="127" y="432" on="0"/>
        <pt x="124" y="390" on="1"/>
        <pt x="0" y="382" on="1"/>
        <pt x="2" y="425" on="0"/>
        <pt x="4" y="470" on="1"/>
        <pt x="6" y="508" on="0"/>
        <pt x="7" y="601" on="0"/>
        <pt x="8" y="644" on="1"/>
        <pt x="21" y="658" on="1"/>
        <pt x="140" y="647" on="1"/>
        <pt x="454" y="647" on="1"/>
        <pt x="575" y="658" on="1"/>
        <pt x="588" y="644" on="1"/>
        <pt x="588" y="599" on="0"/>
        <pt x="590" y="510" on="0"/>
        <pt x="591" y="473" on="1"/>
        <pt x="592" y="430" on="0"/>
        <pt x="593" y="390" on="1"/>
        <pt x="469" y="382" on="1"/>
        <pt x="465" y="428" on="0"/>
        <pt x="458" y="485" on="0"/>
        <pt x="444" y="516" on="0"/>
        <pt x="420" y="526" on="0"/>
        <pt x="400" y="526" on="1"/>
        <pt x="398" y="481" on="0"/>
        <pt x="396" y="376" on="0"/>
        <pt x="395" y="319" on="1"/>
        <pt x="409" y="319" on="0"/>
        <pt x="436" y="320" on="0"/>
        <pt x="446" y="321" on="1"/>
        <pt x="457" y="322" on="0"/>
        <pt x="467" y="322" on="1"/>
        <pt x="482" y="307" on="1"/>
        <pt x="477" y="252" on="1"/>
        <pt x="395" y="252" on="1"/>
        <pt x="395" y="160" on="1"/>
        <pt x="395" y="122" on="0"/>
        <pt x="418" y="91" on="0"/>
        <pt x="447" y="91" on="1"/>
        <pt x="456" y="91" on="0"/>
        <pt x="474" y="91" on="0"/>
        <pt x="482" y="92" on="1"/>
        <pt x="491" y="93" on="0"/>
        <pt x="498" y="94" on="1"/>
        <pt x="503" y="88" on="1"/>
        <pt x="494" y="-6" on="1"/>
        <pt x="453" y="-5" on="0"/>
        <pt x="414" y="-3" on="1"/>
        <pt x="381" y="-2" on="0"/>
        <pt x="312" y="0" on="0"/>
        <pt x="291" y="0" on="1"/>
        <pt x="267" y="0" on="0"/>
        <pt x="198" y="-3" on="0"/>
        <pt x="166" y="-5" on="1"/>
        <pt x="129" y="-7" on="0"/>
        <pt x="90" y="-9" on="1"/>
        <pt x="98" y="83" on="1"/>
        <pt x="129" y="86" on="0"/>
        <pt x="167" y="95" on="0"/>
        <pt x="189" y="114" on="0"/>
        <pt x="197" y="145" on="0"/>
        <pt x="197" y="168" on="1"/>
      </contour>
    </TTGlyph>
    <TTGlyph name="Tcaron" xMin="0" yMin="-9" xMax="593" yMax="895">
      <component glyphName="T" x="0" y="0" flags="0x204"/>
      <component glyphName="caron.cap" x="101" y="0" flags="0x4"/>
    </TTGlyph>
    <TTGlyph name="Tcedilla" xMin="0" yMin="-242" xMax="593" yMax="658">
      <contour>
        <pt x="261" y="0" on="1"/>
        <pt x="235" y="-1" on="0"/>
        <pt x="176" y="-3" on="0"/>
        <pt x="150" y="-5" on="1"/>
        <pt x="120" y="-7" on="0"/>
        <pt x="90" y="-9" on="1"/>
        <pt x="98" y="83" on="1"/>
        <pt x="129" y="86" on="0"/>
        <pt x="167" y="95" on="0"/>
        <pt x="189" y="114" on="0"/>
        <pt x="197" y="145" on="0"/>
        <pt x="197" y="168" on="1"/>
        <pt x="197" y="526" on="1"/>
        <pt x="176" y="526" on="0"/>
        <pt x="151" y="515" on="0"/>
        <pt x="136" y="485" on="0"/>
        <pt x="127" y="432" on="0"/>
        <pt x="124" y="390" on="1"/>
        <pt x="0" y="382" on="1"/>
        <pt x="2" y="425" on="0"/>
        <pt x="4" y="470" on="1"/>
        <pt x="6" y="508" on="0"/>
        <pt x="7" y="601" on="0"/>
        <pt x="8" y="644" on="1"/>
        <pt x="21" y="658" on="1"/>
        <pt x="140" y="647" on="1"/>
        <pt x="454" y="647" on="1"/>
        <pt x="575" y="658" on="1"/>
        <pt x="588" y="644" on="1"/>
        <pt x="588" y="599" on="0"/>
        <pt x="590" y="510" on="0"/>
        <pt x="591" y="473" on="1"/>
        <pt x="592" y="430" on="0"/>
        <pt x="593" y="390" on="1"/>
        <pt x="469" y="382" on="1"/>
        <pt x="465" y="428" on="0"/>
        <pt x="458" y="485" on="0"/>
        <pt x="444" y="516" on="0"/>
        <pt x="420" y="526" on="0"/>
        <pt x="400" y="526" on="1"/>
        <pt x="398" y="451" on="0"/>
        <pt x="395" y="260" on="0"/>
        <pt x="395" y="160" on="1"/>
        <pt x="395" y="122" on="0"/>
        <pt x="418" y="91" on="0"/>
        <pt x="447" y="91" on="1"/>
        <pt x="456" y="91" on="0"/>
        <pt x="474" y="91" on="0"/>
        <pt x="482" y="92" on="1"/>
        <pt x="491" y="93" on="0"/>
        <pt x="498" y="94" on="1"/>
        <pt x="503" y="88" on="1"/>
        <pt x="494" y="-6" on="1"/>
        <pt x="464" y="-5" on="0"/>
        <pt x="434" y="-4" on="1"/>
        <pt x="408" y="-3" on="0"/>
        <pt x="348" y="-1" on="0"/>
        <pt x="323" y="0" on="1"/>
        <pt x="315" y="-38" on="1"/>
        <pt x="331" y="-46" on="0"/>
        <pt x="368" y="-68" on="0"/>
        <pt x="401" y="-95" on="0"/>
        <pt x="423" y="-126" on="0"/>
        <pt x="423" y="-143" on="1"/>
        <pt x="423" y="-164" on="0"/>
        <pt x="400" y="-200" on="0"/>
        <pt x="360" y="-227" on="0"/>
        <pt x="306" y="-242" on="0"/>
        <pt x="275" y="-242" on="1"/>
        <pt x="260" y="-242" on="0"/>
        <pt x="229" y="-235" on="0"/>
        <pt x="204" y="-222" on="0"/>
        <pt x="187" y="-202" on="0"/>
        <pt x="187" y="-190" on="1"/>
        <pt x="187" y="-184" on="0"/>
        <pt x="197" y="-166" on="0"/>
        <pt x="211" y="-147" on="0"/>
        <pt x="228" y="-128" on="0"/>
        <pt x="236" y="-120" on="1"/>
        <pt x="245" y="-120" on="1"/>
        <pt x="246" y="-148" on="0"/>
        <pt x="273" y="-176" on="0"/>
        <pt x="294" y="-176" on="1"/>
        <pt x="326" y="-176" on="0"/>
        <pt x="326" y="-153" on="1"/>
        <pt x="326" y="-145" on="0"/>
        <pt x="310" y="-127" on="0"/>
        <pt x="284" y="-110" on="0"/>
        <pt x="254" y="-94" on="0"/>
        <pt x="239" y="-87" on="1"/>
      </contour>
    </TTGlyph>
    <TTGlyph name="Thorn" xMin="15" yMin="-5" xMax="605" yMax="652">
      <contour>
        <pt x="295" y="527" on="1"/>
        <pt x="295" y="525" on="0"/>
        <pt x="294" y="523" on="0"/>
        <pt x="294" y="522" on="1"/>
        <pt x="363" y="522" on="1"/>
        <pt x="488" y="522" on="0"/>
        <pt x="605" y="429" on="0"/>
        <pt x="605" y="331" on="1"/>
        <pt x="605" y="288" on="0"/>
        <pt x="569" y="218" on="0"/>
        <pt x="503" y="167" on="0"/>
        <pt x="411" y="139" on="0"/>
        <pt x="356" y="139" on="1"/>
        <pt x="285" y="139" on="1"/>
        <pt x="285" y="116" on="1"/>
        <pt x="285" y="98" on="0"/>
        <pt x="297" y="87" on="0"/>
        <pt x="317" y="87" on="1"/>
        <pt x="328" y="87" on="0"/>
        <pt x="343" y="87" on="0"/>
        <pt x="348" y="88" on="1"/>
        <pt x="354" y="89" on="0"/>
        <pt x="359" y="90" on="1"/>
        <pt x="367" y="80" on="1"/>
        <pt x="358" y="-4" on="1"/>
        <pt x="320" y="-3" on="0"/>
        <pt x="286" y="-2" on="1"/>
        <pt x="257" y="-1" on="0"/>
        <pt x="198" y="0" on="0"/>
        <pt x="181" y="0" on="1"/>
        <pt x="158" y="0" on="0"/>
        <pt x="101" y="-2" on="0"/>
        <pt x="75" y="-3" on="1"/>
        <pt x="45" y="-4" on="0"/>
        <pt x="15" y="-5" on="1"/>
        <pt x="23" y="80" on="1"/>
        <pt x="43" y="84" on="0"/>
        <pt x="68" y="95" on="0"/>
        <pt x="83" y="113" on="0"/>
        <pt x="88" y="141" on="0"/>
        <pt x="88" y="162" on="1"/>
        <pt x="88" y="508" on="1"/>
        <pt x="88" y="539" on="0"/>
        <pt x="74" y="559" on="0"/>
        <pt x="53" y="559" on="1"/>
        <pt x="48" y="559" on="0"/>
        <pt x="40" y="558" on="0"/>
        <pt x="36" y="558" on="1"/>
        <pt x="27" y="558" on="1"/>
        <pt x="18" y="572" on="1"/>
        <pt x="26" y="647" on="1"/>
        <pt x="187" y="647" on="1"/>
        <pt x="203" y="647" on="0"/>
        <pt x="260" y="648" on="0"/>
        <pt x="289" y="649" on="1"/>
        <pt x="322" y="650" on="0"/>
        <pt x="359" y="652" on="1"/>
        <pt x="352" y="562" on="1"/>
        <pt x="334" y="558" on="0"/>
        <pt x="312" y="553" on="0"/>
        <pt x="300" y="545" on="0"/>
        <pt x="296" y="535" on="0"/>
      </contour>
      <contour>
        <pt x="288" y="385" on="1"/>
        <pt x="288" y="375" on="0"/>
        <pt x="287" y="342" on="0"/>
        <pt x="287" y="305" on="0"/>
        <pt x="286" y="269" on="0"/>
        <pt x="286" y="256" on="1"/>
        <pt x="306" y="251" on="0"/>
        <pt x="342" y="246" on="0"/>
        <pt x="350" y="246" on="1"/>
        <pt x="399" y="259" on="0"/>
        <pt x="399" y="331" on="1"/>
        <pt x="399" y="371" on="0"/>
        <pt x="356" y="407" on="0"/>
        <pt x="308" y="407" on="1"/>
        <pt x="288" y="407" on="0"/>
      </contour>
    </TTGlyph>
    <TTGlyph name="U" xMin="0" yMin="-12" xMax="628" yMax="651">
      <contour>
        <pt x="257" y="220" on="1"/>
        <pt x="257" y="172" on="0"/>
        <pt x="296" y="115" on="0"/>
        <pt x="334" y="115" on="1"/>
        <pt x="372" y="115" on="0"/>
        <pt x="406" y="156" on="0"/>
        <pt x="406" y="203" on="1"/>
        <pt x="406" y="215" on="0"/>
        <pt x="406" y="253" on="0"/>
        <pt x="405" y="299" on="0"/>
        <pt x="405" y="351" on="0"/>
        <pt x="405" y="377" on="1"/>
        <pt x="405" y="505" on="1"/>
        <pt x="405" y="536" on="0"/>
        <pt x="394" y="559" on="0"/>
        <pt x="379" y="559" on="1"/>
        <pt x="375" y="559" on="0"/>
        <pt x="367" y="558" on="0"/>
        <pt x="364" y="558" on="1"/>
        <pt x="360" y="557" on="0"/>
        <pt x="356" y="557" on="1"/>
        <pt x="353" y="561" on="1"/>
        <pt x="364" y="650" on="1"/>
        <pt x="388" y="649" on="0"/>
        <pt x="410" y="648" on="1"/>
        <pt x="429" y="647" on="0"/>
        <pt x="470" y="647" on="0"/>
        <pt x="484" y="647" on="1"/>
        <pt x="507" y="647" on="0"/>
        <pt x="558" y="647" on="0"/>
        <pt x="579" y="648" on="1"/>
        <pt x="604" y="649" on="0"/>
        <pt x="628" y="650" on="1"/>
        <pt x="620" y="560" on="1"/>
        <pt x="604" y="555" on="0"/>
        <pt x="585" y="546" on="0"/>
        <pt x="575" y="537" on="0"/>
        <pt x="572" y="525" on="0"/>
        <pt x="572" y="516" on="1"/>
        <pt x="572" y="234" on="1"/>
        <pt x="572" y="112" on="0"/>
        <pt x="438" y="-12" on="0"/>
        <pt x="305" y="-12" on="1"/>
        <pt x="176" y="-12" on="0"/>
        <pt x="59" y="88" on="0"/>
        <pt x="59" y="199" on="1"/>
        <pt x="59" y="505" on="1"/>
        <pt x="59" y="538" on="0"/>
        <pt x="48" y="559" on="0"/>
        <pt x="31" y="559" on="1"/>
        <pt x="27" y="559" on="0"/>
        <pt x="18" y="558" on="0"/>
        <pt x="13" y="558" on="1"/>
        <pt x="8" y="557" on="0"/>
        <pt x="2" y="557" on="1"/>
        <pt x="0" y="561" on="1"/>
        <pt x="10" y="650" on="1"/>
        <pt x="39" y="649" on="0"/>
        <pt x="69" y="648" on="1"/>
        <pt x="95" y="647" on="0"/>
        <pt x="157" y="647" on="0"/>
        <pt x="187" y="647" on="1"/>
        <pt x="201" y="647" on="0"/>
        <pt x="247" y="648" on="0"/>
        <pt x="269" y="649" on="1"/>
        <pt x="295" y="650" on="0"/>
        <pt x="321" y="651" on="1"/>
        <pt x="311" y="558" on="1"/>
        <pt x="285" y="556" on="0"/>
        <pt x="264" y="532" on="0"/>
        <pt x="263" y="509" on="1"/>
      </contour>
    </TTGlyph>
    <TTGlyph name="Uacute" xMin="0" yMin="-12" xMax="628" yMax="875">
      <component glyphName="U" x="0" y="0" flags="0x204"/>
      <component glyphName="acute.cap" x="152" y="0" flags="0x4"/>
    </TTGlyph>
    <TTGlyph name="Ubreve" xMin="0" yMin="-12" xMax="628" yMax="915">
      <component glyphName="U" x="0" y="0" flags="0x204"/>
      <component glyphName="breve.cap" x="134" y="35" flags="0x4"/>
    </TTGlyph>
    <TTGlyph name="Ucircumflex" xMin="0" yMin="-12" xMax="628" yMax="910">
      <component glyphName="U" x="0" y="0" flags="0x204"/>
      <component glyphName="circumflex.cap" x="135" y="0" flags="0x4"/>
    </TTGlyph>
    <TTGlyph name="Udieresis" xMin="0" yMin="-12" xMax="628" yMax="852">
      <component glyphName="U" x="0" y="0" flags="0x204"/>
      <component glyphName="dieresis.cap" x="134" y="0" flags="0x4"/>
    </TTGlyph>
    <TTGlyph name="Ugrave" xMin="0" yMin="-12" xMax="628" yMax="875">
      <component glyphName="U" x="0" y="0" flags="0x204"/>
      <component glyphName="grave.cap" x="121" y="0" flags="0x4"/>
    </TTGlyph>
    <TTGlyph name="Uhungarumlaut" xMin="0" yMin="-12" xMax="628" yMax="880">
      <component glyphName="U" x="0" y="0" flags="0x204"/>
      <component glyphName="hungarumlaut.cap" x="132" y="0" flags="0x4"/>
    </TTGlyph>
    <TTGlyph name="Umacron" xMin="0" yMin="-12" xMax="628" yMax="823">
      <component glyphName="U" x="0" y="0" flags="0x204"/>
      <component glyphName="macron.cap" x="133" y="0" flags="0x4"/>
    </TTGlyph>
    <TTGlyph name="Uogonek" xMin="0" yMin="-242" xMax="628" yMax="651">
      <contour>
        <pt x="538" y="-171" on="1"/>
        <pt x="522" y="-187" on="0"/>
        <pt x="504" y="-200" on="1"/>
        <pt x="489" y="-212" on="0"/>
        <pt x="452" y="-235" on="0"/>
        <pt x="434" y="-242" on="1"/>
        <pt x="374" y="-242" on="0"/>
        <pt x="305" y="-195" on="0"/>
        <pt x="305" y="-153" on="1"/>
        <pt x="305" y="-120" on="0"/>
        <pt x="341" y="-54" on="0"/>
        <pt x="385" y="-5" on="1"/>
        <pt x="351" y="-12" on="0"/>
        <pt x="305" y="-12" on="1"/>
        <pt x="176" y="-12" on="0"/>
        <pt x="59" y="88" on="0"/>
        <pt x="59" y="199" on="1"/>
        <pt x="59" y="505" on="1"/>
        <pt x="59" y="538" on="0"/>
        <pt x="48" y="559" on="0"/>
        <pt x="31" y="559" on="1"/>
        <pt x="27" y="559" on="0"/>
        <pt x="18" y="558" on="0"/>
        <pt x="13" y="558" on="1"/>
        <pt x="8" y="557" on="0"/>
        <pt x="2" y="557" on="1"/>
        <pt x="0" y="561" on="1"/>
        <pt x="10" y="650" on="1"/>
        <pt x="39" y="649" on="0"/>
        <pt x="69" y="648" on="1"/>
        <pt x="95" y="647" on="0"/>
        <pt x="157" y="647" on="0"/>
        <pt x="187" y="647" on="1"/>
        <pt x="201" y="647" on="0"/>
        <pt x="247" y="648" on="0"/>
        <pt x="269" y="649" on="1"/>
        <pt x="295" y="650" on="0"/>
        <pt x="321" y="651" on="1"/>
        <pt x="311" y="558" on="1"/>
        <pt x="285" y="556" on="0"/>
        <pt x="264" y="533" on="0"/>
        <pt x="263" y="509" on="1"/>
        <pt x="257" y="220" on="1"/>
        <pt x="257" y="170" on="0"/>
        <pt x="298" y="115" on="0"/>
        <pt x="334" y="115" on="1"/>
        <pt x="372" y="115" on="0"/>
        <pt x="406" y="156" on="0"/>
        <pt x="406" y="203" on="1"/>
        <pt x="406" y="215" on="0"/>
        <pt x="406" y="253" on="0"/>
        <pt x="405" y="299" on="0"/>
        <pt x="405" y="351" on="0"/>
        <pt x="405" y="377" on="1"/>
        <pt x="405" y="505" on="1"/>
        <pt x="405" y="536" on="0"/>
        <pt x="394" y="559" on="0"/>
        <pt x="379" y="559" on="1"/>
        <pt x="375" y="559" on="0"/>
        <pt x="367" y="558" on="0"/>
        <pt x="364" y="558" on="1"/>
        <pt x="360" y="557" on="0"/>
        <pt x="356" y="557" on="1"/>
        <pt x="353" y="561" on="1"/>
        <pt x="364" y="650" on="1"/>
        <pt x="388" y="649" on="0"/>
        <pt x="410" y="648" on="1"/>
        <pt x="429" y="647" on="0"/>
        <pt x="470" y="647" on="0"/>
        <pt x="484" y="647" on="1"/>
        <pt x="507" y="647" on="0"/>
        <pt x="558" y="647" on="0"/>
        <pt x="579" y="648" on="1"/>
        <pt x="604" y="649" on="0"/>
        <pt x="628" y="650" on="1"/>
        <pt x="620" y="560" on="1"/>
        <pt x="604" y="555" on="0"/>
        <pt x="585" y="546" on="0"/>
        <pt x="575" y="537" on="0"/>
        <pt x="572" y="525" on="0"/>
        <pt x="572" y="516" on="1"/>
        <pt x="572" y="234" on="1"/>
        <pt x="572" y="180" on="0"/>
        <pt x="544" y="95" on="0"/>
        <pt x="512" y="55" on="1"/>
        <pt x="477" y="9" on="0"/>
        <pt x="435" y="-47" on="0"/>
        <pt x="413" y="-83" on="0"/>
        <pt x="406" y="-105" on="0"/>
        <pt x="406" y="-116" on="1"/>
        <pt x="406" y="-135" on="0"/>
        <pt x="428" y="-157" on="0"/>
        <pt x="447" y="-157" on="1"/>
        <pt x="458" y="-157" on="0"/>
        <pt x="481" y="-150" on="0"/>
        <pt x="491" y="-145" on="1"/>
        <pt x="502" y="-140" on="0"/>
        <pt x="513" y="-132" on="1"/>
      </contour>
    </TTGlyph>
    <TTGlyph name="Uring" xMin="0" yMin="-12" xMax="628" yMax="892">
      <component glyphName="U" x="0" y="0" flags="0x204"/>
      <component glyphName="ring.cap" x="134" y="0" flags="0x4"/>
    </TTGlyph>
    <TTGlyph name="Utilde" xMin="0" yMin="-12" xMax="628" yMax="913">
      <component glyphName="U" x="0" y="0" flags="0x204"/>
      <component glyphName="tilde.cap" x="131" y="25" flags="0x4"/>
    </TTGlyph>
    <TTGlyph name="V" xMin="-5" yMin="-13" xMax="647" yMax="652">
      <contour>
        <pt x="57" y="493" on="1"/>
        <pt x="48" y="527" on="0"/>
        <pt x="23" y="557" on="0"/>
        <pt x="2" y="560" on="1"/>
        <pt x="-5" y="570" on="1"/>
        <pt x="3" y="649" on="1"/>
        <pt x="27" y="648" on="0"/>
        <pt x="52" y="648" on="1"/>
        <pt x="73" y="647" on="0"/>
        <pt x="120" y="647" on="0"/>
        <pt x="140" y="647" on="1"/>
        <pt x="175" y="647" on="0"/>
        <pt x="244" y="648" on="0"/>
        <pt x="271" y="649" on="1"/>
        <pt x="303" y="650" on="0"/>
        <pt x="331" y="652" on="1"/>
        <pt x="339" y="643" on="1"/>
        <pt x="333" y="559" on="1"/>
        <pt x="310" y="556" on="0"/>
        <pt x="284" y="552" on="0"/>
        <pt x="272" y="545" on="0"/>
        <pt x="269" y="534" on="0"/>
        <pt x="269" y="525" on="1"/>
        <pt x="269" y="517" on="0"/>
        <pt x="273" y="479" on="0"/>
        <pt x="281" y="425" on="0"/>
        <pt x="291" y="362" on="0"/>
        <pt x="296" y="331" on="1"/>
        <pt x="307" y="257" on="0"/>
        <pt x="323" y="168" on="1"/>
        <pt x="345" y="168" on="1"/>
        <pt x="368" y="263" on="0"/>
        <pt x="386" y="340" on="1"/>
        <pt x="393" y="373" on="0"/>
        <pt x="408" y="438" on="0"/>
        <pt x="420" y="492" on="0"/>
        <pt x="427" y="531" on="0"/>
        <pt x="427" y="537" on="1"/>
        <pt x="427" y="550" on="0"/>
        <pt x="416" y="557" on="0"/>
        <pt x="396" y="557" on="1"/>
        <pt x="370" y="557" on="1"/>
        <pt x="362" y="567" on="1"/>
        <pt x="370" y="650" on="1"/>
        <pt x="397" y="649" on="0"/>
        <pt x="424" y="648" on="1"/>
        <pt x="447" y="647" on="0"/>
        <pt x="501" y="647" on="0"/>
        <pt x="524" y="647" on="1"/>
        <pt x="607" y="647" on="1"/>
        <pt x="628" y="647" on="0"/>
        <pt x="647" y="648" on="1"/>
        <pt x="640" y="561" on="1"/>
        <pt x="623" y="556" on="0"/>
        <pt x="608" y="535" on="0"/>
        <pt x="599" y="506" on="1"/>
        <pt x="450" y="4" on="1"/>
        <pt x="175" y="-13" on="1"/>
        <pt x="149" y="100" on="0"/>
        <pt x="126" y="199" on="1"/>
        <pt x="116" y="241" on="0"/>
        <pt x="96" y="329" on="0"/>
        <pt x="78" y="408" on="0"/>
        <pt x="62" y="473" on="0"/>
      </contour>
    </TTGlyph>
    <TTGlyph name="W" xMin="-5" yMin="-13" xMax="1004" yMax="652">
      <contour>
        <pt x="554" y="-13" on="1"/>
        <pt x="510" y="272" on="1"/>
        <pt x="496" y="272" on="1"/>
        <pt x="433" y="4" on="1"/>
        <pt x="168" y="-13" on="1"/>
        <pt x="143" y="100" on="0"/>
        <pt x="121" y="199" on="1"/>
        <pt x="112" y="241" on="0"/>
        <pt x="92" y="329" on="0"/>
        <pt x="75" y="408" on="0"/>
        <pt x="60" y="473" on="0"/>
        <pt x="55" y="493" on="1"/>
        <pt x="46" y="527" on="0"/>
        <pt x="22" y="557" on="0"/>
        <pt x="2" y="560" on="1"/>
        <pt x="-5" y="570" on="1"/>
        <pt x="4" y="649" on="1"/>
        <pt x="27" y="648" on="0"/>
        <pt x="50" y="648" on="1"/>
        <pt x="70" y="647" on="0"/>
        <pt x="115" y="647" on="0"/>
        <pt x="135" y="647" on="1"/>
        <pt x="169" y="647" on="0"/>
        <pt x="235" y="648" on="0"/>
        <pt x="261" y="649" on="1"/>
        <pt x="292" y="650" on="0"/>
        <pt x="319" y="652" on="1"/>
        <pt x="326" y="643" on="1"/>
        <pt x="320" y="559" on="1"/>
        <pt x="297" y="556" on="0"/>
        <pt x="272" y="552" on="0"/>
        <pt x="260" y="545" on="0"/>
        <pt x="258" y="534" on="0"/>
        <pt x="258" y="525" on="1"/>
        <pt x="258" y="517" on="0"/>
        <pt x="262" y="479" on="0"/>
        <pt x="270" y="425" on="0"/>
        <pt x="279" y="362" on="0"/>
        <pt x="284" y="331" on="1"/>
        <pt x="295" y="257" on="0"/>
        <pt x="310" y="168" on="1"/>
        <pt x="331" y="168" on="1"/>
        <pt x="348" y="238" on="0"/>
        <pt x="363" y="302" on="1"/>
        <pt x="369" y="329" on="0"/>
        <pt x="382" y="386" on="0"/>
        <pt x="394" y="439" on="0"/>
        <pt x="404" y="485" on="0"/>
        <pt x="407" y="502" on="1"/>
        <pt x="410" y="521" on="0"/>
        <pt x="410" y="529" on="1"/>
        <pt x="410" y="549" on="0"/>
        <pt x="389" y="560" on="0"/>
        <pt x="354" y="560" on="1"/>
        <pt x="347" y="570" on="1"/>
        <pt x="356" y="649" on="1"/>
        <pt x="386" y="648" on="0"/>
        <pt x="415" y="648" on="1"/>
        <pt x="440" y="647" on="0"/>
        <pt x="495" y="647" on="0"/>
        <pt x="518" y="647" on="1"/>
        <pt x="552" y="647" on="0"/>
        <pt x="618" y="648" on="0"/>
        <pt x="644" y="649" on="1"/>
        <pt x="674" y="650" on="0"/>
        <pt x="701" y="652" on="1"/>
        <pt x="709" y="643" on="1"/>
        <pt x="702" y="559" on="1"/>
        <pt x="679" y="556" on="0"/>
        <pt x="655" y="552" on="0"/>
        <pt x="643" y="546" on="0"/>
        <pt x="641" y="535" on="0"/>
        <pt x="641" y="525" on="1"/>
        <pt x="641" y="517" on="0"/>
        <pt x="645" y="479" on="0"/>
        <pt x="652" y="425" on="0"/>
        <pt x="661" y="362" on="0"/>
        <pt x="666" y="331" on="1"/>
        <pt x="677" y="257" on="0"/>
        <pt x="692" y="168" on="1"/>
        <pt x="713" y="168" on="1"/>
        <pt x="734" y="263" on="0"/>
        <pt x="752" y="340" on="1"/>
        <pt x="759" y="373" on="0"/>
        <pt x="774" y="438" on="0"/>
        <pt x="785" y="492" on="0"/>
        <pt x="792" y="531" on="0"/>
        <pt x="792" y="537" on="1"/>
        <pt x="792" y="550" on="0"/>
        <pt x="781" y="557" on="0"/>
        <pt x="762" y="557" on="1"/>
        <pt x="737" y="557" on="1"/>
        <pt x="730" y="567" on="1"/>
        <pt x="738" y="650" on="1"/>
        <pt x="764" y="649" on="0"/>
        <pt x="790" y="648" on="1"/>
        <pt x="813" y="647" on="0"/>
        <pt x="864" y="647" on="0"/>
        <pt x="886" y="647" on="1"/>
        <pt x="966" y="647" on="1"/>
        <pt x="986" y="647" on="0"/>
        <pt x="1004" y="648" on="1"/>
        <pt x="997" y="561" on="1"/>
        <pt x="981" y="556" on="0"/>
        <pt x="966" y="535" on="0"/>
        <pt x="957" y="506" on="1"/>
        <pt x="819" y="4" on="1"/>
      </contour>
    </TTGlyph>
    <TTGlyph name="Wacute" xMin="-5" yMin="-13" xMax="1004" yMax="875">
      <component glyphName="W" x="0" y="0" flags="0x204"/>
      <component glyphName="acute.cap" x="338" y="0" flags="0x4"/>
    </TTGlyph>
    <TTGlyph name="Wcircumflex" xMin="-5" yMin="-13" xMax="1004" yMax="910">
      <component glyphName="W" x="0" y="0" flags="0x204"/>
      <component glyphName="circumflex.cap" x="321" y="0" flags="0x4"/>
    </TTGlyph>
    <TTGlyph name="Wdieresis" xMin="-5" yMin="-13" xMax="1004" yMax="852">
      <component glyphName="W" x="0" y="0" flags="0x204"/>
      <component glyphName="dieresis.cap" x="320" y="0" flags="0x4"/>
    </TTGlyph>
    <TTGlyph name="Wgrave" xMin="-5" yMin="-13" xMax="1004" yMax="875">
      <component glyphName="W" x="0" y="0" flags="0x204"/>
      <component glyphName="grave.cap" x="307" y="0" flags="0x4"/>
    </TTGlyph>
    <TTGlyph name="X" xMin="1" yMin="-5" xMax="711" yMax="653">
      <contour>
        <pt x="221" y="346" on="1"/>
        <pt x="139" y="467" on="1"/>
        <pt x="123" y="491" on="0"/>
        <pt x="95" y="519" on="0"/>
        <pt x="68" y="537" on="0"/>
        <pt x="38" y="546" on="0"/>
        <pt x="20" y="551" on="1"/>
        <pt x="15" y="557" on="1"/>
        <pt x="24" y="648" on="1"/>
        <pt x="45" y="647" on="0"/>
        <pt x="72" y="647" on="1"/>
        <pt x="200" y="647" on="1"/>
        <pt x="217" y="647" on="0"/>
        <pt x="274" y="648" on="0"/>
        <pt x="303" y="650" on="1"/>
        <pt x="336" y="651" on="0"/>
        <pt x="373" y="653" on="1"/>
        <pt x="379" y="642" on="1"/>
        <pt x="372" y="560" on="1"/>
        <pt x="333" y="560" on="0"/>
        <pt x="333" y="536" on="1"/>
        <pt x="333" y="516" on="0"/>
        <pt x="369" y="462" on="0"/>
        <pt x="396" y="424" on="1"/>
        <pt x="405" y="440" on="0"/>
        <pt x="427" y="476" on="0"/>
        <pt x="445" y="509" on="0"/>
        <pt x="457" y="535" on="0"/>
        <pt x="457" y="541" on="1"/>
        <pt x="457" y="552" on="0"/>
        <pt x="441" y="561" on="0"/>
        <pt x="419" y="561" on="1"/>
        <pt x="417" y="567" on="1"/>
        <pt x="423" y="647" on="1"/>
        <pt x="578" y="647" on="1"/>
        <pt x="600" y="647" on="0"/>
        <pt x="645" y="647" on="0"/>
        <pt x="664" y="648" on="1"/>
        <pt x="686" y="649" on="0"/>
        <pt x="707" y="650" on="1"/>
        <pt x="711" y="642" on="1"/>
        <pt x="706" y="555" on="1"/>
        <pt x="682" y="543" on="0"/>
        <pt x="646" y="521" on="0"/>
        <pt x="616" y="496" on="0"/>
        <pt x="591" y="466" on="0"/>
        <pt x="578" y="446" on="1"/>
        <pt x="484" y="301" on="1"/>
        <pt x="571" y="179" on="1"/>
        <pt x="603" y="134" on="0"/>
        <pt x="660" y="94" on="0"/>
        <pt x="696" y="93" on="1"/>
        <pt x="700" y="89" on="1"/>
        <pt x="691" y="-1" on="1"/>
        <pt x="664" y="-1" on="0"/>
        <pt x="638" y="0" on="1"/>
        <pt x="616" y="1" on="0"/>
        <pt x="570" y="2" on="0"/>
        <pt x="556" y="2" on="1"/>
        <pt x="538" y="2" on="0"/>
        <pt x="470" y="0" on="0"/>
        <pt x="435" y="-2" on="1"/>
        <pt x="395" y="-4" on="0"/>
        <pt x="349" y="-5" on="1"/>
        <pt x="342" y="2" on="1"/>
        <pt x="349" y="86" on="1"/>
        <pt x="378" y="88" on="0"/>
        <pt x="378" y="106" on="1"/>
        <pt x="378" y="118" on="0"/>
        <pt x="367" y="133" on="1"/>
        <pt x="306" y="221" on="1"/>
        <pt x="268" y="158" on="1"/>
        <pt x="260" y="146" on="0"/>
        <pt x="251" y="125" on="0"/>
        <pt x="251" y="118" on="1"/>
        <pt x="251" y="88" on="0"/>
        <pt x="290" y="88" on="1"/>
        <pt x="296" y="77" on="1"/>
        <pt x="291" y="-4" on="1"/>
        <pt x="257" y="-3" on="0"/>
        <pt x="227" y="-1" on="1"/>
        <pt x="201" y="0" on="0"/>
        <pt x="152" y="2" on="0"/>
        <pt x="140" y="2" on="1"/>
        <pt x="125" y="2" on="0"/>
        <pt x="79" y="0" on="0"/>
        <pt x="58" y="-1" on="1"/>
        <pt x="32" y="-3" on="0"/>
        <pt x="6" y="-4" on="1"/>
        <pt x="1" y="10" on="1"/>
        <pt x="7" y="90" on="1"/>
        <pt x="18" y="95" on="0"/>
        <pt x="50" y="122" on="0"/>
        <pt x="84" y="158" on="0"/>
        <pt x="119" y="199" on="0"/>
        <pt x="133" y="219" on="1"/>
      </contour>
    </TTGlyph>
    <TTGlyph name="Y" xMin="0" yMin="-9" xMax="663" yMax="653">
      <contour>
        <pt x="297" y="535" on="1"/>
        <pt x="297" y="529" on="0"/>
        <pt x="309" y="495" on="0"/>
        <pt x="326" y="452" on="0"/>
        <pt x="345" y="406" on="0"/>
        <pt x="353" y="387" on="1"/>
        <pt x="367" y="387" on="1"/>
        <pt x="408" y="501" on="1"/>
        <pt x="421" y="530" on="0"/>
        <pt x="421" y="545" on="1"/>
        <pt x="421" y="554" on="0"/>
        <pt x="404" y="561" on="0"/>
        <pt x="383" y="561" on="1"/>
        <pt x="380" y="567" on="1"/>
        <pt x="388" y="646" on="1"/>
        <pt x="546" y="646" on="1"/>
        <pt x="566" y="646" on="0"/>
        <pt x="605" y="647" on="0"/>
        <pt x="622" y="648" on="1"/>
        <pt x="641" y="649" on="0"/>
        <pt x="659" y="650" on="1"/>
        <pt x="663" y="642" on="1"/>
        <pt x="655" y="555" on="1"/>
        <pt x="623" y="537" on="0"/>
        <pt x="565" y="471" on="0"/>
        <pt x="544" y="429" on="1"/>
        <pt x="453" y="247" on="1"/>
        <pt x="442" y="221" on="0"/>
        <pt x="438" y="180" on="0"/>
        <pt x="438" y="154" on="1"/>
        <pt x="438" y="119" on="0"/>
        <pt x="459" y="91" on="0"/>
        <pt x="488" y="91" on="1"/>
        <pt x="497" y="91" on="0"/>
        <pt x="515" y="91" on="0"/>
        <pt x="523" y="92" on="1"/>
        <pt x="532" y="93" on="0"/>
        <pt x="539" y="94" on="1"/>
        <pt x="544" y="88" on="1"/>
        <pt x="535" y="-6" on="1"/>
        <pt x="492" y="-5" on="0"/>
        <pt x="453" y="-3" on="1"/>
        <pt x="419" y="-2" on="0"/>
        <pt x="350" y="0" on="0"/>
        <pt x="328" y="0" on="1"/>
        <pt x="304" y="0" on="0"/>
        <pt x="235" y="-3" on="0"/>
        <pt x="203" y="-5" on="1"/>
        <pt x="166" y="-7" on="0"/>
        <pt x="127" y="-9" on="1"/>
        <pt x="135" y="83" on="1"/>
        <pt x="167" y="85" on="0"/>
        <pt x="207" y="94" on="0"/>
        <pt x="230" y="111" on="0"/>
        <pt x="238" y="140" on="0"/>
        <pt x="238" y="162" on="1"/>
        <pt x="238" y="178" on="1"/>
        <pt x="238" y="200" on="0"/>
        <pt x="226" y="239" on="0"/>
        <pt x="210" y="268" on="1"/>
        <pt x="103" y="467" on="1"/>
        <pt x="73" y="522" on="0"/>
        <pt x="4" y="551" on="1"/>
        <pt x="0" y="557" on="1"/>
        <pt x="10" y="648" on="1"/>
        <pt x="44" y="647" on="0"/>
        <pt x="73" y="647" on="1"/>
        <pt x="98" y="646" on="0"/>
        <pt x="147" y="646" on="0"/>
        <pt x="160" y="646" on="1"/>
        <pt x="177" y="646" on="0"/>
        <pt x="238" y="647" on="0"/>
        <pt x="267" y="649" on="1"/>
        <pt x="301" y="651" on="0"/>
        <pt x="340" y="653" on="1"/>
        <pt x="347" y="642" on="1"/>
        <pt x="338" y="560" on="1"/>
        <pt x="297" y="560" on="0"/>
      </contour>
    </TTGlyph>
    <TTGlyph name="Yacute" xMin="0" yMin="-9" xMax="663" yMax="875">
      <component glyphName="Y" x="0" y="0" flags="0x204"/>
      <component glyphName="acute.cap" x="184" y="0" flags="0x4"/>
    </TTGlyph>
    <TTGlyph name="Ycircumflex" xMin="0" yMin="-9" xMax="663" yMax="910">
      <component glyphName="Y" x="0" y="0" flags="0x204"/>
      <component glyphName="circumflex.cap" x="167" y="0" flags="0x4"/>
    </TTGlyph>
    <TTGlyph name="Ydieresis" xMin="0" yMin="-9" xMax="663" yMax="852">
      <component glyphName="Y" x="0" y="0" flags="0x204"/>
      <component glyphName="dieresis.cap" x="166" y="0" flags="0x4"/>
    </TTGlyph>
    <TTGlyph name="Ygrave" xMin="0" yMin="-9" xMax="663" yMax="875">
      <component glyphName="Y" x="0" y="0" flags="0x204"/>
      <component glyphName="grave.cap" x="153" y="0" flags="0x4"/>
    </TTGlyph>
    <TTGlyph name="Z" xMin="3" yMin="-7" xMax="597" yMax="660">
      <contour>
        <pt x="550" y="-3" on="1"/>
        <pt x="121" y="3" on="1"/>
        <pt x="39" y="-7" on="1"/>
        <pt x="3" y="51" on="1"/>
        <pt x="329" y="542" on="1"/>
        <pt x="252" y="532" on="1"/>
        <pt x="223" y="526" on="0"/>
        <pt x="188" y="513" on="0"/>
        <pt x="168" y="489" on="0"/>
        <pt x="161" y="450" on="0"/>
        <pt x="160" y="418" on="1"/>
        <pt x="34" y="409" on="1"/>
        <pt x="37" y="452" on="0"/>
        <pt x="40" y="494" on="1"/>
        <pt x="42" y="530" on="0"/>
        <pt x="47" y="614" on="0"/>
        <pt x="49" y="649" on="1"/>
        <pt x="60" y="660" on="1"/>
        <pt x="241" y="649" on="1"/>
        <pt x="572" y="649" on="1"/>
        <pt x="597" y="595" on="1"/>
        <pt x="541" y="520" on="0"/>
        <pt x="439" y="374" on="0"/>
        <pt x="352" y="245" on="0"/>
        <pt x="285" y="141" on="0"/>
        <pt x="264" y="109" on="1"/>
        <pt x="369" y="124" on="1"/>
        <pt x="393" y="128" on="0"/>
        <pt x="427" y="148" on="0"/>
        <pt x="451" y="181" on="0"/>
        <pt x="465" y="231" on="0"/>
        <pt x="468" y="266" on="1"/>
        <pt x="594" y="275" on="1"/>
        <pt x="587" y="229" on="0"/>
        <pt x="583" y="184" on="1"/>
        <pt x="578" y="145" on="0"/>
        <pt x="572" y="57" on="0"/>
        <pt x="571" y="19" on="1"/>
      </contour>
    </TTGlyph>
    <TTGlyph name="Zacute" xMin="3" yMin="-7" xMax="597" yMax="875">
      <component glyphName="Z" x="0" y="0" flags="0x204"/>
      <component glyphName="acute.cap" x="151" y="0" flags="0x4"/>
    </TTGlyph>
    <TTGlyph name="Zcaron" xMin="3" yMin="-7" xMax="597" yMax="895">
      <component glyphName="Z" x="0" y="0" flags="0x204"/>
      <component glyphName="caron.cap" x="132" y="0" flags="0x4"/>
    </TTGlyph>
    <TTGlyph name="Zdotaccent" xMin="3" yMin="-7" xMax="597" yMax="882">
      <component glyphName="Z" x="0" y="0" flags="0x204"/>
      <component glyphName="dotaccent.cap" x="135" y="0" flags="0x4"/>
    </TTGlyph>
    <TTGlyph name="a" xMin="11" yMin="-12" xMax="502" yMax="484">
      <contour>
        <pt x="271" y="286" on="1"/>
        <pt x="271" y="320" on="0"/>
        <pt x="227" y="358" on="0"/>
        <pt x="189" y="358" on="1"/>
        <pt x="169" y="358" on="0"/>
        <pt x="129" y="344" on="0"/>
        <pt x="112" y="336" on="1"/>
        <pt x="93" y="326" on="0"/>
        <pt x="74" y="315" on="1"/>
        <pt x="62" y="321" on="1"/>
        <pt x="37" y="401" on="1"/>
        <pt x="81" y="424" on="0"/>
        <pt x="121" y="442" on="1"/>
        <pt x="155" y="458" on="0"/>
        <pt x="225" y="484" on="0"/>
        <pt x="245" y="484" on="1"/>
        <pt x="302" y="484" on="0"/>
        <pt x="378" y="459" on="0"/>
        <pt x="425" y="419" on="0"/>
        <pt x="444" y="366" on="0"/>
        <pt x="444" y="339" on="1"/>
        <pt x="444" y="327" on="0"/>
        <pt x="437" y="277" on="0"/>
        <pt x="429" y="221" on="0"/>
        <pt x="422" y="172" on="0"/>
        <pt x="422" y="162" on="1"/>
        <pt x="422" y="147" on="0"/>
        <pt x="438" y="128" on="0"/>
        <pt x="451" y="128" on="1"/>
        <pt x="457" y="128" on="0"/>
        <pt x="469" y="130" on="0"/>
        <pt x="474" y="132" on="1"/>
        <pt x="479" y="134" on="0"/>
        <pt x="485" y="136" on="1"/>
        <pt x="502" y="109" on="1"/>
        <pt x="484" y="78" on="0"/>
        <pt x="466" y="52" on="1"/>
        <pt x="450" y="30" on="0"/>
        <pt x="411" y="-8" on="0"/>
        <pt x="394" y="-12" on="1"/>
        <pt x="344" y="-12" on="0"/>
        <pt x="286" y="26" on="0"/>
        <pt x="281" y="61" on="1"/>
        <pt x="269" y="66" on="1"/>
        <pt x="257" y="54" on="0"/>
        <pt x="228" y="28" on="0"/>
        <pt x="198" y="6" on="0"/>
        <pt x="170" y="-8" on="0"/>
        <pt x="158" y="-8" on="1"/>
        <pt x="127" y="-8" on="0"/>
        <pt x="74" y="18" on="0"/>
        <pt x="34" y="64" on="0"/>
        <pt x="11" y="126" on="0"/>
        <pt x="11" y="162" on="1"/>
        <pt x="11" y="195" on="0"/>
        <pt x="46" y="243" on="0"/>
        <pt x="75" y="249" on="1"/>
        <pt x="271" y="285" on="1"/>
      </contour>
      <contour>
        <pt x="269" y="212" on="1"/>
        <pt x="197" y="196" on="1"/>
        <pt x="186" y="194" on="0"/>
        <pt x="179" y="185" on="0"/>
        <pt x="179" y="174" on="1"/>
        <pt x="179" y="151" on="0"/>
        <pt x="200" y="120" on="0"/>
        <pt x="219" y="120" on="1"/>
        <pt x="230" y="120" on="0"/>
        <pt x="257" y="124" on="0"/>
        <pt x="268" y="126" on="1"/>
      </contour>
    </TTGlyph>
    <TTGlyph name="a.sups" xMin="15" yMin="319" xMax="360" yMax="653">
      <contour>
        <pt x="196" y="521" on="1"/>
        <pt x="194" y="541" on="0"/>
        <pt x="164" y="563" on="0"/>
        <pt x="140" y="563" on="1"/>
        <pt x="126" y="563" on="0"/>
        <pt x="98" y="554" on="0"/>
        <pt x="87" y="549" on="1"/>
        <pt x="74" y="543" on="0"/>
        <pt x="61" y="535" on="1"/>
        <pt x="52" y="539" on="1"/>
        <pt x="34" y="596" on="1"/>
        <pt x="66" y="612" on="0"/>
        <pt x="94" y="624" on="1"/>
        <pt x="118" y="635" on="0"/>
        <pt x="167" y="653" on="0"/>
        <pt x="181" y="653" on="1"/>
        <pt x="222" y="653" on="0"/>
        <pt x="277" y="636" on="0"/>
        <pt x="310" y="608" on="0"/>
        <pt x="323" y="572" on="0"/>
        <pt x="323" y="554" on="1"/>
        <pt x="323" y="546" on="0"/>
        <pt x="318" y="513" on="0"/>
        <pt x="313" y="478" on="0"/>
        <pt x="308" y="447" on="0"/>
        <pt x="308" y="441" on="1"/>
        <pt x="308" y="419" on="0"/>
        <pt x="327" y="419" on="1"/>
        <pt x="333" y="419" on="0"/>
        <pt x="341" y="421" on="1"/>
        <pt x="345" y="422" on="0"/>
        <pt x="348" y="423" on="1"/>
        <pt x="360" y="404" on="1"/>
        <pt x="347" y="382" on="0"/>
        <pt x="334" y="364" on="1"/>
        <pt x="323" y="348" on="0"/>
        <pt x="296" y="321" on="0"/>
        <pt x="284" y="319" on="1"/>
        <pt x="249" y="319" on="0"/>
        <pt x="207" y="344" on="0"/>
        <pt x="204" y="367" on="1"/>
        <pt x="195" y="371" on="1"/>
        <pt x="187" y="363" on="0"/>
        <pt x="168" y="346" on="0"/>
        <pt x="147" y="332" on="0"/>
        <pt x="126" y="322" on="0"/>
        <pt x="118" y="322" on="1"/>
        <pt x="97" y="322" on="0"/>
        <pt x="59" y="340" on="0"/>
        <pt x="31" y="372" on="0"/>
        <pt x="15" y="415" on="0"/>
        <pt x="15" y="440" on="1"/>
        <pt x="15" y="463" on="0"/>
        <pt x="40" y="494" on="0"/>
        <pt x="60" y="499" on="1"/>
      </contour>
      <contour>
        <pt x="195" y="469" on="1"/>
        <pt x="150" y="461" on="1"/>
        <pt x="139" y="459" on="0"/>
        <pt x="139" y="448" on="1"/>
        <pt x="139" y="433" on="0"/>
        <pt x="152" y="413" on="0"/>
        <pt x="164" y="413" on="1"/>
        <pt x="194" y="413" on="1"/>
      </contour>
    </TTGlyph>
    <TTGlyph name="aacute" xMin="11" yMin="-12" xMax="502" yMax="762">
      <component glyphName="a" x="0" y="0" flags="0x204"/>
      <component glyphName="acute" x="39" y="2" flags="0x4"/>
    </TTGlyph>
    <TTGlyph name="abreve" xMin="11" yMin="-12" xMax="502" yMax="742">
      <component glyphName="a" x="0" y="0" flags="0x204"/>
      <component glyphName="breve" x="37" y="2" flags="0x4"/>
    </TTGlyph>
    <TTGlyph name="acircumflex" xMin="11" yMin="-12" xMax="502" yMax="761">
      <component glyphName="a" x="0" y="0" flags="0x204"/>
      <component glyphName="circumflex" x="42" y="1" flags="0x4"/>
    </TTGlyph>
    <TTGlyph name="acute" xMin="99" yMin="525" xMax="375" yMax="760">
      <contour>
        <pt x="373" y="642" on="1"/>
        <pt x="341" y="625" on="0"/>
        <pt x="306" y="606" on="1"/>
        <pt x="276" y="589" on="0"/>
        <pt x="200" y="548" on="0"/>
        <pt x="162" y="525" on="1"/>
        <pt x="140" y="532" on="1"/>
        <pt x="99" y="593" on="1"/>
        <pt x="134" y="623" on="0"/>
        <pt x="202" y="683" on="0"/>
        <pt x="228" y="707" on="1"/>
        <pt x="259" y="735" on="0"/>
        <pt x="286" y="760" on="1"/>
        <pt x="303" y="760" on="1"/>
        <pt x="375" y="659" on="1"/>
      </contour>
    </TTGlyph>
    <TTGlyph name="acute.cap" xMin="68" yMin="691" xMax="369" yMax="875">
      <contour>
        <pt x="362" y="746" on="1"/>
        <pt x="323" y="739" on="0"/>
        <pt x="281" y="730" on="1"/>
        <pt x="245" y="722" on="0"/>
        <pt x="155" y="702" on="0"/>
        <pt x="108" y="691" on="1"/>
        <pt x="89" y="704" on="1"/>
        <pt x="68" y="775" on="1"/>
        <pt x="114" y="792" on="0"/>
        <pt x="204" y="828" on="0"/>
        <pt x="239" y="842" on="1"/>
        <pt x="280" y="859" on="0"/>
        <pt x="317" y="875" on="1"/>
        <pt x="333" y="870" on="1"/>
        <pt x="369" y="762" on="1"/>
      </contour>
    </TTGlyph>
    <TTGlyph name="adieresis" xMin="11" yMin="-12" xMax="502" yMax="728">
      <component glyphName="a" x="0" y="0" flags="0x204"/>
      <component glyphName="dieresis" x="39" y="2" flags="0x4"/>
    </TTGlyph>
    <TTGlyph name="ae" xMin="6" yMin="-12" xMax="675" yMax="484">
      <contour>
        <pt x="675" y="69" on="1"/>
        <pt x="645" y="46" on="0"/>
        <pt x="614" y="28" on="1"/>
        <pt x="588" y="13" on="0"/>
        <pt x="523" y="-12" on="0"/>
        <pt x="494" y="-12" on="1"/>
        <pt x="354" y="-12" on="0"/>
        <pt x="294" y="77" on="1"/>
        <pt x="248" y="36" on="0"/>
        <pt x="174" y="-8" on="0"/>
        <pt x="153" y="-8" on="1"/>
        <pt x="122" y="-8" on="0"/>
        <pt x="69" y="18" on="0"/>
        <pt x="29" y="62" on="0"/>
        <pt x="6" y="122" on="0"/>
        <pt x="6" y="157" on="1"/>
        <pt x="6" y="195" on="0"/>
        <pt x="48" y="249" on="0"/>
        <pt x="83" y="254" on="1"/>
        <pt x="254" y="277" on="1"/>
        <pt x="254" y="286" on="1"/>
        <pt x="254" y="320" on="0"/>
        <pt x="210" y="358" on="0"/>
        <pt x="172" y="358" on="1"/>
        <pt x="152" y="358" on="0"/>
        <pt x="112" y="344" on="0"/>
        <pt x="95" y="336" on="1"/>
        <pt x="76" y="326" on="0"/>
        <pt x="57" y="315" on="1"/>
        <pt x="45" y="321" on="1"/>
        <pt x="20" y="401" on="1"/>
        <pt x="64" y="424" on="0"/>
        <pt x="104" y="442" on="1"/>
        <pt x="138" y="458" on="0"/>
        <pt x="208" y="484" on="0"/>
        <pt x="228" y="484" on="1"/>
        <pt x="296" y="484" on="0"/>
        <pt x="352" y="436" on="1"/>
        <pt x="407" y="484" on="0"/>
        <pt x="500" y="484" on="1"/>
        <pt x="582" y="484" on="0"/>
        <pt x="673" y="381" on="0"/>
        <pt x="673" y="288" on="1"/>
        <pt x="673" y="279" on="0"/>
        <pt x="672" y="264" on="0"/>
        <pt x="672" y="259" on="1"/>
        <pt x="671" y="253" on="0"/>
        <pt x="671" y="248" on="1"/>
        <pt x="659" y="238" on="1"/>
        <pt x="420" y="216" on="1"/>
        <pt x="428" y="162" on="0"/>
        <pt x="475" y="119" on="0"/>
        <pt x="526" y="119" on="1"/>
        <pt x="550" y="119" on="0"/>
        <pt x="592" y="128" on="0"/>
        <pt x="609" y="133" on="1"/>
        <pt x="627" y="139" on="0"/>
        <pt x="644" y="148" on="1"/>
        <pt x="653" y="143" on="1"/>
      </contour>
      <contour>
        <pt x="199" y="197" on="1"/>
        <pt x="185" y="195" on="0"/>
        <pt x="174" y="182" on="0"/>
        <pt x="174" y="168" on="1"/>
        <pt x="174" y="145" on="0"/>
        <pt x="195" y="120" on="0"/>
        <pt x="214" y="120" on="1"/>
        <pt x="226" y="120" on="0"/>
        <pt x="256" y="126" on="0"/>
        <pt x="268" y="131" on="1"/>
        <pt x="256" y="165" on="0"/>
        <pt x="254" y="205" on="1"/>
      </contour>
      <contour>
        <pt x="414" y="288" on="1"/>
        <pt x="490" y="300" on="1"/>
        <pt x="505" y="301" on="0"/>
        <pt x="505" y="312" on="1"/>
        <pt x="505" y="339" on="0"/>
        <pt x="484" y="370" on="0"/>
        <pt x="464" y="370" on="1"/>
        <pt x="416" y="370" on="0"/>
        <pt x="414" y="317" on="1"/>
      </contour>
    </TTGlyph>
    <TTGlyph name="aeacute" xMin="6" yMin="-12" xMax="675" yMax="760">
      <component glyphName="ae" x="0" y="0" flags="0x204"/>
      <component glyphName="acute" x="154" y="0" flags="0x4"/>
    </TTGlyph>
    <TTGlyph name="agrave" xMin="11" yMin="-12" xMax="502" yMax="762">
      <component glyphName="a" x="0" y="0" flags="0x204"/>
      <component glyphName="grave" x="33" y="2" flags="0x4"/>
    </TTGlyph>
    <TTGlyph name="amacron" xMin="11" yMin="-12" xMax="502" yMax="695">
      <component glyphName="a" x="0" y="0" flags="0x204"/>
      <component glyphName="macron" x="36" y="2" flags="0x4"/>
    </TTGlyph>
    <TTGlyph name="ampersand" xMin="26" yMin="-41" xMax="741" yMax="659">
      <contour>
        <pt x="479" y="224" on="1"/>
        <pt x="487" y="258" on="0"/>
        <pt x="487" y="286" on="1"/>
        <pt x="487" y="321" on="0"/>
        <pt x="454" y="353" on="0"/>
        <pt x="419" y="353" on="1"/>
        <pt x="409" y="353" on="0"/>
        <pt x="392" y="351" on="0"/>
        <pt x="385" y="350" on="1"/>
        <pt x="377" y="348" on="0"/>
        <pt x="371" y="347" on="1"/>
        <pt x="345" y="440" on="1"/>
        <pt x="354" y="443" on="0"/>
        <pt x="367" y="447" on="1"/>
        <pt x="378" y="450" on="0"/>
        <pt x="410" y="455" on="0"/>
        <pt x="431" y="457" on="1"/>
        <pt x="634" y="469" on="1"/>
        <pt x="672" y="471" on="0"/>
        <pt x="723" y="479" on="0"/>
        <pt x="723" y="480" on="1"/>
        <pt x="741" y="458" on="1"/>
        <pt x="718" y="386" on="1"/>
        <pt x="711" y="366" on="0"/>
        <pt x="678" y="350" on="0"/>
        <pt x="649" y="350" on="1"/>
        <pt x="584" y="350" on="1"/>
        <pt x="582" y="342" on="1"/>
        <pt x="599" y="313" on="0"/>
        <pt x="599" y="278" on="1"/>
        <pt x="599" y="244" on="0"/>
        <pt x="571" y="183" on="0"/>
        <pt x="555" y="160" on="1"/>
        <pt x="689" y="47" on="1"/>
        <pt x="689" y="30" on="1"/>
        <pt x="665" y="10" on="0"/>
        <pt x="642" y="-6" on="1"/>
        <pt x="622" y="-20" on="0"/>
        <pt x="577" y="-41" on="0"/>
        <pt x="560" y="-41" on="1"/>
        <pt x="542" y="-41" on="0"/>
        <pt x="442" y="49" on="1"/>
        <pt x="396" y="20" on="0"/>
        <pt x="304" y="-12" on="0"/>
        <pt x="262" y="-12" on="1"/>
        <pt x="149" y="-12" on="0"/>
        <pt x="26" y="81" on="0"/>
        <pt x="26" y="166" on="1"/>
        <pt x="26" y="211" on="0"/>
        <pt x="62" y="270" on="0"/>
        <pt x="84" y="289" on="1"/>
        <pt x="110" y="311" on="0"/>
        <pt x="142" y="324" on="1"/>
        <pt x="142" y="335" on="1"/>
        <pt x="120" y="357" on="0"/>
        <pt x="91" y="394" on="0"/>
        <pt x="73" y="427" on="0"/>
        <pt x="66" y="460" on="0"/>
        <pt x="66" y="478" on="1"/>
        <pt x="66" y="520" on="0"/>
        <pt x="101" y="587" on="0"/>
        <pt x="165" y="634" on="0"/>
        <pt x="258" y="659" on="0"/>
        <pt x="315" y="659" on="1"/>
        <pt x="350" y="659" on="0"/>
        <pt x="409" y="652" on="0"/>
        <pt x="430" y="648" on="1"/>
        <pt x="455" y="643" on="0"/>
        <pt x="474" y="637" on="1"/>
        <pt x="478" y="617" on="1"/>
        <pt x="428" y="507" on="1"/>
        <pt x="402" y="507" on="1"/>
        <pt x="382" y="525" on="0"/>
        <pt x="327" y="545" on="0"/>
        <pt x="298" y="545" on="1"/>
        <pt x="268" y="545" on="0"/>
        <pt x="235" y="516" on="0"/>
        <pt x="235" y="490" on="1"/>
        <pt x="235" y="473" on="0"/>
        <pt x="247" y="441" on="0"/>
        <pt x="273" y="405" on="0"/>
        <pt x="315" y="363" on="0"/>
        <pt x="346" y="337" on="1"/>
      </contour>
      <contour>
        <pt x="208" y="269" on="1"/>
        <pt x="184" y="237" on="0"/>
        <pt x="184" y="197" on="1"/>
        <pt x="184" y="153" on="0"/>
        <pt x="247" y="98" on="0"/>
        <pt x="297" y="98" on="1"/>
        <pt x="338" y="98" on="0"/>
        <pt x="374" y="111" on="1"/>
      </contour>
    </TTGlyph>
    <TTGlyph name="aogonek" xMin="11" yMin="-241" xMax="504" yMax="484">
      <contour>
        <pt x="497" y="-170" on="1"/>
        <pt x="481" y="-186" on="0"/>
        <pt x="463" y="-199" on="1"/>
        <pt x="448" y="-211" on="0"/>
        <pt x="411" y="-234" on="0"/>
        <pt x="393" y="-241" on="1"/>
        <pt x="333" y="-241" on="0"/>
        <pt x="264" y="-194" on="0"/>
        <pt x="264" y="-152" on="1"/>
        <pt x="264" y="-120" on="0"/>
        <pt x="300" y="-54" on="0"/>
        <pt x="345" y="-6" on="1"/>
        <pt x="287" y="9" on="0"/>
        <pt x="281" y="61" on="1"/>
        <pt x="269" y="66" on="1"/>
        <pt x="234" y="31" on="0"/>
        <pt x="175" y="-8" on="0"/>
        <pt x="158" y="-8" on="1"/>
        <pt x="127" y="-8" on="0"/>
        <pt x="74" y="18" on="0"/>
        <pt x="34" y="64" on="0"/>
        <pt x="11" y="126" on="0"/>
        <pt x="11" y="162" on="1"/>
        <pt x="11" y="194" on="0"/>
        <pt x="47" y="243" on="0"/>
        <pt x="75" y="249" on="1"/>
        <pt x="271" y="285" on="1"/>
        <pt x="271" y="286" on="1"/>
        <pt x="271" y="320" on="0"/>
        <pt x="227" y="358" on="0"/>
        <pt x="189" y="358" on="1"/>
        <pt x="169" y="358" on="0"/>
        <pt x="129" y="344" on="0"/>
        <pt x="112" y="336" on="1"/>
        <pt x="93" y="326" on="0"/>
        <pt x="74" y="315" on="1"/>
        <pt x="62" y="321" on="1"/>
        <pt x="37" y="401" on="1"/>
        <pt x="70" y="419" on="0"/>
        <pt x="103" y="434" on="1"/>
        <pt x="131" y="447" on="0"/>
        <pt x="192" y="472" on="0"/>
        <pt x="217" y="479" on="1"/>
        <pt x="235" y="484" on="0"/>
        <pt x="245" y="484" on="1"/>
        <pt x="320" y="484" on="0"/>
        <pt x="416" y="437" on="0"/>
        <pt x="434" y="392" on="1"/>
        <pt x="444" y="368" on="0"/>
        <pt x="444" y="339" on="1"/>
        <pt x="444" y="327" on="0"/>
        <pt x="437" y="277" on="0"/>
        <pt x="429" y="221" on="0"/>
        <pt x="422" y="172" on="0"/>
        <pt x="422" y="162" on="1"/>
        <pt x="422" y="147" on="0"/>
        <pt x="438" y="128" on="0"/>
        <pt x="451" y="128" on="1"/>
        <pt x="457" y="128" on="0"/>
        <pt x="469" y="130" on="0"/>
        <pt x="474" y="132" on="1"/>
        <pt x="479" y="134" on="0"/>
        <pt x="485" y="136" on="1"/>
        <pt x="504" y="105" on="1"/>
        <pt x="432" y="11" on="0"/>
        <pt x="365" y="-93" on="0"/>
        <pt x="365" y="-116" on="1"/>
        <pt x="365" y="-134" on="0"/>
        <pt x="387" y="-156" on="0"/>
        <pt x="406" y="-156" on="1"/>
        <pt x="417" y="-156" on="0"/>
        <pt x="440" y="-149" on="0"/>
        <pt x="450" y="-144" on="1"/>
        <pt x="461" y="-139" on="0"/>
        <pt x="472" y="-131" on="1"/>
      </contour>
      <contour>
        <pt x="269" y="212" on="1"/>
        <pt x="197" y="196" on="1"/>
        <pt x="186" y="194" on="0"/>
        <pt x="179" y="185" on="0"/>
        <pt x="179" y="174" on="1"/>
        <pt x="179" y="149" on="0"/>
        <pt x="201" y="120" on="0"/>
        <pt x="219" y="120" on="1"/>
        <pt x="231" y="120" on="0"/>
        <pt x="257" y="123" on="0"/>
        <pt x="268" y="126" on="1"/>
      </contour>
    </TTGlyph>
    <TTGlyph name="approxequal" xMin="10" yMin="31" xMax="495" yMax="446">
      <contour>
        <pt x="59" y="231" on="1"/>
        <pt x="10" y="287" on="1"/>
        <pt x="10" y="303" on="1"/>
        <pt x="117" y="418" on="1"/>
        <pt x="139" y="422" on="1"/>
        <pt x="156" y="422" on="0"/>
        <pt x="213" y="411" on="0"/>
        <pt x="273" y="399" on="0"/>
        <pt x="327" y="388" on="0"/>
        <pt x="342" y="388" on="1"/>
        <pt x="353" y="388" on="0"/>
        <pt x="384" y="406" on="0"/>
        <pt x="398" y="417" on="1"/>
        <pt x="414" y="429" on="0"/>
        <pt x="430" y="446" on="1"/>
        <pt x="446" y="446" on="1"/>
        <pt x="495" y="390" on="1"/>
        <pt x="495" y="374" on="1"/>
        <pt x="388" y="259" on="1"/>
        <pt x="366" y="255" on="1"/>
        <pt x="349" y="255" on="0"/>
        <pt x="292" y="266" on="0"/>
        <pt x="232" y="278" on="0"/>
        <pt x="178" y="289" on="0"/>
        <pt x="163" y="289" on="1"/>
        <pt x="151" y="289" on="0"/>
        <pt x="121" y="271" on="0"/>
        <pt x="107" y="260" on="1"/>
        <pt x="91" y="247" on="0"/>
        <pt x="75" y="231" on="1"/>
      </contour>
      <contour>
        <pt x="59" y="31" on="1"/>
        <pt x="10" y="87" on="1"/>
        <pt x="10" y="103" on="1"/>
        <pt x="117" y="218" on="1"/>
        <pt x="139" y="222" on="1"/>
        <pt x="156" y="222" on="0"/>
        <pt x="213" y="211" on="0"/>
        <pt x="273" y="199" on="0"/>
        <pt x="327" y="188" on="0"/>
        <pt x="342" y="188" on="1"/>
        <pt x="353" y="188" on="0"/>
        <pt x="384" y="206" on="0"/>
        <pt x="398" y="217" on="1"/>
        <pt x="414" y="229" on="0"/>
        <pt x="430" y="246" on="1"/>
        <pt x="446" y="246" on="1"/>
        <pt x="495" y="190" on="1"/>
        <pt x="495" y="174" on="1"/>
        <pt x="388" y="59" on="1"/>
        <pt x="366" y="55" on="1"/>
        <pt x="349" y="55" on="0"/>
        <pt x="292" y="66" on="0"/>
        <pt x="232" y="78" on="0"/>
        <pt x="178" y="89" on="0"/>
        <pt x="163" y="89" on="1"/>
        <pt x="151" y="89" on="0"/>
        <pt x="121" y="71" on="0"/>
        <pt x="107" y="60" on="1"/>
        <pt x="91" y="47" on="0"/>
        <pt x="75" y="31" on="1"/>
      </contour>
    </TTGlyph>
    <TTGlyph name="aring" xMin="11" yMin="-12" xMax="502" yMax="754">
      <component glyphName="a" x="0" y="0" flags="0x204"/>
      <component glyphName="ring" x="42" y="2" flags="0x4"/>
    </TTGlyph>
    <TTGlyph name="aringacute" xMin="11" yMin="-12" xMax="502" yMax="844">
      <contour>
        <pt x="271" y="286" on="1"/>
        <pt x="271" y="320" on="0"/>
        <pt x="227" y="358" on="0"/>
        <pt x="189" y="358" on="1"/>
        <pt x="169" y="358" on="0"/>
        <pt x="129" y="344" on="0"/>
        <pt x="112" y="336" on="1"/>
        <pt x="93" y="326" on="0"/>
        <pt x="74" y="315" on="1"/>
        <pt x="62" y="321" on="1"/>
        <pt x="37" y="401" on="1"/>
        <pt x="81" y="424" on="0"/>
        <pt x="121" y="442" on="1"/>
        <pt x="155" y="458" on="0"/>
        <pt x="225" y="484" on="0"/>
        <pt x="245" y="484" on="1"/>
        <pt x="302" y="484" on="0"/>
        <pt x="378" y="459" on="0"/>
        <pt x="425" y="419" on="0"/>
        <pt x="444" y="366" on="0"/>
        <pt x="444" y="339" on="1"/>
        <pt x="444" y="327" on="0"/>
        <pt x="437" y="277" on="0"/>
        <pt x="429" y="221" on="0"/>
        <pt x="422" y="172" on="0"/>
        <pt x="422" y="162" on="1"/>
        <pt x="422" y="147" on="0"/>
        <pt x="438" y="128" on="0"/>
        <pt x="451" y="128" on="1"/>
        <pt x="457" y="128" on="0"/>
        <pt x="469" y="130" on="0"/>
        <pt x="474" y="132" on="1"/>
        <pt x="479" y="134" on="0"/>
        <pt x="485" y="136" on="1"/>
        <pt x="502" y="109" on="1"/>
        <pt x="484" y="78" on="0"/>
        <pt x="466" y="52" on="1"/>
        <pt x="450" y="30" on="0"/>
        <pt x="411" y="-8" on="0"/>
        <pt x="394" y="-12" on="1"/>
        <pt x="344" y="-12" on="0"/>
        <pt x="286" y="26" on="0"/>
        <pt x="281" y="61" on="1"/>
        <pt x="269" y="66" on="1"/>
        <pt x="257" y="54" on="0"/>
        <pt x="228" y="28" on="0"/>
        <pt x="198" y="6" on="0"/>
        <pt x="170" y="-8" on="0"/>
        <pt x="158" y="-8" on="1"/>
        <pt x="127" y="-8" on="0"/>
        <pt x="74" y="18" on="0"/>
        <pt x="34" y="64" on="0"/>
        <pt x="11" y="126" on="0"/>
        <pt x="11" y="162" on="1"/>
        <pt x="11" y="195" on="0"/>
        <pt x="46" y="243" on="0"/>
        <pt x="75" y="249" on="1"/>
        <pt x="271" y="285" on="1"/>
      </contour>
      <contour>
        <pt x="269" y="212" on="1"/>
        <pt x="197" y="196" on="1"/>
        <pt x="186" y="194" on="0"/>
        <pt x="179" y="185" on="0"/>
        <pt x="179" y="174" on="1"/>
        <pt x="179" y="151" on="0"/>
        <pt x="200" y="120" on="0"/>
        <pt x="219" y="120" on="1"/>
        <pt x="230" y="120" on="0"/>
        <pt x="257" y="124" on="0"/>
        <pt x="268" y="126" on="1"/>
      </contour>
      <contour>
        <pt x="256" y="567" on="1"/>
        <pt x="265" y="567" on="0"/>
        <pt x="287" y="578" on="0"/>
        <pt x="287" y="596" on="1"/>
        <pt x="287" y="628" on="0"/>
        <pt x="252" y="628" on="1"/>
        <pt x="236" y="628" on="0"/>
        <pt x="221" y="612" on="0"/>
        <pt x="221" y="599" on="1"/>
        <pt x="221" y="580" on="0"/>
        <pt x="245" y="567" on="0"/>
      </contour>
      <contour>
        <pt x="250" y="504" on="1"/>
        <pt x="205" y="504" on="0"/>
        <pt x="159" y="555" on="0"/>
        <pt x="159" y="596" on="1"/>
        <pt x="159" y="638" on="0"/>
        <pt x="212" y="693" on="0"/>
        <pt x="258" y="693" on="1"/>
        <pt x="307" y="693" on="0"/>
        <pt x="349" y="639" on="0"/>
        <pt x="349" y="605" on="1"/>
        <pt x="349" y="585" on="0"/>
        <pt x="336" y="549" on="0"/>
        <pt x="310" y="521" on="0"/>
        <pt x="274" y="504" on="0"/>
      </contour>
      <contour>
        <pt x="382" y="728" on="1"/>
        <pt x="347" y="722" on="0"/>
        <pt x="309" y="714" on="1"/>
        <pt x="277" y="707" on="0"/>
        <pt x="195" y="690" on="0"/>
        <pt x="153" y="679" on="1"/>
        <pt x="136" y="691" on="1"/>
        <pt x="117" y="754" on="1"/>
        <pt x="159" y="770" on="0"/>
        <pt x="239" y="802" on="0"/>
        <pt x="271" y="815" on="1"/>
        <pt x="308" y="830" on="0"/>
        <pt x="341" y="844" on="1"/>
        <pt x="356" y="840" on="1"/>
        <pt x="388" y="743" on="1"/>
      </contour>
    </TTGlyph>
    <TTGlyph name="asciicircum" xMin="5" yMin="96" xMax="465" yMax="484">
      <contour>
        <pt x="318" y="476" on="1"/>
        <pt x="332" y="442" on="0"/>
        <pt x="347" y="409" on="1"/>
        <pt x="359" y="380" on="0"/>
        <pt x="388" y="316" on="0"/>
        <pt x="399" y="290" on="1"/>
        <pt x="412" y="263" on="0"/>
        <pt x="436" y="213" on="0"/>
        <pt x="445" y="194" on="1"/>
        <pt x="456" y="171" on="0"/>
        <pt x="465" y="152" on="1"/>
        <pt x="373" y="96" on="1"/>
        <pt x="352" y="105" on="1"/>
        <pt x="341" y="127" on="0"/>
        <pt x="330" y="151" on="1"/>
        <pt x="320" y="171" on="0"/>
        <pt x="297" y="223" on="0"/>
        <pt x="285" y="250" on="1"/>
        <pt x="236" y="352" on="1"/>
        <pt x="228" y="352" on="1"/>
        <pt x="189" y="262" on="1"/>
        <pt x="177" y="234" on="0"/>
        <pt x="153" y="176" on="0"/>
        <pt x="143" y="152" on="1"/>
        <pt x="132" y="124" on="0"/>
        <pt x="121" y="96" on="1"/>
        <pt x="16" y="130" on="1"/>
        <pt x="5" y="148" on="1"/>
        <pt x="17" y="170" on="0"/>
        <pt x="28" y="195" on="1"/>
        <pt x="38" y="216" on="0"/>
        <pt x="62" y="270" on="0"/>
        <pt x="75" y="299" on="1"/>
        <pt x="152" y="477" on="1"/>
        <pt x="303" y="484" on="1"/>
      </contour>
    </TTGlyph>
    <TTGlyph name="asciitilde" xMin="10" yMin="151" xMax="495" yMax="366">
      <contour>
        <pt x="59" y="151" on="1"/>
        <pt x="10" y="207" on="1"/>
        <pt x="10" y="223" on="1"/>
        <pt x="117" y="338" on="1"/>
        <pt x="139" y="342" on="1"/>
        <pt x="156" y="342" on="0"/>
        <pt x="213" y="331" on="0"/>
        <pt x="273" y="319" on="0"/>
        <pt x="327" y="308" on="0"/>
        <pt x="342" y="308" on="1"/>
        <pt x="353" y="308" on="0"/>
        <pt x="384" y="326" on="0"/>
        <pt x="398" y="337" on="1"/>
        <pt x="414" y="349" on="0"/>
        <pt x="430" y="366" on="1"/>
        <pt x="446" y="366" on="1"/>
        <pt x="495" y="310" on="1"/>
        <pt x="495" y="294" on="1"/>
        <pt x="388" y="179" on="1"/>
        <pt x="366" y="175" on="1"/>
        <pt x="349" y="175" on="0"/>
        <pt x="292" y="186" on="0"/>
        <pt x="232" y="198" on="0"/>
        <pt x="178" y="209" on="0"/>
        <pt x="163" y="209" on="1"/>
        <pt x="151" y="209" on="0"/>
        <pt x="121" y="191" on="0"/>
        <pt x="107" y="180" on="1"/>
        <pt x="91" y="167" on="0"/>
        <pt x="75" y="151" on="1"/>
      </contour>
    </TTGlyph>
    <TTGlyph name="asterisk" xMin="12" yMin="388" xMax="374" yMax="752">
      <contour>
        <pt x="37" y="681" on="1"/>
        <pt x="50" y="674" on="0"/>
        <pt x="67" y="663" on="1"/>
        <pt x="81" y="654" on="0"/>
        <pt x="119" y="628" on="0"/>
        <pt x="142" y="611" on="1"/>
        <pt x="133" y="562" on="1"/>
        <pt x="124" y="555" on="1"/>
        <pt x="103" y="561" on="0"/>
        <pt x="63" y="571" on="0"/>
        <pt x="47" y="576" on="1"/>
        <pt x="29" y="580" on="0"/>
        <pt x="12" y="585" on="1"/>
        <pt x="12" y="601" on="0"/>
        <pt x="14" y="617" on="1"/>
        <pt x="16" y="631" on="0"/>
        <pt x="21" y="663" on="0"/>
        <pt x="26" y="678" on="1"/>
      </contour>
      <contour>
        <pt x="31" y="465" on="1"/>
        <pt x="42" y="475" on="0"/>
        <pt x="57" y="487" on="1"/>
        <pt x="70" y="498" on="0"/>
        <pt x="106" y="526" on="0"/>
        <pt x="129" y="543" on="1"/>
        <pt x="174" y="519" on="1"/>
        <pt x="177" y="510" on="1"/>
        <pt x="165" y="492" on="0"/>
        <pt x="142" y="457" on="0"/>
        <pt x="134" y="443" on="1"/>
        <pt x="123" y="426" on="0"/>
        <pt x="115" y="412" on="1"/>
        <pt x="100" y="417" on="0"/>
        <pt x="85" y="423" on="1"/>
        <pt x="72" y="428" on="0"/>
        <pt x="42" y="443" on="0"/>
        <pt x="30" y="453" on="1"/>
      </contour>
      <contour>
        <pt x="234" y="393" on="1"/>
        <pt x="228" y="406" on="0"/>
        <pt x="221" y="424" on="1"/>
        <pt x="215" y="439" on="0"/>
        <pt x="198" y="483" on="0"/>
        <pt x="190" y="511" on="1"/>
        <pt x="227" y="546" on="1"/>
        <pt x="238" y="546" on="1"/>
        <pt x="251" y="529" on="0"/>
        <pt x="276" y="497" on="0"/>
        <pt x="287" y="484" on="1"/>
        <pt x="299" y="469" on="0"/>
        <pt x="311" y="456" on="1"/>
        <pt x="302" y="443" on="0"/>
        <pt x="291" y="431" on="1"/>
        <pt x="282" y="420" on="0"/>
        <pt x="258" y="396" on="0"/>
        <pt x="245" y="388" on="1"/>
      </contour>
      <contour>
        <pt x="366" y="564" on="1"/>
        <pt x="351" y="563" on="0"/>
        <pt x="332" y="561" on="1"/>
        <pt x="315" y="559" on="0"/>
        <pt x="269" y="557" on="0"/>
        <pt x="240" y="558" on="1"/>
        <pt x="218" y="604" on="1"/>
        <pt x="222" y="615" on="1"/>
        <pt x="242" y="622" on="0"/>
        <pt x="281" y="637" on="0"/>
        <pt x="296" y="643" on="1"/>
        <pt x="314" y="650" on="0"/>
        <pt x="330" y="656" on="1"/>
        <pt x="339" y="643" on="0"/>
        <pt x="348" y="629" on="1"/>
        <pt x="356" y="617" on="0"/>
        <pt x="369" y="587" on="0"/>
        <pt x="374" y="572" on="1"/>
      </contour>
      <contour>
        <pt x="245" y="742" on="1"/>
        <pt x="241" y="726" on="0"/>
        <pt x="236" y="708" on="1"/>
        <pt x="231" y="692" on="0"/>
        <pt x="219" y="647" on="0"/>
        <pt x="210" y="620" on="1"/>
        <pt x="160" y="615" on="1"/>
        <pt x="152" y="620" on="1"/>
        <pt x="151" y="641" on="0"/>
        <pt x="149" y="682" on="0"/>
        <pt x="147" y="699" on="1"/>
        <pt x="145" y="718" on="0"/>
        <pt x="144" y="736" on="1"/>
        <pt x="159" y="740" on="0"/>
        <pt x="175" y="744" on="1"/>
        <pt x="189" y="747" on="0"/>
        <pt x="222" y="752" on="0"/>
        <pt x="238" y="752" on="1"/>
      </contour>
    </TTGlyph>
    <TTGlyph name="at" xMin="14" yMin="-240" xMax="883" yMax="673">
      <contour>
        <pt x="511" y="-12" on="1"/>
        <pt x="487" y="-12" on="0"/>
        <pt x="457" y="18" on="0"/>
        <pt x="457" y="42" on="1"/>
        <pt x="457" y="47" on="0"/>
        <pt x="459" y="59" on="0"/>
        <pt x="464" y="83" on="0"/>
        <pt x="473" y="124" on="0"/>
        <pt x="481" y="158" on="1"/>
        <pt x="471" y="158" on="1"/>
        <pt x="430" y="87" on="0"/>
        <pt x="369" y="9" on="0"/>
        <pt x="338" y="-12" on="1"/>
        <pt x="266" y="-12" on="0"/>
        <pt x="187" y="70" on="0"/>
        <pt x="187" y="145" on="1"/>
        <pt x="187" y="204" on="0"/>
        <pt x="232" y="321" on="0"/>
        <pt x="304" y="414" on="0"/>
        <pt x="395" y="472" on="0"/>
        <pt x="441" y="472" on="1"/>
        <pt x="513" y="452" on="1"/>
        <pt x="518" y="472" on="1"/>
        <pt x="537" y="484" on="1"/>
        <pt x="671" y="472" on="1"/>
        <pt x="679" y="449" on="1"/>
        <pt x="665" y="388" on="0"/>
        <pt x="652" y="328" on="1"/>
        <pt x="641" y="277" on="0"/>
        <pt x="618" y="160" on="0"/>
        <pt x="610" y="112" on="1"/>
        <pt x="617" y="104" on="1"/>
        <pt x="651" y="104" on="0"/>
        <pt x="710" y="135" on="0"/>
        <pt x="752" y="190" on="0"/>
        <pt x="776" y="265" on="0"/>
        <pt x="776" y="310" on="1"/>
        <pt x="776" y="370" on="0"/>
        <pt x="734" y="466" on="0"/>
        <pt x="656" y="532" on="0"/>
        <pt x="543" y="568" on="0"/>
        <pt x="473" y="568" on="1"/>
        <pt x="398" y="568" on="0"/>
        <pt x="269" y="512" on="0"/>
        <pt x="176" y="414" on="0"/>
        <pt x="123" y="281" on="0"/>
        <pt x="123" y="203" on="1"/>
        <pt x="123" y="31" on="0"/>
        <pt x="332" y="-149" on="0"/>
        <pt x="531" y="-149" on="1"/>
        <pt x="531" y="-156" on="0"/>
        <pt x="530" y="-169" on="0"/>
        <pt x="530" y="-176" on="1"/>
        <pt x="493" y="-240" on="1"/>
        <pt x="381" y="-240" on="0"/>
        <pt x="203" y="-184" on="0"/>
        <pt x="80" y="-78" on="0"/>
        <pt x="14" y="73" on="0"/>
        <pt x="14" y="169" on="1"/>
        <pt x="14" y="236" on="0"/>
        <pt x="50" y="363" on="0"/>
        <pt x="116" y="475" on="0"/>
        <pt x="207" y="568" on="0"/>
        <pt x="316" y="636" on="0"/>
        <pt x="439" y="673" on="0"/>
        <pt x="504" y="673" on="1"/>
        <pt x="592" y="673" on="0"/>
        <pt x="733" y="628" on="0"/>
        <pt x="831" y="545" on="0"/>
        <pt x="883" y="425" on="0"/>
        <pt x="883" y="350" on="1"/>
        <pt x="883" y="267" on="0"/>
        <pt x="831" y="133" on="0"/>
        <pt x="734" y="39" on="0"/>
        <pt x="596" y="-12" on="0"/>
      </contour>
      <contour>
        <pt x="384" y="143" on="1"/>
        <pt x="392" y="143" on="0"/>
        <pt x="419" y="178" on="0"/>
        <pt x="447" y="235" on="0"/>
        <pt x="475" y="305" on="0"/>
        <pt x="485" y="341" on="1"/>
        <pt x="473" y="348" on="0"/>
        <pt x="461" y="354" on="1"/>
        <pt x="450" y="359" on="0"/>
        <pt x="425" y="367" on="0"/>
        <pt x="411" y="367" on="1"/>
        <pt x="404" y="367" on="0"/>
        <pt x="389" y="338" on="0"/>
        <pt x="377" y="292" on="0"/>
        <pt x="370" y="235" on="0"/>
        <pt x="370" y="207" on="1"/>
        <pt x="370" y="179" on="0"/>
        <pt x="378" y="143" on="0"/>
      </contour>
    </TTGlyph>
    <TTGlyph name="atilde" xMin="11" yMin="-12" xMax="502" yMax="740">
      <component glyphName="a" x="0" y="0" flags="0x204"/>
      <component glyphName="tilde" x="35" y="2" flags="0x4"/>
    </TTGlyph>
    <TTGlyph name="b" xMin="-30" yMin="-7" xMax="506" yMax="742">
      <contour>
        <pt x="48" y="565" on="1"/>
        <pt x="48" y="601" on="0"/>
        <pt x="29" y="624" on="0"/>
        <pt x="0" y="624" on="1"/>
        <pt x="-25" y="624" on="1"/>
        <pt x="-30" y="631" on="1"/>
        <pt x="-22" y="706" on="1"/>
        <pt x="23" y="711" on="0"/>
        <pt x="117" y="725" on="0"/>
        <pt x="156" y="730" on="1"/>
        <pt x="202" y="736" on="0"/>
        <pt x="246" y="742" on="1"/>
        <pt x="255" y="716" on="1"/>
        <pt x="243" y="705" on="0"/>
        <pt x="228" y="555" on="0"/>
        <pt x="224" y="420" on="1"/>
        <pt x="258" y="444" on="0"/>
        <pt x="311" y="479" on="0"/>
        <pt x="319" y="479" on="1"/>
        <pt x="409" y="479" on="0"/>
        <pt x="506" y="360" on="0"/>
        <pt x="506" y="251" on="1"/>
        <pt x="506" y="191" on="0"/>
        <pt x="470" y="96" on="0"/>
        <pt x="404" y="29" on="0"/>
        <pt x="309" y="-7" on="0"/>
        <pt x="250" y="-7" on="1"/>
        <pt x="215" y="-7" on="0"/>
        <pt x="146" y="-2" on="0"/>
        <pt x="119" y="2" on="1"/>
        <pt x="87" y="6" on="0"/>
        <pt x="58" y="12" on="1"/>
        <pt x="48" y="25" on="1"/>
      </contour>
      <contour>
        <pt x="220" y="115" on="1"/>
        <pt x="227" y="112" on="0"/>
        <pt x="234" y="110" on="1"/>
        <pt x="240" y="108" on="0"/>
        <pt x="256" y="106" on="0"/>
        <pt x="266" y="106" on="1"/>
        <pt x="318" y="106" on="0"/>
        <pt x="318" y="210" on="1"/>
        <pt x="318" y="284" on="0"/>
        <pt x="289" y="353" on="0"/>
        <pt x="258" y="353" on="1"/>
        <pt x="243" y="353" on="0"/>
        <pt x="225" y="346" on="0"/>
        <pt x="222" y="344" on="1"/>
      </contour>
    </TTGlyph>
    <TTGlyph name="b.sups" xMin="-15" yMin="323" xMax="362" yMax="824">
      <contour>
        <pt x="40" y="700" on="1"/>
        <pt x="40" y="725" on="0"/>
        <pt x="27" y="740" on="0"/>
        <pt x="6" y="740" on="1"/>
        <pt x="-12" y="740" on="1"/>
        <pt x="-15" y="745" on="1"/>
        <pt x="-9" y="799" on="1"/>
        <pt x="23" y="803" on="0"/>
        <pt x="91" y="812" on="0"/>
        <pt x="120" y="816" on="1"/>
        <pt x="153" y="820" on="0"/>
        <pt x="186" y="824" on="1"/>
        <pt x="192" y="806" on="1"/>
        <pt x="176" y="790" on="0"/>
        <pt x="170" y="611" on="1"/>
        <pt x="193" y="626" on="0"/>
        <pt x="228" y="649" on="0"/>
        <pt x="234" y="649" on="1"/>
        <pt x="296" y="649" on="0"/>
        <pt x="362" y="570" on="0"/>
        <pt x="362" y="495" on="1"/>
        <pt x="362" y="414" on="0"/>
        <pt x="269" y="323" on="0"/>
        <pt x="185" y="323" on="1"/>
        <pt x="159" y="323" on="0"/>
        <pt x="111" y="327" on="0"/>
        <pt x="91" y="329" on="1"/>
        <pt x="68" y="332" on="0"/>
        <pt x="47" y="336" on="1"/>
        <pt x="40" y="345" on="1"/>
      </contour>
      <contour>
        <pt x="168" y="409" on="1"/>
        <pt x="166" y="410" on="0"/>
        <pt x="182" y="404" on="0"/>
        <pt x="195" y="404" on="1"/>
        <pt x="209" y="404" on="0"/>
        <pt x="223" y="434" on="0"/>
        <pt x="223" y="467" on="1"/>
        <pt x="223" y="517" on="0"/>
        <pt x="207" y="560" on="0"/>
        <pt x="188" y="560" on="1"/>
        <pt x="177" y="560" on="0"/>
        <pt x="169" y="557" on="0"/>
        <pt x="169" y="558" on="1"/>
      </contour>
    </TTGlyph>
    <TTGlyph name="backslash" xMin="-15" yMin="-110" xMax="325" yMax="675">
      <contour>
        <pt x="2" y="675" on="1"/>
        <pt x="121" y="675" on="1"/>
        <pt x="236" y="226" on="1"/>
        <pt x="250" y="169" on="0"/>
        <pt x="282" y="54" on="0"/>
        <pt x="295" y="8" on="1"/>
        <pt x="310" y="-46" on="0"/>
        <pt x="325" y="-95" on="1"/>
        <pt x="314" y="-110" on="1"/>
        <pt x="188" y="-110" on="1"/>
        <pt x="175" y="-63" on="0"/>
        <pt x="162" y="-9" on="1"/>
        <pt x="150" y="37" on="0"/>
        <pt x="121" y="152" on="0"/>
        <pt x="105" y="215" on="1"/>
        <pt x="97" y="245" on="0"/>
        <pt x="78" y="315" on="0"/>
        <pt x="58" y="389" on="0"/>
        <pt x="38" y="462" on="0"/>
        <pt x="29" y="496" on="1"/>
        <pt x="7" y="575" on="0"/>
        <pt x="-15" y="655" on="1"/>
      </contour>
    </TTGlyph>
    <TTGlyph name="bar" xMin="78" yMin="-269" xMax="215" yMax="807">
      <contour>
        <pt x="215" y="791" on="1"/>
        <pt x="213" y="695" on="0"/>
        <pt x="212" y="603" on="1"/>
        <pt x="211" y="564" on="0"/>
        <pt x="210" y="480" on="0"/>
        <pt x="209" y="398" on="0"/>
        <pt x="209" y="322" on="0"/>
        <pt x="209" y="291" on="1"/>
        <pt x="209" y="-48" on="1"/>
        <pt x="209" y="-150" on="0"/>
        <pt x="210" y="-258" on="1"/>
        <pt x="93" y="-269" on="1"/>
        <pt x="78" y="-253" on="1"/>
        <pt x="78" y="-56" on="1"/>
        <pt x="78" y="-15" on="0"/>
        <pt x="78" y="74" on="0"/>
        <pt x="78" y="161" on="0"/>
        <pt x="79" y="242" on="0"/>
        <pt x="79" y="276" on="1"/>
        <pt x="80" y="796" on="1"/>
        <pt x="194" y="807" on="1"/>
      </contour>
    </TTGlyph>
</ttFont>
